<svg width="31" height="32" viewBox="0 0 31 32" fill="none" xmlns="http://www.w3.org/2000/svg">
<path d="M3.20013 0.600098C1.68996 0.600098 0.466797 1.8531 0.466797 3.4001V28.6001C0.466797 30.1471 1.68996 31.4001 3.20013 31.4001H27.8001C29.3103 31.4001 30.5335 30.1471 30.5335 28.6001V3.4001C30.5335 1.8531 29.3103 0.600098 27.8001 0.600098H3.20013ZM18.9168 10.4001H22.4109C22.7881 10.4001 23.0942 10.7137 23.0942 11.1001C23.0942 11.4865 22.7881 11.8001 22.4109 11.8001H18.9168C18.5396 11.8001 18.2335 11.4865 18.2335 11.1001C18.2335 10.7137 18.5396 10.4001 18.9168 10.4001ZM7.19069 10.9388H10.9971C13.2439 10.9388 14.5846 12.0648 14.5846 13.8974C14.5846 15.1546 13.6768 16.2515 12.4892 16.4321V16.5798C14.0226 16.6946 15.1371 17.8783 15.1371 19.4071C15.1385 21.4861 13.6055 22.8032 11.1332 22.8032H7.19069C6.49642 22.8032 5.93346 22.2265 5.93346 21.5153V12.2267C5.93346 11.5155 6.49642 10.9388 7.19069 10.9388ZM8.35716 12.8364V15.8552H10.1776C11.4869 15.8566 12.2009 15.3047 12.2009 14.3513C12.2009 13.4063 11.5367 12.8364 10.3805 12.8364H8.35716ZM20.9161 13.5364C23.525 13.5364 25.0641 15.2395 25.0641 18.1165V18.8466H18.9915V18.9696C19.023 20.3178 19.7944 21.1571 21.0148 21.1571C21.9373 21.1571 22.5705 20.8212 22.8193 20.222H24.9947C24.6421 21.9328 23.1156 23.0001 20.9481 23.0001C18.2517 23.0001 16.6639 21.2562 16.6639 18.3134C16.6639 15.3622 18.2839 13.5364 20.9161 13.5364ZM20.9268 15.3712C19.843 15.3712 19.0788 16.1421 18.9995 17.3181H22.7712C22.722 16.1183 22.0174 15.3712 20.9268 15.3712ZM8.35716 17.5341V20.9056H10.5166C11.9133 20.9056 12.668 20.3026 12.668 19.1938C12.668 18.1074 11.8887 17.5341 10.4605 17.5341H8.35716Z" fill="#DCE2EB"/>
</svg>
