<svg width="234" height="228" viewBox="0 0 234 228" fill="none" xmlns="http://www.w3.org/2000/svg">
<g clip-path="url(#clip0_57_2)">
<path d="M227 61.56H117V227.56H227V61.56Z" fill="#B01036"/>
<path d="M227 61.56H8V227.56H227V61.56Z" fill="#B01036"/>
<path d="M183 61.56H161V227.56H183V61.56Z" fill="white"/>
<path opacity="0.25" d="M227 61.56H117V227.56H227V61.56Z" fill="black"/>
<path d="M74 61.56H52V227.56H74V61.56Z" fill="white"/>
<path d="M74.9011 8.32271C88.1476 11.6525 99.5289 20.1081 106.541 31.8293C113.553 43.5505 115.622 57.5773 112.292 70.8238L111.927 72.2786L61.9805 59.7237C55.1643 58.0103 49.3079 53.6594 45.6997 47.6281C42.0915 41.5968 41.0269 34.3791 42.7403 27.5629C44.4537 20.7467 48.8046 14.8903 54.8359 11.2821C60.8672 7.67385 68.0849 6.60934 74.9011 8.32271Z" stroke="#99BFA3" stroke-width="6" stroke-miterlimit="10"/>
<path d="M75.2683 4.80672C88.5149 8.13648 99.8961 16.592 106.908 28.3133C113.921 40.0345 115.989 54.0613 112.66 67.3078L112.294 68.7626L62.3478 56.2077C55.5316 54.4943 49.6752 50.1434 46.0669 44.1121C42.4587 38.0807 41.3942 30.8631 43.1076 24.0469C44.8209 17.2307 49.1718 11.3743 55.2032 7.76609C61.2345 4.15785 68.4521 3.09335 75.2683 4.80672Z" stroke="#D0E7DF" stroke-width="6" stroke-miterlimit="10"/>
<path d="M172.139 58.7296L122.193 71.2845L121.827 69.8298C118.497 56.5832 120.566 42.5564 127.578 30.8352C134.591 19.114 145.972 10.6584 159.218 7.32867C166.035 5.61529 173.252 6.6798 179.284 10.288C185.315 13.8963 189.666 19.7527 191.379 26.5689C193.093 33.3851 192.028 40.6027 188.42 46.634C184.812 52.6653 178.955 57.0163 172.139 58.7296Z" stroke="#99BFA3" stroke-width="6" stroke-miterlimit="10"/>
<path d="M171.815 55.2135L121.868 67.7684L121.503 66.3136C118.173 53.067 120.242 39.0403 127.254 27.3191C134.266 15.5978 145.648 7.14227 158.894 3.8125C165.71 2.09913 172.928 3.16366 178.959 6.7719C184.991 10.3801 189.342 16.2365 191.055 23.0527C192.768 29.8689 191.704 37.0866 188.096 43.1179C184.487 49.1492 178.631 53.5001 171.815 55.2135Z" stroke="#D0E7DF" stroke-width="6" stroke-miterlimit="10"/>
<path d="M234 61.56H117V90.56H234V61.56Z" fill="#B01036"/>
<path d="M183 61.56H161V90.56H183V61.56Z" fill="white"/>
<path opacity="0.3" d="M227 90.5599H117V97.5599H227V90.5599Z" fill="black"/>
<path opacity="0.25" d="M234 61.56H117V90.56H234V61.56Z" fill="black"/>
<path d="M117 61.56H0V90.56H117V61.56Z" fill="#B01036"/>
<path opacity="0.3" d="M117 90.5599H8V97.5599H117V90.5599Z" fill="black"/>
<path d="M74 61.56H52V90.56H74V61.56Z" fill="white"/>
</g>
<defs>
<clipPath id="clip0_57_2">
<rect width="234" height="227.56" fill="white"/>
</clipPath>
</defs>
</svg>
