<svg width="32" height="32" viewBox="0 0 32 32" fill="none" xmlns="http://www.w3.org/2000/svg">
<path d="M3.4001 0.600098C1.8531 0.600098 0.600098 1.8531 0.600098 3.4001V28.6001C0.600098 30.1471 1.8531 31.4001 3.4001 31.4001H28.6001C30.1471 31.4001 31.4001 30.1471 31.4001 28.6001V3.4001C31.4001 1.8531 30.1471 0.600098 28.6001 0.600098H3.4001ZM7.10791 7.6001H13.5638L17.3317 12.9868L21.9938 7.6001H24.0255L18.245 14.2938L25.3161 24.4001H18.8603L14.6794 18.4228L9.51689 24.4001H7.45244L13.7606 17.113L7.10791 7.6001ZM10.2306 9.25713L19.686 22.7349H22.1907L12.7325 9.25713H10.2306Z" fill="#DCE2EB"/>
</svg>
