<svg width="263" height="405" viewBox="0 0 263 405" fill="none" xmlns="http://www.w3.org/2000/svg">
<path d="M59.6512 66.6868C43.8937 74.431 28.8458 83.6244 16.7116 96.6945C10.4518 103.441 5.03324 111.28 2.4109 120.242C-0.996266 131.915 2.14772 143.875 6.99294 154.668C13.5112 169.14 20.6874 182.751 22.1207 198.847C23.5306 214.707 24.6162 230.986 29.4285 246.295C35.603 265.71 48.1114 282.485 64.9476 293.932C84.1264 306.861 106.468 305.167 128.081 302.222C147.199 299.611 175.706 299.87 183.536 277.093C185.805 270.507 185.415 263.115 183.592 256.307C179.748 241.788 170.081 229.753 166.157 215.271C162.59 202.098 164.676 187.677 171.096 175.925C182.901 154.306 209.063 147.437 204.101 117.476C201.977 104.632 194.932 93.147 186.896 83.0362C177.83 71.6316 167.158 61.3562 154.53 54.4918C131.625 42.038 105.848 46.1689 83.1865 56.0162C75.3336 59.399 67.4054 62.8618 59.6512 66.6868Z" fill="#6DA9E4"/>
<path d="M99.1885 175.228C105.15 197.735 109.44 220.652 112.023 243.792C114.603 266.847 115.501 290.06 114.711 313.246H138.326C144.24 288.479 146.513 262.982 145.075 237.558C143.904 216.917 140.275 196.49 134.266 176.71L99.1885 175.228Z" fill="#36474F"/>
<mask id="mask0_53_1109" style="mask-type:luminance" maskUnits="userSpaceOnUse" x="99" y="175" width="47" height="139">
<path d="M99.1885 175.228C105.15 197.735 109.44 220.652 112.023 243.792C114.603 266.847 115.501 290.06 114.711 313.246H138.326C144.24 288.479 146.513 262.982 145.075 237.558C143.904 216.917 140.275 196.49 134.266 176.71L99.1885 175.228Z" fill="white"/>
</mask>
<g mask="url(#mask0_53_1109)">
<g opacity="0.15">
<path d="M21.3877 174.367C21.0023 176.274 20.653 178.184 20.3397 180.098C18.7089 190.03 17.52 200.089 16.2511 210.03C15.7529 213.891 15.3895 217.77 15.1608 221.665C14.7048 229.381 14.7849 237.118 15.4005 244.823C15.5759 246.996 15.7921 249.167 16.049 251.334C17.2756 261.563 18.582 271.791 20.194 281.968L29.4333 303.883C34.9799 314.341 43.11 323.203 53.0484 329.623C58.6502 335.242 65.6135 339.308 73.2564 341.423C84.1157 347.15 96.3029 349.876 108.564 349.323L132.926 346.029L154.817 336.784C165.262 331.233 174.113 323.097 180.528 313.152C188.599 304.347 194.252 293.598 196.934 281.954C197.404 279.902 197.799 277.832 198.137 275.748C198.303 274.706 198.46 273.662 198.607 272.614C199.852 263.52 201.154 254.425 202.254 245.326C202.776 241.007 203.194 236.683 203.664 232.359C204.604 223.621 205.544 214.884 206.484 206.149L208.063 191.408H24.7807L24.4988 221.684L24.2168 251.955L24.0429 268.996C23.4886 281.272 26.214 293.474 31.9381 304.344C35.5959 315.662 42.1249 325.836 50.8866 333.872L69.431 348.217C79.6189 354.815 91.3804 358.573 103.503 359.104C111.477 361.287 119.891 361.287 127.865 359.104C139.987 358.573 151.749 354.815 161.937 348.217L180.486 333.872C191.71 322.647 199.831 308.696 204.054 293.386C206.924 284.291 209.258 275.035 211.042 265.665C214.435 248.257 216.47 230.576 218.82 213.022C219.539 207.635 220.23 202.239 220.878 196.842C221.436 184.567 218.713 172.365 212.988 161.495C209.333 150.169 202.802 139.987 194.034 131.948L175.485 117.603C165.293 111.002 153.527 107.244 141.4 106.716C133.425 104.533 125.012 104.533 117.037 106.716C104.915 107.247 93.1538 111.005 82.9657 117.603L64.4213 131.948C53.1926 143.17 45.0709 157.121 40.8531 172.434L35.5004 210.185L33.9965 220.767L213.989 245.157C214.177 242.748 214.43 240.345 214.75 237.949L211.46 262.339C212.631 253.708 214.678 245.219 217.57 237.003C218.381 234.698 219.263 232.417 220.216 230.162L210.976 252.078C211.089 251.805 211.207 251.532 211.324 251.259L43.8279 229.362C46.1292 238.772 47.9317 248.297 49.2277 257.898L45.938 233.507C47.4426 244.71 48.2588 255.995 48.3818 267.298C48.4194 270.516 48.3975 273.736 48.316 276.957H231.631L228.139 248.521C228.697 236.245 225.973 224.043 220.248 213.173C216.588 201.856 210.06 191.682 201.3 183.645C193.272 174.876 183.11 168.34 171.806 164.675C160.948 158.944 148.76 156.217 136.498 156.776L112.136 160.069C96.8501 164.298 82.9235 172.428 71.7197 183.664L57.3908 202.234C49.1718 216.277 44.8511 232.264 44.8759 248.54L41.7695 273.734L38.6773 298.948L36.9337 313.184L216.926 288.794L211.239 260.452C210.845 258.486 210.591 256.415 209.867 254.534L209.806 254.378L200.567 232.463C200.525 232.359 200.482 232.261 200.435 232.157C200.388 232.054 200.266 231.823 200.167 231.663C200.069 231.503 199.965 231.362 199.862 231.216C199.072 230.125 186.29 213.479 185.434 212.538C185.364 212.463 185.303 212.387 185.228 212.317L185.011 212.124C184.424 211.602 166.937 198.075 166.349 197.694C166.23 197.614 166.106 197.54 165.978 197.473C165.508 197.233 144.511 188.345 143.952 188.167C143.848 188.129 143.749 188.091 143.641 188.063H143.557C139.512 187.223 135.413 186.67 131.291 186.407C140.991 187.71 122.63 184.789 118.767 184.741C118.652 184.734 118.538 184.734 118.424 184.741C118.034 184.77 94.3056 187.964 93.9861 188.035C93.7866 188.078 93.5903 188.134 93.3986 188.204C73.2564 195.116 68.0211 198.39 52.0145 212.364C51.8486 212.511 51.6916 212.668 51.5446 212.834C48.9551 215.704 42.9961 223.886 44.1945 222.333C45.3929 220.781 39.166 228.619 36.9102 231.776C36.5969 232.22 36.3262 232.693 36.1019 233.188C34.4289 236.806 31.7971 243.388 31.4024 244.333C29.9925 247.697 28.1832 251.819 26.6652 255.583C26.5713 255.809 26.4867 256.053 26.4021 256.27C26.2047 256.825 26.0214 257.394 25.8334 257.954L24.7149 261.304L19.5126 276.891L199.505 301.281C199.397 299.294 199.476 297.302 199.74 295.329L196.45 319.72C196.806 317.116 197.495 314.568 198.499 312.14L189.26 334.055C189.452 333.585 189.659 333.114 189.875 332.681C196.468 322.482 200.223 310.708 200.755 298.571C203.485 286.449 202.918 273.815 199.115 261.986C196.434 250.342 190.783 239.593 182.713 230.788C176.297 220.843 167.446 212.708 157.002 207.155L135.112 197.91C119.163 193.54 102.335 193.54 86.3869 197.91L64.4965 207.155C50.8977 215.136 39.5712 226.475 31.5998 240.09C31.4588 240.381 31.3272 240.673 31.1956 240.969C31.1204 241.134 31.0499 241.299 30.9794 241.44C27.9952 248.45 24.5176 256.495 21.6602 263.553C21.4159 264.155 21.1903 264.767 20.9835 265.383C20.5659 266.628 20.2315 267.9 19.9825 269.189C19.099 273.744 18.6243 278.938 18.0604 283.125C17.4965 287.312 16.5753 292.535 16.2276 297.183C16.1282 298.544 16.1156 299.909 16.19 301.272C15.6357 313.547 18.3611 325.749 24.0852 336.619C27.7418 347.938 34.271 358.113 43.0337 366.147L61.5969 380.502C71.785 387.099 83.5464 390.857 95.6685 391.389C103.643 393.572 112.056 393.572 120.031 391.389C132.148 390.856 143.905 387.098 154.088 380.502L172.637 366.157C183.86 354.94 191.981 340.997 196.206 325.695L199.867 314.723L201.676 309.298C202.254 307.562 202.766 305.784 203.476 304.095L194.237 326.01C194.502 325.384 194.843 324.794 195.252 324.25L180.923 342.816C181.163 342.522 181.436 342.257 181.736 342.025L163.187 356.37C163.434 356.186 163.701 356.029 163.981 355.9L142.105 365.131C142.324 365.05 142.551 364.991 142.781 364.952L118.424 368.246C118.652 368.22 118.882 368.22 119.11 368.246L94.7474 364.952C94.9067 364.988 95.0636 365.034 95.2174 365.089L73.3363 355.848C73.5579 355.943 73.7664 356.067 73.9567 356.215L55.3982 341.865C55.5845 342.027 55.7573 342.203 55.9151 342.392L41.5863 323.827C41.8699 324.213 42.1065 324.632 42.2912 325.074L33.0519 303.158C33.785 304.965 34.0341 306.969 34.4148 308.875L35.8246 315.871L38.6068 329.746L40.1764 337.575C42.8589 349.22 48.5115 359.971 56.5825 368.777C62.9973 378.722 71.8488 386.856 82.2936 392.405L104.193 401.674C116.01 405.478 128.628 406.043 140.737 403.311C148.866 403.325 156.85 401.163 163.863 397.049C175.166 393.383 185.326 386.847 193.353 378.079L207.687 359.509C215.902 345.465 220.221 329.478 220.197 313.203L223.284 287.99L226.377 262.776L228.12 248.54H44.8383L48.3489 276.957C47.7946 289.233 50.52 301.434 56.2441 312.305C59.9008 323.623 66.4299 333.798 75.1926 341.832C83.2197 350.601 93.38 357.137 104.682 360.802C115.54 366.533 127.728 369.26 139.99 368.702L164.352 365.409C179.646 361.184 193.582 353.054 204.792 341.814L219.121 323.243C227.337 309.207 231.656 293.226 231.631 276.957C231.862 267.457 231.602 257.951 230.851 248.478C230.475 243.745 229.978 239.028 229.361 234.326C227.998 223.947 226.739 213.54 225.131 203.194C224.758 200.838 224.357 198.486 223.928 196.137C222.969 190.921 221.859 185.734 220.596 180.578L211.324 158.667L196.995 140.083L178.446 125.738C168.259 119.137 156.497 115.379 144.374 114.851C136.401 112.663 127.986 112.663 120.012 114.851C111.883 114.836 103.899 116.998 96.8857 121.113C89.243 123.226 82.2797 127.291 76.6777 132.908C66.7331 139.333 58.5982 148.201 53.0484 158.667C49.693 166.49 46.3845 174.341 43.123 182.22C42.8551 182.869 42.592 183.523 42.3382 184.177C41.8494 185.432 41.3795 186.686 40.9283 187.941C40.0166 190.507 39.1895 193.099 38.447 195.718C36.9527 200.995 35.8005 206.364 34.9975 211.79C33.691 220.574 32.6008 229.395 31.44 238.198C31.3429 238.948 31.2489 239.696 31.158 240.442C30.9794 242.011 30.8228 243.59 30.688 245.18C30.1298 257.456 32.8537 269.658 38.5786 280.528C42.2352 291.847 48.7643 302.021 57.5271 310.056L76.0761 324.401C86.264 330.999 98.0255 334.757 110.148 335.288C118.121 337.471 126.533 337.471 134.505 335.288C146.629 334.757 158.392 330.999 168.582 324.401L187.126 310.056C198.351 298.841 206.473 284.898 210.694 269.594L216.122 231.795L217.626 221.209L37.634 196.824C36.9478 202.371 36.257 207.922 35.5098 213.465L38.7994 189.079C36.835 203.716 34.5041 218.334 30.8102 232.651C29.7763 236.66 28.6281 240.638 27.3655 244.587L207.358 268.977L207.64 238.706L207.922 208.43L208.081 191.408C208.62 179.135 205.88 166.94 200.144 156.079C196.487 144.761 189.958 134.586 181.195 126.552C173.182 117.78 163.032 111.239 151.739 107.567C140.881 101.837 128.693 99.1084 116.431 99.6633L92.0687 102.957C76.7741 107.18 62.8387 115.311 51.6292 126.552L37.3003 145.117C29.084 159.161 24.765 175.147 24.7901 191.422C23.2236 206.164 21.643 220.906 20.0483 235.648C19.6112 239.741 19.2024 243.839 18.6384 247.918L21.9281 223.528C21.4864 226.779 20.9506 230.016 20.2128 233.216H196.929C196.723 231.913 196.53 230.6 196.351 229.292L199.641 253.682C198.112 242.229 197.772 230.648 198.626 219.125C198.87 215.863 199.209 212.608 199.641 209.362L196.351 233.752C196.831 230.211 197.42 226.685 198.118 223.176C201.922 211.347 202.488 198.713 199.758 186.59C199.227 174.443 195.466 162.658 188.865 152.452C183.319 141.996 175.193 133.135 165.259 126.712C156.464 118.633 145.727 112.976 134.097 110.292L109.734 106.998C93.4768 106.973 77.5082 111.299 63.4814 119.527L44.9323 133.872C33.7103 145.089 25.5908 159.032 21.3689 174.334L21.3877 174.367Z" fill="black"/>
</g>
<g opacity="0.15">
<path d="M138.213 198.423C138.931 202.394 139.567 206.378 140.121 210.374C140.154 210.604 140.187 210.844 140.215 211.07C140.215 211.188 140.248 211.305 140.262 211.423C140.262 211.366 140.234 211.192 140.262 211.423L140.46 212.938C140.587 213.945 140.714 214.956 140.831 215.968C141.066 217.953 141.279 219.939 141.47 221.924C142.253 229.957 142.712 238.01 142.847 246.084C142.979 254.11 142.792 262.135 142.288 270.158C142.04 274.145 141.71 278.125 141.296 282.099C140.887 286.108 140.403 290.027 139.858 293.782C138.712 301.73 137.245 309.62 135.459 317.452C135.234 318.444 134.989 319.437 134.764 320.43C134.615 320.972 134.687 321.55 134.964 322.038C135.241 322.527 135.701 322.885 136.242 323.034C136.783 323.183 137.361 323.111 137.849 322.834C138.336 322.556 138.694 322.096 138.843 321.554C140.723 313.669 142.282 305.716 143.519 297.696C144.772 289.572 145.703 281.417 146.311 273.231C146.903 265.145 147.169 257.043 147.11 248.925C147.047 240.861 146.665 232.805 145.963 224.756C145.242 216.57 144.193 208.415 142.814 200.291C142.645 199.291 142.47 198.288 142.288 197.285C142.09 196.188 140.709 195.473 139.689 195.803C139.156 195.966 138.706 196.327 138.431 196.811C138.156 197.296 138.076 197.868 138.209 198.409L138.213 198.423Z" fill="white"/>
</g>
</g>
<path d="M82.4954 186.661C68.8093 227.534 61.2471 270.211 60.0552 313.302L88.3934 313.236C91.3345 295.648 95.4591 278.279 100.739 261.247C105.439 246.225 109.198 237.596 112.793 221.44C115.499 209.287 117.266 196.944 118.08 184.52L82.4954 186.661Z" fill="#36474F"/>
<path d="M113.968 47.6697C110.119 45.4349 105.039 46.0983 100.589 47.6227C95.5603 49.34 90.5694 51.6877 87.0119 55.621C82.8622 60.2411 81.1374 66.4704 79.0226 72.3044C73.7592 86.6872 64.1815 100.717 49.6835 105.62C43.5741 107.694 36.9007 108.019 30.984 110.621C21.6695 114.709 15.3534 124.265 13.9623 134.366C12.5712 144.468 15.7105 154.842 21.3688 163.297C25.9508 170.152 32.2717 175.967 39.8426 179.213C48.8892 183.095 59.4303 183.095 68.6602 179.684C89.2394 172.062 100.321 148.881 107.953 129.812C113.856 115.072 118.212 99.5127 120.219 83.742C121.488 73.7724 123.076 60.26 117.526 51.1796C116.656 49.7267 115.432 48.5189 113.968 47.6697Z" fill="#C35A2B"/>
<mask id="mask1_53_1109" style="mask-type:luminance" maskUnits="userSpaceOnUse" x="13" y="46" width="109" height="137">
<path d="M113.968 47.6697C110.119 45.4349 105.039 46.0983 100.589 47.6227C95.5603 49.34 90.5694 51.6877 87.0119 55.621C82.8622 60.2411 81.1374 66.4704 79.0226 72.3044C73.7592 86.6872 64.1815 100.717 49.6835 105.62C43.5741 107.694 36.9007 108.019 30.984 110.621C21.6695 114.709 15.3534 124.265 13.9623 134.366C12.5712 144.468 15.7105 154.842 21.3688 163.297C25.9508 170.152 32.2717 175.967 39.8426 179.213C48.8892 183.095 59.4303 183.095 68.6602 179.684C89.2394 172.062 100.321 148.881 107.953 129.812C113.856 115.072 118.212 99.5127 120.219 83.742C121.488 73.7724 123.076 60.26 117.526 51.1796C116.656 49.7267 115.432 48.5189 113.968 47.6697Z" fill="white"/>
</mask>
<g mask="url(#mask1_53_1109)">
<g opacity="0.1">
<path d="M100.128 94.6479C91.1577 96.501 82.7713 100.508 75.6906 106.325C64.4555 115.642 57.2892 128.974 55.7129 143.494C55.7135 144.242 56.0111 144.96 56.54 145.489C57.0709 146.014 57.7859 146.312 58.5326 146.317C60.2056 146.241 61.1737 145.07 61.3523 143.494C61.3852 143.235 61.4134 142.976 61.4463 142.722C61.5074 142.214 61.4463 142.826 61.4228 142.892C61.4463 142.765 61.4604 142.633 61.4792 142.506C61.5638 141.927 61.6578 141.353 61.7612 140.774C61.9492 139.721 62.1748 138.676 62.4285 137.636C62.9456 135.522 63.5923 133.442 64.3647 131.407C64.548 130.937 64.7407 130.438 64.9381 129.958C64.9945 129.812 65.0979 129.459 64.877 130.094C64.9193 129.972 64.9804 129.85 65.0321 129.737C65.1496 129.469 65.267 129.2 65.3892 128.937C65.831 127.958 66.3009 126.999 66.7991 126.048C67.8123 124.124 68.9423 122.264 70.1828 120.478C70.4788 120.049 70.7843 119.631 71.0898 119.212C71.2449 119 71.4046 118.798 71.5597 118.586C71.79 118.28 71.2354 119 71.4751 118.699C71.5738 118.572 71.6725 118.44 71.7759 118.313C72.462 117.454 73.1748 116.613 73.9142 115.792C75.3276 114.232 76.8342 112.76 78.4257 111.383C78.8111 111.049 79.2012 110.72 79.5959 110.4L80.1928 109.929C80.2889 109.846 80.3893 109.767 80.4935 109.694C79.8732 110.061 80.3901 109.769 80.5311 109.666C81.3676 109.031 82.2277 108.419 83.1018 107.836C84.8757 106.645 86.7197 105.563 88.6237 104.594C89.6764 104.058 90.7479 103.568 91.8288 103.093L91.6831 103.154L92.1249 102.975C92.4209 102.853 92.717 102.736 93.0178 102.623C93.5488 102.416 94.0893 102.218 94.6297 102.03C96.9155 101.225 99.2534 100.577 101.627 100.091C103.079 99.8044 104.043 97.9977 103.596 96.6192C103.382 95.9075 102.902 95.3057 102.256 94.9387C101.611 94.5716 100.849 94.4675 100.128 94.6479Z" fill="black"/>
</g>
</g>
<path d="M71.9731 191.441C77.1896 177.769 77.9275 166.698 77.6126 159.015C76.8889 142.162 70.7701 135.453 74.2383 121.847C74.9668 118.996 77.8335 108.4 87.6226 100.905C98.8498 92.3189 115.016 90.9921 127.766 97.5319C130.304 98.8305 141.592 105.003 145.761 117.796C150.408 132.047 141.625 140.426 139.689 161.029C138.904 169.375 139.021 182.041 144.445 198.197C132.634 202.579 119.99 204.248 107.448 203.079C94.9066 201.91 82.7876 197.935 71.9872 191.446L71.9731 191.441Z" fill="#F6BA6F"/>
<mask id="mask2_53_1109" style="mask-type:luminance" maskUnits="userSpaceOnUse" x="71" y="93" width="77" height="111">
<path d="M71.9731 191.441C77.1896 177.769 77.9275 166.698 77.6126 159.015C76.8889 142.162 70.7701 135.453 74.2383 121.847C74.9668 118.996 77.8335 108.4 87.6226 100.905C98.8498 92.3189 115.016 90.9921 127.766 97.5319C130.304 98.8305 141.592 105.003 145.761 117.796C150.408 132.047 141.625 140.426 139.689 161.029C138.904 169.375 139.021 182.041 144.445 198.197C132.634 202.579 119.99 204.248 107.448 203.079C94.9066 201.91 82.7876 197.935 71.9872 191.446L71.9731 191.441Z" fill="white"/>
</mask>
<g mask="url(#mask2_53_1109)">
<g opacity="0.15">
<path d="M141.498 151.868C138.072 158.248 138.119 165.696 138.472 172.739C138.66 176.607 139.006 180.46 139.51 184.299C139.98 188.063 140.45 191.921 141.592 195.539C142.781 199.303 144.948 202.869 148.453 204.85C148.937 205.124 149.509 205.196 150.046 205.051C150.582 204.906 151.04 204.556 151.321 204.075C151.601 203.595 151.681 203.023 151.544 202.484C151.407 201.945 151.063 201.482 150.587 201.194C150.263 201.011 149.962 200.808 149.647 200.606C149.154 200.277 149.938 200.874 149.492 200.489C149.351 200.366 149.21 200.249 149.074 200.122C148.806 199.872 148.543 199.609 148.298 199.336L148.054 199.058L147.824 198.771C147.96 198.955 147.96 198.95 147.824 198.771C146.991 197.59 146.325 196.3 145.845 194.937C144.698 191.606 144.252 188.021 143.777 184.544C143.829 184.925 143.726 184.177 143.73 184.196C143.707 184.007 143.683 183.819 143.655 183.626C143.603 183.208 143.552 182.789 143.505 182.375C143.387 181.382 143.284 180.394 143.19 179.401C143.021 177.645 142.884 175.888 142.781 174.132C142.528 170.711 142.484 167.278 142.649 163.852C142.682 163.381 142.72 162.911 142.767 162.44C142.767 162.238 142.809 162.036 142.833 161.829C142.833 161.734 142.913 161.208 142.861 161.584C142.988 160.647 143.162 159.718 143.383 158.799C143.585 157.949 143.836 157.112 144.134 156.291C144.2 156.103 144.275 155.915 144.346 155.726C144.416 155.538 144.445 155.477 144.346 155.67C144.398 155.548 144.449 155.425 144.506 155.303C144.703 154.87 144.915 154.451 145.14 154.033C145.423 153.547 145.502 152.969 145.359 152.426C145.216 151.882 144.864 151.418 144.379 151.134C143.894 150.851 143.317 150.772 142.774 150.915C142.231 151.058 141.767 151.411 141.484 151.897L141.498 151.868Z" fill="white"/>
</g>
</g>
<path d="M124.829 96.8687C132.175 100.324 138.871 105.021 144.624 110.753C148.242 114.366 155.583 121.856 159.916 134.023C161.164 137.534 162.067 141.158 162.613 144.844C162.078 145.917 159.258 151.022 153.148 152.937C144.52 155.642 137.466 149.399 137.142 149.107L118.081 98.2095L124.829 96.8687Z" fill="#F6BA6F"/>
<mask id="mask3_53_1109" style="mask-type:luminance" maskUnits="userSpaceOnUse" x="118" y="96" width="45" height="58">
<path d="M124.829 96.8687C132.175 100.324 138.871 105.021 144.624 110.753C148.242 114.366 155.583 121.856 159.916 134.023C161.164 137.534 162.067 141.158 162.613 144.844C162.078 145.917 159.258 151.022 153.148 152.937C144.52 155.642 137.466 149.399 137.142 149.107L118.081 98.2095L124.829 96.8687Z" fill="white"/>
</mask>
<g mask="url(#mask3_53_1109)">
<path d="M162.595 144.576C161.609 143.836 160.52 143.246 159.361 142.826C159.13 142.709 158.875 142.65 158.616 142.654C158.357 142.658 158.103 142.725 157.876 142.849C157.669 143.006 157.516 143.224 157.439 143.472C157.362 143.72 157.366 143.986 157.449 144.233C157.768 145.244 158.858 145.545 159.728 145.94C160.4 146.246 160.607 147.065 160.766 147.728C160.954 148.528 162.115 148.316 162.148 147.54C162.181 146.764 162.228 145.865 162.266 145.028C162.303 144.19 161.119 144.087 160.884 144.84C160.603 145.705 160.077 146.469 159.371 147.041L160.55 147.724C160.827 147.008 160.212 146.369 159.657 145.992C159.103 145.616 158.304 145.715 158.224 146.463C158.23 146.786 158.299 147.106 158.426 147.404C158.532 147.758 158.495 148.14 158.323 148.467C158.143 148.821 157.888 149.131 157.575 149.374C157.262 149.618 156.9 149.79 156.513 149.878C155.53 150.039 154.529 150.066 153.539 149.958C152.498 149.914 151.455 149.942 150.418 150.043C148.8 150.251 147.199 150.578 145.629 151.022C144.757 151.283 143.846 151.395 142.936 151.351C142.843 151.342 142.75 151.327 142.659 151.304C142.509 151.266 142.584 151.281 142.542 151.257C142.636 151.356 142.499 151.233 142.542 151.257C142.524 151.225 142.513 151.19 142.509 151.153C142.505 151.117 142.508 151.08 142.518 151.045L141.456 151.652L144.544 153.12C144.967 153.322 145.676 153.092 145.606 152.513C145.499 151.676 145.394 150.841 145.291 150.01C145.216 149.403 145.234 148.674 144.769 148.213C144.55 148.013 144.274 147.886 143.979 147.849C143.685 147.812 143.387 147.867 143.124 148.006C142.552 148.362 142.116 148.9 141.888 149.535C141.498 150.401 141.71 152 143.026 151.699C144.257 151.412 144.591 150.001 144.13 148.975C143.763 148.147 142.546 148.862 142.913 149.686C142.871 149.587 142.913 149.686 142.913 149.733C142.941 149.834 142.941 149.942 142.913 150.043C142.913 150.095 142.762 150.231 142.762 150.26C142.654 150.325 142.701 150.377 142.894 150.42C143.04 150.565 143.101 150.598 143.068 150.509C143.016 150.547 143.176 150.038 143.171 150.067C143.281 149.811 143.428 149.573 143.608 149.361C143.81 149.154 143.754 149.229 143.792 149.46C143.843 149.794 143.876 150.128 143.914 150.462C143.998 151.149 144.083 151.831 144.172 152.513L145.23 151.902L142.203 150.434C142.095 150.373 141.974 150.342 141.851 150.343C141.727 150.344 141.606 150.377 141.499 150.438C141.392 150.5 141.303 150.588 141.24 150.695C141.178 150.801 141.143 150.922 141.141 151.045C141.061 153.981 145.728 152.457 147.199 152.047C149.231 151.512 151.331 151.285 153.43 151.375C155.31 151.445 157.298 151.615 158.755 150.217C159.422 149.619 159.833 148.787 159.902 147.893C159.929 147.457 159.843 147.021 159.653 146.627C159.502 146.378 159.864 146.246 159.225 146.806C158.468 147.465 158.816 146.971 158.962 147.239C159.009 147.292 159.061 147.341 159.117 147.385L159.253 147.521C159.342 147.625 159.324 147.568 159.192 147.352C158.91 148.076 159.888 148.439 160.367 148.039C161.25 147.297 161.902 146.317 162.247 145.216L160.837 145.028C160.799 145.865 160.762 146.703 160.719 147.54L162.129 147.357C161.824 146.072 161.283 145.056 160.033 144.534C159.679 144.414 159.343 144.248 159.032 144.04C158.949 143.996 158.879 143.931 158.83 143.852C158.581 144.002 158.567 144.087 158.797 144.106C158.905 144.214 159.239 144.266 159.375 144.322C160.27 144.701 161.113 145.191 161.885 145.781C162.613 146.326 163.318 145.098 162.599 144.562L162.595 144.576Z" fill="black"/>
<path d="M144.69 153.464L144.915 153.958C144.958 154.037 145.019 154.105 145.094 154.155C145.163 154.216 145.245 154.259 145.333 154.282C145.426 154.308 145.523 154.308 145.615 154.282C145.709 154.282 145.801 154.255 145.878 154.202L146.019 154.089C146.107 154.004 146.17 153.897 146.203 153.779L146.226 153.591C146.226 153.465 146.193 153.342 146.132 153.233L145.907 152.763C145.862 152.683 145.799 152.615 145.723 152.565C145.656 152.503 145.573 152.459 145.484 152.438C145.391 152.414 145.294 152.414 145.202 152.438C145.108 152.443 145.018 152.472 144.939 152.523L144.798 152.636C144.71 152.72 144.648 152.828 144.619 152.946L144.591 153.134C144.59 153.259 144.624 153.381 144.69 153.487V153.464Z" fill="black"/>
<path d="M141.663 151.05L141.517 151.379C141.465 151.457 141.437 151.549 141.437 151.643C141.411 151.735 141.411 151.833 141.437 151.925C141.461 152.014 141.504 152.096 141.564 152.165C141.616 152.24 141.683 152.303 141.762 152.348L141.931 152.419C142.054 152.452 142.184 152.452 142.307 152.419L142.476 152.348C142.578 152.285 142.663 152.198 142.725 152.094L142.871 151.76C142.959 151.595 142.985 151.403 142.946 151.219C142.925 151.13 142.881 151.047 142.819 150.979C142.769 150.903 142.701 150.84 142.622 150.796L142.452 150.725C142.329 150.692 142.2 150.692 142.077 150.725L141.907 150.796C141.803 150.858 141.716 150.945 141.654 151.05H141.663Z" fill="black"/>
<path d="M145.352 148.552L145.409 148.443C145.46 148.365 145.489 148.274 145.493 148.18C145.517 148.087 145.517 147.99 145.493 147.898C145.47 147.809 145.427 147.727 145.366 147.658C145.319 147.58 145.25 147.518 145.169 147.479L145 147.404C144.878 147.371 144.75 147.371 144.628 147.404L144.459 147.479C144.354 147.538 144.267 147.624 144.205 147.728L144.149 147.841C144.098 147.918 144.069 148.008 144.064 148.1C144.041 148.193 144.041 148.29 144.064 148.382C144.122 148.556 144.236 148.705 144.389 148.806L144.558 148.876C144.679 148.909 144.808 148.909 144.929 148.876L145.098 148.806C145.205 148.746 145.293 148.658 145.352 148.552Z" fill="black"/>
<path d="M144.689 148.853C144.876 148.853 145.056 148.778 145.188 148.646C145.32 148.514 145.394 148.334 145.394 148.147C145.394 147.96 145.32 147.78 145.188 147.648C145.056 147.516 144.876 147.441 144.689 147.441C144.502 147.441 144.323 147.516 144.191 147.648C144.059 147.78 143.984 147.96 143.984 148.147C143.984 148.334 144.059 148.514 144.191 148.646C144.323 148.778 144.502 148.853 144.689 148.853Z" fill="black"/>
<path d="M160.936 136.319C161.275 136.761 161.454 137.305 161.443 137.862C161.431 138.414 161.566 138.96 161.833 139.443" fill="#F6BA6F"/>
</g>
<path d="M109.983 100.919C115.348 100.919 119.697 97.9262 119.697 94.2338C119.697 90.5415 115.348 87.5482 109.983 87.5482C104.618 87.5482 100.269 90.5415 100.269 94.2338C100.269 97.9262 104.618 100.919 109.983 100.919Z" fill="#F8A3A0"/>
<path d="M100.269 94.168H119.702V74.5769H100.269V94.168Z" fill="#F8A3A0"/>
<mask id="mask4_53_1109" style="mask-type:luminance" maskUnits="userSpaceOnUse" x="100" y="74" width="20" height="21">
<path d="M100.269 94.168H119.702V74.5769H100.269V94.168Z" fill="white"/>
</mask>
<g mask="url(#mask4_53_1109)">
<path opacity="0.1" d="M120.782 84.0337C120.679 84.6359 119.927 88.668 116.731 90.1124C113.442 91.5944 109.903 89.3267 107.962 88.0846C106.08 86.86 104.472 85.258 103.239 83.3797C101.55 80.9512 100.399 78.1887 99.8647 75.278L120.782 84.0337Z" fill="black" stroke="black" stroke-width="4" stroke-miterlimit="10"/>
</g>
<path d="M118.118 87.0875C126.392 84.115 129.863 72.6763 125.871 61.5384C121.879 50.4006 111.935 43.7812 103.661 46.7538C95.3864 49.7263 91.915 61.165 95.9072 72.3029C99.8994 83.4407 109.843 90.0601 118.118 87.0875Z" fill="#F8A3A0"/>
<mask id="mask5_53_1109" style="mask-type:luminance" maskUnits="userSpaceOnUse" x="94" y="46" width="34" height="42">
<path d="M118.118 87.0829C126.392 84.1104 129.863 72.6717 125.871 61.5338C121.879 50.3959 111.935 43.7766 103.661 46.7491C95.3864 49.7216 91.915 61.1604 95.9072 72.2982C99.8994 83.4361 109.843 90.0554 118.118 87.0829Z" fill="white"/>
</mask>
<g mask="url(#mask5_53_1109)">
<path d="M125.708 54.2848C125.041 54.6235 118.4 57.8558 111.44 54.2848C104.809 50.8879 103.371 44.127 103.207 43.2942L122.418 43.8447L125.708 54.2848Z" fill="#C35A2B"/>
<path d="M93.8781 63.624C97.7209 63.0435 101.225 61.0938 103.747 58.1334C105.461 56.0593 106.613 53.5788 107.093 50.9302L103.216 41.097L86.1943 55.3951L93.8781 63.624Z" fill="#C35A2B"/>
</g>
<path d="M96.4061 76.3626C98.2739 75.6882 99.1207 73.2889 98.2975 71.0034C97.4743 68.7179 95.2927 67.4118 93.4249 68.0862C91.5571 68.7605 90.7103 71.1599 91.5336 73.4453C92.3568 75.7308 94.5383 77.0369 96.4061 76.3626Z" fill="#F8A3A0"/>
<path opacity="0.7" d="M112.686 65.3507C113.569 67.4161 116.492 69.1758 116.492 69.1758C116.492 69.1758 114.904 70.7472 114.589 72.4692" stroke="black" stroke-miterlimit="10"/>
<path opacity="0.7" d="M102.206 66.4704C103.865 69.171 106.435 70.0273 107.45 69.3545C108.465 68.6817 108.672 66.1693 107.131 63.6522" stroke="black" stroke-miterlimit="10"/>
<path opacity="0.7" d="M113.621 60.1235C115.275 62.8241 117.85 63.6804 118.861 63.0076C119.871 62.3348 120.082 59.8224 118.541 57.3053" stroke="black" stroke-miterlimit="10"/>
<path opacity="0.7" d="M110.467 77.174C112.432 79.6017 115.825 80.1521 118.207 78.6278C119.205 77.9517 119.971 76.9858 120.403 75.8601C120.835 74.7345 120.912 73.5033 120.623 72.3326" stroke="black" stroke-miterlimit="10"/>
<path opacity="0.35" d="M92.4118 69.8627C91.934 70.8982 91.8767 72.0791 92.252 73.1561C92.5105 73.7989 92.9126 74.374 93.4274 74.8372C93.9422 75.3004 94.5561 75.6395 95.2221 75.8284" stroke="black" stroke-width="0.75" stroke-miterlimit="10"/>
<path d="M93.1168 97.5461C85.7713 101 79.0752 105.695 73.3223 111.426C69.7037 115.039 62.363 122.534 58.0301 134.696C56.7826 138.207 55.8791 141.831 55.3325 145.517C55.8918 146.609 58.6739 151.709 64.7786 153.623C73.4069 156.329 80.4609 150.09 80.7852 149.794L99.8653 98.9106L93.1168 97.5461Z" fill="#F6BA6F"/>
<mask id="mask6_53_1109" style="mask-type:luminance" maskUnits="userSpaceOnUse" x="55" y="97" width="45" height="58">
<path d="M93.1168 97.5461C85.7713 101 79.0752 105.695 73.3223 111.426C69.7037 115.039 62.363 122.534 58.0301 134.696C56.7826 138.207 55.8791 141.831 55.3325 145.517C55.8918 146.609 58.6739 151.709 64.7786 153.623C73.4069 156.329 80.4609 150.09 80.7852 149.794L99.8653 98.9106L93.1168 97.5461Z" fill="white"/>
</mask>
<g mask="url(#mask6_53_1109)">
<path d="M56.0659 146.472C56.6134 146.057 57.1951 145.688 57.8047 145.371C58.0867 145.225 58.3781 145.089 58.6694 144.971C58.7916 144.924 59.0595 144.887 59.1394 144.792L59.2945 144.745C59.2287 144.487 59.1582 144.425 59.083 144.557C58.9326 144.557 58.5613 145.098 58.4391 145.225L57.6214 146.053L55.9907 147.719L57.1938 148.218L57.0763 145.7L55.6899 145.889C56.0324 146.991 56.685 147.971 57.5697 148.712C58.0397 149.111 59.0266 148.749 58.7446 148.025C58.2418 147.898 58.0068 148.001 58.0444 148.335C58.0444 148.415 58.0444 148.495 58.0444 148.575C58.0445 148.776 58.0634 148.976 58.1008 149.173C58.1675 149.505 58.2898 149.823 58.4626 150.114C58.8429 150.727 59.3843 151.223 60.0276 151.549C61.6677 152.386 63.5428 152.047 65.3052 152.019C67.1819 152.013 69.0512 152.255 70.8647 152.739C72.6082 153.209 74.3142 153.727 76.0342 152.922C76.7579 152.584 76.2457 151.389 75.4891 151.633L72.8291 152.494L73.7173 153.172C73.8442 152.188 73.9476 151.2 74.0886 150.217C74.0886 150.095 74.1685 149.902 74.0886 149.907C74.2484 149.907 74.3612 150.123 74.4364 150.236C74.5424 150.383 74.6337 150.541 74.7089 150.706C74.7752 150.817 74.8154 150.941 74.8264 151.069C74.9533 150.989 75.0285 151.017 75.0567 151.153C74.9862 150.255 73.5763 150.245 73.6468 151.153C73.722 152.141 74.8593 152.866 75.724 152.188C76.7109 151.412 76.0624 149.996 75.4421 149.21C74.8217 148.425 73.4495 148.123 72.8949 149.177C72.683 149.759 72.5732 150.374 72.5706 150.993L72.2981 153.153C72.2996 153.261 72.3257 153.368 72.3743 153.464C72.423 153.561 72.493 153.646 72.579 153.711C72.6649 153.777 72.7647 153.822 72.8707 153.844C72.9768 153.865 73.0862 153.862 73.191 153.835L75.8556 152.974L75.3152 151.685C74.4129 152.104 73.3978 151.934 72.4955 151.685C71.5931 151.436 70.6579 151.177 69.718 150.993C67.7165 150.638 65.6805 150.516 63.6509 150.631C62.6993 150.743 61.7347 150.635 60.8312 150.316C60.4838 150.182 60.1766 149.961 59.9388 149.675C59.701 149.388 59.5407 149.045 59.473 148.679C59.4166 147.978 59.5388 147.103 58.6083 146.933C58.4245 146.901 58.2353 146.917 58.0599 146.981C57.8844 147.045 57.7287 147.154 57.6084 147.297C57.488 147.439 57.4072 147.611 57.3741 147.795C57.3409 147.979 57.3565 148.169 57.4193 148.345L58.5989 147.658C57.8911 147.087 57.3652 146.322 57.0857 145.456C56.8554 144.731 55.6758 144.816 55.704 145.644L55.8215 148.161C55.8258 148.299 55.8697 148.432 55.9479 148.545C56.0261 148.658 56.1352 148.747 56.2622 148.799C56.3892 148.852 56.5287 148.867 56.6639 148.842C56.7992 148.817 56.9244 148.754 57.0246 148.66L59.473 146.166C60.0605 145.564 60.9628 144.783 60.4411 143.842C59.9195 142.901 58.7822 143.372 58.035 143.673C57.0771 144.085 56.1754 144.618 55.3515 145.258C54.6372 145.799 55.3516 147.027 56.0659 146.481V146.472Z" fill="black"/>
<path d="M72.0534 153.431L71.8278 153.901C71.7755 153.979 71.7477 154.071 71.7479 154.165C71.722 154.257 71.722 154.355 71.7479 154.447C71.7711 154.536 71.8145 154.618 71.8748 154.687C71.9251 154.762 71.9929 154.823 72.0722 154.866L72.2414 154.936C72.3645 154.969 72.4942 154.969 72.6173 154.936L72.7865 154.866C72.8905 154.805 72.9765 154.717 73.0356 154.612L73.2612 154.141C73.3123 154.062 73.3415 153.971 73.3458 153.878C73.3746 153.786 73.3746 153.687 73.3458 153.595C73.3263 153.506 73.2842 153.424 73.2236 153.355C73.1733 153.281 73.1055 153.219 73.0262 153.177L72.857 153.106C72.7339 153.073 72.6042 153.073 72.4811 153.106L72.3119 153.177C72.2074 153.239 72.1202 153.326 72.0581 153.431H72.0534Z" fill="black"/>
<path d="M75.066 152.438L75.2117 152.767C75.2509 152.849 75.3129 152.918 75.3902 152.965C75.4569 153.029 75.5398 153.072 75.6299 153.092C75.8142 153.135 76.0079 153.11 76.1751 153.021L76.316 152.913C76.4032 152.827 76.4663 152.72 76.4993 152.603L76.5228 152.414C76.5229 152.289 76.4905 152.166 76.4288 152.057L76.2831 151.723C76.2374 151.644 76.1748 151.577 76.0999 151.525C76.0318 151.464 75.9492 151.422 75.8602 151.403C75.7684 151.374 75.67 151.374 75.5782 151.403C75.4847 151.408 75.394 151.437 75.315 151.487L75.1741 151.596C75.0886 151.683 75.0257 151.789 74.9908 151.906L74.9673 152.094C74.9673 152.22 75.0014 152.344 75.066 152.452V152.438Z" fill="black"/>
<path d="M73.811 148.505L73.7546 148.396C73.7141 148.314 73.6504 148.245 73.5714 148.199C73.5037 148.137 73.4211 148.093 73.3317 148.072C73.2408 148.048 73.1454 148.048 73.0544 148.072C72.9607 148.076 72.8699 148.105 72.7912 148.156L72.6456 148.269C72.5595 148.355 72.4978 148.462 72.467 148.58L72.4435 148.768C72.4412 148.892 72.4738 149.014 72.5375 149.121L72.5939 149.234C72.6368 149.314 72.7 149.383 72.7771 149.431C72.8448 149.494 72.9274 149.537 73.0168 149.558C73.1074 149.584 73.2035 149.584 73.2941 149.558C73.3878 149.554 73.4787 149.525 73.5573 149.474L73.703 149.366C73.787 149.278 73.8484 149.172 73.8815 149.055L73.905 148.867C73.9067 148.741 73.8742 148.618 73.811 148.509V148.505Z" fill="black"/>
<path d="M73.2567 149.526C73.4436 149.526 73.623 149.451 73.7552 149.319C73.8874 149.187 73.9616 149.007 73.9616 148.82C73.9616 148.633 73.8874 148.453 73.7552 148.321C73.623 148.188 73.4436 148.114 73.2567 148.114C73.0697 148.114 72.8904 148.188 72.7582 148.321C72.626 148.453 72.5518 148.633 72.5518 148.82C72.5518 149.007 72.626 149.187 72.7582 149.319C72.8904 149.451 73.0697 149.526 73.2567 149.526Z" fill="black"/>
<path d="M57.0104 136.987C56.6712 137.427 56.4922 137.97 56.5029 138.526C56.5151 139.079 56.3805 139.626 56.1128 140.111" fill="#F6BA6F"/>
</g>
<path d="M73.5477 140.774C71.3624 138.568 66.3339 139.335 63.1711 141.4C61.692 142.356 60.4742 143.666 59.6277 145.211C51.4962 162.562 37.5666 176.524 20.2456 184.685L28.3429 194.142C38.1931 190.621 47.3339 185.363 55.3323 178.616C56.8362 177.336 68.0963 166.891 73.2986 150.881C75.0986 145.329 75.1362 142.355 73.5477 140.774Z" fill="#F8A3A0"/>
<mask id="mask7_53_1109" style="mask-type:luminance" maskUnits="userSpaceOnUse" x="20" y="139" width="55" height="56">
<path d="M73.5477 140.774C71.3624 138.568 66.3339 139.335 63.1711 141.4C61.692 142.356 60.4742 143.666 59.6277 145.211C51.4962 162.562 37.5666 176.524 20.2456 184.685L28.3429 194.142C38.1931 190.621 47.3339 185.363 55.3323 178.616C56.8362 177.336 68.0963 166.891 73.2986 150.881C75.0986 145.329 75.1362 142.355 73.5477 140.774Z" fill="white"/>
</mask>
<g mask="url(#mask7_53_1109)">
<g opacity="0.1">
<path d="M56.7046 146.524C57.0242 146.303 57.3484 146.096 57.6868 145.903C57.8842 145.794 58.0863 145.691 58.2883 145.597L58.5515 145.475C58.3588 145.564 58.4246 145.522 58.5844 145.475C59.3522 145.21 60.1373 145 60.9342 144.844C61.1739 144.792 60.8919 144.844 60.8543 144.844C60.9812 144.844 61.1081 144.811 61.2397 144.802C61.3712 144.792 61.6297 144.769 61.8224 144.759C62.2435 144.738 62.6654 144.738 63.0866 144.759C63.284 144.759 63.4766 144.783 63.6693 144.802L63.9607 144.83C63.9231 144.83 63.6317 144.773 63.8808 144.83C64.3507 144.915 64.7925 144.995 65.239 145.112C65.6854 145.23 66.005 145.324 66.3762 145.451L66.9355 145.653L67.2128 145.766C67.006 145.682 67.1141 145.719 67.2551 145.766C68.0389 146.125 68.7973 146.537 69.5249 146.999C69.8586 147.215 70.1876 147.441 70.5071 147.676C70.6152 147.756 70.7233 147.832 70.8267 147.916C70.7938 147.888 70.6105 147.733 70.7891 147.888C70.9677 148.043 71.1557 148.189 71.3343 148.359C71.9739 148.911 72.5827 149.499 73.1577 150.118C73.5007 150.49 73.8391 150.871 74.1634 151.257L74.6098 151.812C74.7649 151.995 74.6098 151.812 74.6098 151.784L74.8542 152.108C75.462 152.927 76.0322 153.768 76.5648 154.63C76.7049 154.871 76.8909 155.081 77.1122 155.249C77.3335 155.418 77.5858 155.541 77.8546 155.612C78.1234 155.682 78.4035 155.699 78.679 155.662C78.9544 155.624 79.2197 155.533 79.4598 155.392C79.6998 155.252 79.9099 155.066 80.0781 154.844C80.2463 154.623 80.3693 154.37 80.44 154.101C80.5107 153.832 80.5277 153.552 80.4902 153.276C80.4526 153 80.3612 152.735 80.2211 152.494C78.0922 149.093 75.5215 145.978 72.1755 143.691C68.9798 141.499 64.9617 140.172 61.0658 140.591C58.7524 140.793 56.5277 141.578 54.5992 142.873C53.6969 143.508 53.1894 144.755 53.8426 145.771C54.4206 146.67 55.7647 147.211 56.7328 146.528L56.7046 146.524Z" fill="black"/>
</g>
</g>
<path d="M55.3325 145.503C57.1771 144.455 59.2172 143.797 61.3261 143.571C63.4351 143.345 65.5679 143.555 67.5923 144.189C69.6167 144.822 71.4895 145.866 73.0944 147.254C74.6994 148.642 76.0022 150.346 76.9222 152.259C81.2034 147.996 83.8681 142.623 82.3219 138.751C79.8406 132.536 66.8135 130.937 60.0556 136.724C56.7048 139.579 55.685 143.55 55.3325 145.503Z" fill="#F6BA6F"/>
<path d="M29.0195 193.464C26.6228 197.252 22.4402 198.39 18.2106 199.543C14.6837 200.457 11.0149 200.686 7.40169 200.221C4.95323 199.905 2.65046 199.28 2.70216 198.87C2.75385 198.461 5.11771 198.593 8.77395 197.52C10.9216 196.889 12.1717 196.231 12.1482 196.17C12.1247 196.108 8.50138 197.953 4.05092 197.52C2.12881 197.332 -0.0141775 196.706 0.00462059 196.17C0.00462059 195.699 1.58366 195.572 4.72765 194.815C7.01629 194.279 9.27002 193.603 11.4762 192.792C9.75052 193.499 7.93186 193.954 6.07642 194.142C3.3084 194.429 0.0939117 194.142 0.00462059 193.464C-0.0564733 192.994 1.32989 192.472 4.05092 191.441C6.62626 190.463 9.08882 189.719 10.1227 189.413C13.732 188.341 15.546 187.927 15.5225 187.386C15.499 186.845 13.4359 186.981 12.1482 185.358C11.4527 184.483 11.0156 183.128 11.4762 182.657C12.0354 182.083 13.4923 183.306 16.1992 184.008C18.1495 184.516 19.8461 184.44 23.2485 184.29C28.0655 184.078 28.8175 183.419 29.7339 184.153C31.562 185.635 31.0168 190.303 29.0195 193.464Z" fill="#F8A3A0"/>
<path d="M11.8147 182.751C14.55 184.132 17.6086 184.744 20.6639 184.52C20.8895 184.52 20.8895 184.153 20.6639 184.167C17.6696 184.383 14.6729 183.782 11.9932 182.427C11.7912 182.328 11.6126 182.634 11.8147 182.732V182.751Z" fill="black"/>
<path d="M0.441642 193.196C2.73501 191.832 5.31036 191.135 7.8716 190.477C10.5659 189.81 13.2142 188.969 15.7997 187.96C16.0112 187.875 15.9172 187.536 15.7104 187.621C13.0564 188.65 10.3392 189.508 7.57554 190.19C5.05189 190.839 2.52354 191.549 0.267762 192.89C0.227254 192.913 0.197563 192.952 0.185224 192.997C0.172886 193.042 0.17891 193.09 0.201969 193.13C0.225027 193.171 0.263233 193.201 0.308181 193.213C0.353129 193.225 0.401134 193.219 0.441642 193.196Z" fill="black"/>
<path d="M0.366474 195.972C5.23989 193.85 11.0015 194.617 15.5648 191.658C15.7528 191.535 15.5648 191.23 15.3862 191.352C10.8323 194.306 5.04721 193.544 0.19259 195.671C-0.0141894 195.76 0.164394 196.066 0.366474 195.972Z" fill="black"/>
<path d="M3.0124 198.706C8.0362 198.235 13.1728 197.111 17.5481 194.504C17.5879 194.48 17.6168 194.442 17.6282 194.397C17.6397 194.352 17.6328 194.304 17.6091 194.264C17.5855 194.224 17.5469 194.195 17.502 194.184C17.457 194.172 17.4094 194.179 17.3695 194.203C13.0553 196.772 7.9704 197.892 3.0124 198.353C2.79152 198.353 2.78682 198.729 3.0124 198.706Z" fill="black"/>
<path d="M143.721 139.424C145.902 137.227 151.353 138.337 154.774 140.727C156.226 141.713 157.437 143.014 158.318 144.534C166.449 161.884 180.379 175.846 197.7 184.007L189.602 193.464C179.751 189.947 170.609 184.688 162.613 177.938C161.965 177.388 150.836 166.948 144.647 150.203C142.288 143.809 142.273 140.887 143.721 139.424Z" fill="#F8A3A0"/>
<mask id="mask8_53_1109" style="mask-type:luminance" maskUnits="userSpaceOnUse" x="142" y="138" width="56" height="56">
<path d="M143.721 139.424C145.902 137.227 151.353 138.337 154.774 140.727C156.226 141.713 157.437 143.014 158.318 144.534C166.449 161.884 180.379 175.846 197.7 184.007L189.602 193.464C179.751 189.947 170.609 184.688 162.613 177.938C161.965 177.388 150.836 166.948 144.647 150.203C142.288 143.809 142.273 140.887 143.721 139.424Z" fill="white"/>
</mask>
<g mask="url(#mask8_53_1109)">
<g opacity="0.1">
<path d="M142.363 152.668C142.788 151.678 143.311 150.732 143.923 149.845C143.989 149.742 144.449 149.13 144.158 149.497C144.323 149.29 144.487 149.088 144.661 148.89C145.022 148.47 145.405 148.068 145.808 147.686C146.188 147.328 146.583 146.98 146.997 146.66C146.654 146.928 147.147 146.552 147.269 146.467C147.532 146.284 147.8 146.11 148.073 145.94C148.496 145.677 148.928 145.437 149.37 145.216C149.605 145.098 149.84 144.99 150.084 144.882C150.329 144.774 149.614 145.051 150.141 144.858C150.305 144.797 150.465 144.731 150.611 144.675C151.08 144.505 151.55 144.36 152.058 144.237C152.378 144.157 152.697 144.087 152.998 144.025L153.43 143.95C153.9 143.861 153.289 143.95 153.736 143.908C155.102 143.761 156.478 143.741 157.848 143.847C158.177 143.87 158.51 143.898 158.839 143.936L159.276 143.988L159.483 144.016C160.174 144.12 160.865 144.247 161.551 144.388C162.862 144.656 164.159 144.99 165.452 145.329C168.478 146.157 171.481 147.098 174.569 147.681C175.654 147.883 176.918 147.38 177.172 146.204C177.407 145.159 176.857 143.818 175.692 143.597C169.869 142.496 164.338 140.2 158.398 139.641C155.554 139.329 152.676 139.598 149.938 140.431C147.567 141.213 145.375 142.457 143.486 144.091C141.433 145.843 139.806 148.041 138.73 150.518C138.298 151.534 138.396 152.838 139.491 153.416C140.398 153.887 141.916 153.741 142.382 152.654L142.363 152.668Z" fill="black"/>
</g>
</g>
<path d="M162.613 144.83C160.769 143.782 158.729 143.124 156.62 142.898C154.511 142.672 152.378 142.883 150.354 143.516C148.329 144.15 146.457 145.193 144.852 146.581C143.247 147.969 141.944 149.673 141.024 151.586C136.743 147.324 134.078 141.946 135.624 138.074C138.105 131.863 151.133 130.264 157.89 136.046C161.241 138.907 162.261 142.873 162.613 144.83Z" fill="#F6BA6F"/>
<path d="M188.926 192.777C191.323 196.541 195.505 197.703 199.735 198.856C203.262 199.77 206.931 199.998 210.544 199.529C212.992 199.218 215.295 198.588 215.243 198.179C215.192 197.769 212.828 197.906 209.172 196.828C207.024 196.198 205.774 195.544 205.797 195.478C205.821 195.412 209.444 197.261 213.895 196.828C215.817 196.64 217.96 196.014 217.941 195.478C217.941 195.007 216.362 194.88 213.241 194.128C210.952 193.592 208.698 192.915 206.493 192.1C208.218 192.813 210.037 193.272 211.893 193.464C214.661 193.756 217.875 193.464 217.964 192.791C218.026 192.321 216.639 191.799 213.918 190.764C211.343 189.785 208.88 189.042 207.846 188.736C204.237 187.668 202.423 187.254 202.447 186.708C202.47 186.162 204.533 186.308 205.821 184.685C206.516 183.805 206.954 182.45 206.493 181.98C205.934 181.406 204.477 182.629 201.77 183.335C199.82 183.838 198.123 183.763 194.721 183.617C189.904 183.401 189.152 182.742 188.235 183.481C186.384 184.958 186.929 189.63 188.926 192.777Z" fill="#F8A3A0"/>
<path d="M205.952 181.773C203.269 183.117 200.274 183.712 197.281 183.495C197.056 183.495 197.056 183.829 197.281 183.848C200.337 184.066 203.394 183.455 206.131 182.078C206.333 181.975 206.131 181.669 205.952 181.773Z" fill="black"/>
<path d="M217.678 192.213C215.422 190.872 212.894 190.162 210.37 189.512C207.606 188.833 204.888 187.975 202.235 186.943C202.028 186.859 201.934 187.202 202.146 187.287C204.732 188.295 207.38 189.134 210.074 189.799C212.635 190.463 215.211 191.159 217.504 192.519C217.697 192.636 217.875 192.33 217.678 192.213Z" fill="black"/>
<path d="M217.753 194.993C212.889 192.871 207.113 193.634 202.559 190.679C202.371 190.552 202.193 190.858 202.381 190.98C206.944 193.944 212.72 193.173 217.579 195.299C217.781 195.389 217.964 195.083 217.753 194.993Z" fill="black"/>
<path d="M214.933 197.68C209.975 197.209 204.89 196.094 200.576 193.525C200.536 193.509 200.492 193.507 200.451 193.521C200.41 193.535 200.375 193.563 200.354 193.6C200.332 193.638 200.324 193.682 200.332 193.724C200.34 193.767 200.363 193.805 200.397 193.831C204.773 196.433 209.909 197.562 214.933 198.033C215.159 198.033 215.154 197.699 214.933 197.68Z" fill="black"/>
<path d="M85.005 327.2H55.398C55.069 327.2 54.5615 327.337 54.6742 326.781C55.4055 322.89 57.0933 319.242 59.5853 316.167C62.0337 313.246 65.2858 311.185 68.7775 310.564C71.6478 310.013 74.6202 310.514 77.1521 311.975C77.7865 312.348 78.3844 312.779 78.9379 313.264H86.3679C85.923 317.9 85.4687 322.546 85.005 327.2Z" fill="black"/>
<mask id="mask9_53_1109" style="mask-type:luminance" maskUnits="userSpaceOnUse" x="54" y="310" width="33" height="18">
<path d="M85.005 327.2H55.398C55.069 327.2 54.5615 327.337 54.6742 326.781C55.4055 322.89 57.0933 319.242 59.5853 316.167C62.0337 313.246 65.2858 311.185 68.7775 310.564C71.6478 310.013 74.6202 310.514 77.1521 311.975C77.7865 312.348 78.3844 312.779 78.9379 313.264H86.3679C85.923 317.9 85.4687 322.546 85.005 327.2Z" fill="white"/>
</mask>
<g mask="url(#mask9_53_1109)">
<path d="M53.988 322.547C57.4939 319.122 61.3616 315.344 66.8084 315.57C72.4807 315.805 76.3719 320.237 77.6173 321.771H89.0889L88.4121 333.401C56.9252 337.979 48.0995 336.041 47.2536 332.63C46.5393 329.821 51.0978 325.37 53.988 322.547Z" fill="#DBDBDB"/>
<path d="M62.0762 314.408H72.8757" stroke="white" stroke-miterlimit="10"/>
<path d="M63.4292 312.083H74.224" stroke="white" stroke-miterlimit="10"/>
</g>
<path d="M114.711 313.114H128.095C128.182 312.687 128.355 312.282 128.603 311.923C129.425 310.79 130.863 310.799 131.892 310.752C134.092 310.631 136.298 310.748 138.472 311.1C140.818 311.477 143.065 312.321 145.079 313.584C145.54 313.875 145.985 314.189 146.414 314.525C148.18 315.941 149.613 317.729 150.611 319.762C151.131 320.809 151.525 321.915 151.786 323.055C151.912 323.615 151.941 324.222 152.091 324.772C152.223 325.466 152.289 326.17 152.288 326.876C152.288 326.979 152.288 327.087 152.312 327.191C152.084 327.212 151.854 327.212 151.626 327.191H114.711" fill="black"/>
<mask id="mask10_53_1109" style="mask-type:luminance" maskUnits="userSpaceOnUse" x="114" y="310" width="39" height="18">
<path d="M114.711 313.114H128.095C128.182 312.687 128.355 312.282 128.603 311.923C129.425 310.79 130.863 310.799 131.892 310.752C134.092 310.631 136.298 310.748 138.472 311.1C140.818 311.477 143.065 312.321 145.079 313.584C145.54 313.875 145.985 314.189 146.414 314.525C148.18 315.941 149.613 317.729 150.611 319.762C151.131 320.809 151.525 321.915 151.786 323.055C151.912 323.615 151.941 324.222 152.091 324.772C152.223 325.466 152.289 326.17 152.288 326.876C152.288 326.979 152.288 327.087 152.312 327.191C152.084 327.212 151.854 327.212 151.626 327.191H114.711" fill="white"/>
</mask>
<g mask="url(#mask10_53_1109)">
<path d="M113.358 321.771H135.624C137.131 319.909 138.96 318.335 141.024 317.122C144.085 315.339 147.615 314.527 151.147 314.793L156.542 328.748L110.66 332.625C111.562 329.005 112.462 325.386 113.358 321.766" fill="#DBDBDB"/>
<path d="M135.84 319.15C137.183 317.55 138.816 316.219 140.653 315.226C142.6 314.179 144.76 313.59 146.969 313.504" stroke="white" stroke-miterlimit="10"/>
<path d="M134.492 317.598C135.836 316.004 137.469 314.679 139.304 313.692C141.253 312.64 143.417 312.044 145.63 311.952" stroke="white" stroke-miterlimit="10"/>
<path d="M133.138 316.045C134.484 314.448 136.118 313.118 137.955 312.126C139.901 311.078 142.059 310.487 144.267 310.399" stroke="white" stroke-miterlimit="10"/>
<path d="M131.789 314.497C133.133 312.897 134.768 311.566 136.606 310.573C138.552 309.527 140.71 308.938 142.918 308.851" stroke="white" stroke-miterlimit="10"/>
</g>
<path d="M135.704 44.2588L127.358 53.4333L118.198 45.0821L117.85 44.7669C116.635 43.6595 115.909 42.1141 115.832 40.4708C115.755 38.8274 116.333 37.2207 117.439 36.0041C118.545 34.7875 120.089 34.0606 121.73 33.9834C123.372 33.9062 124.977 34.485 126.192 35.5924L126.54 35.9076L135.704 44.2588Z" fill="#B01036"/>
<path d="M136.014 43.9105L135.704 44.2587L127.357 53.4332L118.198 45.082L126.539 35.9075L126.85 35.5594C127.956 34.3428 129.499 33.6159 131.141 33.5387C132.782 33.4615 134.387 34.0403 135.602 35.1477C136.818 36.2551 137.544 37.8005 137.621 39.4439C137.698 41.0872 137.12 42.6939 136.014 43.9105Z" fill="#B01036"/>
<path d="M105.988 31.1887L101.383 42.6921L89.8784 38.086L89.446 37.9119C88.6906 37.6092 88.0022 37.1604 87.42 36.5913C86.8378 36.0222 86.3733 35.3439 86.053 34.5951C85.7327 33.8462 85.5629 33.0416 85.5532 32.227C85.5435 31.4125 85.6941 30.604 85.9965 29.8478C86.2989 29.0915 86.7472 28.4023 87.3156 27.8195C87.8841 27.2366 88.5617 26.7716 89.3096 26.4509C90.0576 26.1303 90.8614 25.9602 91.675 25.9505C92.4886 25.9408 93.2962 26.0916 94.0515 26.3944L94.4839 26.5685L105.988 31.1887Z" fill="#B01036"/>
<path d="M106.153 30.7557L105.979 31.1886L101.383 42.692L89.8784 38.0859L94.484 26.5684L94.6578 26.1355C94.9532 25.3693 95.3977 24.6694 95.9656 24.0766C96.5334 23.4837 97.2131 23.0097 97.9655 22.682C98.7178 22.3544 99.5276 22.1796 100.348 22.1679C101.168 22.1561 101.983 22.3077 102.744 22.6137C103.505 22.9197 104.198 23.3741 104.783 23.9504C105.367 24.5268 105.832 25.2137 106.149 25.9712C106.466 26.7287 106.63 27.5417 106.63 28.363C106.631 29.1844 106.469 29.9977 106.153 30.7557Z" fill="#B01036"/>
<path d="M107.502 5.2648L104.503 11.6399L98.1638 8.62408L97.9241 8.51116C97.0809 8.11248 96.4305 7.3948 96.1159 6.516C95.8012 5.63719 95.8482 4.66925 96.2464 3.82511C96.6446 2.98096 97.3615 2.32977 98.2393 2.01477C99.1171 1.69978 100.084 1.74679 100.927 2.14547L101.167 2.25838L107.502 5.2648Z" fill="#B01036"/>
<path d="M107.615 5.02476L107.502 5.2647L104.504 11.6398L98.1641 8.62398L101.167 2.25829L101.28 2.01834C101.678 1.1742 102.395 0.523005 103.273 0.208012C104.151 -0.106982 105.117 -0.0599698 105.961 0.338705C106.804 0.73738 107.454 1.45506 107.769 2.33387C108.083 3.21267 108.037 4.18061 107.638 5.02476H107.615Z" fill="#B01036"/>
<path d="M124.651 23.9525L116.854 29.0949L111.722 21.2895L111.529 20.9978C110.942 19.966 110.769 18.7489 111.046 17.5941C111.323 16.4392 112.028 15.4332 113.02 14.7806C114.011 14.1281 115.213 13.8779 116.382 14.0811C117.551 14.2842 118.598 14.9254 119.312 15.8742L119.509 16.1706L124.651 23.9525Z" fill="#B01036"/>
<path d="M124.951 23.7596L124.66 23.9525L116.854 29.0949L111.722 21.2896L119.519 16.1518L119.81 15.9589C120.322 15.621 120.895 15.3872 121.497 15.271C122.099 15.1548 122.717 15.1583 123.318 15.2815C123.918 15.4047 124.489 15.6452 124.996 15.989C125.504 16.3329 125.939 16.7735 126.277 17.2857C126.614 17.7979 126.848 18.3717 126.964 18.9742C127.08 19.5768 127.076 20.1963 126.953 20.7975C126.83 21.3986 126.59 21.9696 126.247 22.4779C125.903 22.9861 125.463 23.4217 124.951 23.7596Z" fill="#B01036"/>
</svg>
