<svg width="246" height="268" viewBox="0 0 246 268" fill="none" xmlns="http://www.w3.org/2000/svg">
<g clip-path="url(#clip0_53_1360)" filter="url(#filter0_d_53_1360)">
<path d="M11.5736 150.257C13.0142 147.101 14.6484 144.037 16.467 141.082C23.7469 129.23 35.1334 122.925 43.6329 112.34C52.2905 101.53 57.6356 87.9747 58.1738 74.0999C58.6745 61.3156 55.4222 48.2606 58.7083 35.9087C62.6005 21.2744 75.4212 9.30974 88.8555 3.14318C104.868 -4.21532 117.215 1.97755 127.664 15.0439C135.945 25.4029 144.14 37.1344 156.271 43.3198C167.677 49.1329 179.771 47.6853 191.711 51.4529C204.159 55.3822 215.515 62.8911 223.736 73.0509C250.594 106.241 242.203 160.285 230.512 197.886C225.043 215.487 215.677 232.366 201.227 243.823C180.031 260.646 148.461 265.267 124.995 250.426C115.208 244.241 107.371 235.299 97.4754 229.279C85.5893 222.11 71.4875 219.536 57.8313 222.041C51.0558 223.312 44.5325 225.824 37.6931 226.681C19.7418 228.937 8.25738 214.972 5.25735 198.668C2.25732 182.364 4.72284 165.305 11.5736 150.257Z" fill="#6DA9E4"/>
<path d="M145.141 87.535C149.551 90.7373 153.525 94.4989 156.964 98.7251C166.141 110.032 165.791 117.868 172.521 124.835C176.56 129.016 184.085 133.859 199.281 134.16C198.453 136.852 197.623 139.546 196.793 142.241C191.32 142.771 180.641 142.993 169.408 137.424C146.609 126.144 141.727 101.068 141.177 97.9054L145.141 87.535Z" fill="#F8A3A0"/>
<mask id="mask0_53_1360" style="mask-type:luminance" maskUnits="userSpaceOnUse" x="141" y="87" width="59" height="56">
<path d="M145.141 87.535C149.551 90.7373 153.525 94.4989 156.964 98.7251C166.141 110.032 165.791 117.868 172.521 124.835C176.56 129.016 184.085 133.859 199.281 134.16C198.453 136.852 197.623 139.546 196.793 142.241C191.32 142.771 180.641 142.993 169.408 137.424C146.609 126.144 141.727 101.068 141.177 97.9054L145.141 87.535Z" fill="white"/>
</mask>
<g mask="url(#mask0_53_1360)">
<g opacity="0.15">
<path d="M146.756 96.2359L146.654 96.1006C146.699 96.1683 146.752 96.2322 146.801 96.2961L147.083 96.6909C147.301 97.003 147.512 97.3188 147.712 97.6384C148.088 98.2351 148.436 98.8479 148.754 99.4771C149.071 100.094 149.293 100.808 149.65 101.395C149.65 101.395 149.488 100.996 149.583 101.233L149.673 101.459L149.854 101.917C149.982 102.245 150.106 102.579 150.23 102.91C151.223 105.708 152.012 108.575 152.59 111.487C152.733 112.198 152.865 112.908 152.985 113.626C153.046 114.002 153.106 114.378 153.162 114.754C153.185 114.924 153.211 115.097 153.238 115.27C153.238 115.318 153.294 115.484 153.271 115.529C153.317 115.439 153.219 115.108 153.271 115.446C153.462 116.95 153.605 118.454 153.7 119.958C153.881 122.941 153.859 125.932 153.633 128.911C153.573 129.75 153.493 130.584 153.396 131.423C153.373 131.622 153.35 131.825 153.324 132.025C153.324 132.141 153.298 132.258 153.283 132.37C153.268 132.483 153.222 132.822 153.283 132.502C153.343 132.182 153.283 132.502 153.283 132.547C153.283 132.66 153.253 132.777 153.234 132.889L153.143 133.495C152.88 135.183 152.549 136.879 152.153 138.526C151.879 139.673 152.511 141.026 153.731 141.301C154.886 141.564 156.215 140.955 156.509 139.725C157.973 133.571 158.573 127.244 158.293 120.925C158.028 114.633 156.875 108.41 154.867 102.44C153.712 99.056 152.202 95.8938 149.974 93.0812C149.764 92.8712 149.515 92.7047 149.24 92.5911C148.966 92.4775 148.671 92.4192 148.374 92.4194C147.775 92.4194 147.201 92.6571 146.777 93.0802C146.354 93.5033 146.116 94.0771 146.116 94.6755C146.151 95.2662 146.384 95.8278 146.778 96.2698L146.756 96.2359Z" fill="black"/>
</g>
</g>
<path d="M195.464 137.022C195.611 136.616 195.842 136.246 196.141 135.935C198.253 133.547 201.787 131.671 201.787 131.671C205.8 129.543 207.166 129.603 208.009 129.791C208.634 129.941 209.282 130.242 209.255 130.415C209.229 130.588 208.156 130.381 207.373 131.036C207.188 131.188 207.037 131.378 206.929 131.592C206.821 131.806 206.76 132.041 206.748 132.28C206.763 132.519 206.826 132.751 206.933 132.965C207.041 133.178 207.19 133.367 207.373 133.521C207.718 133.845 208.149 134.062 208.615 134.145C209.022 134.263 209.454 134.263 209.861 134.145C210.145 134.037 210.402 133.87 210.616 133.656C210.83 133.441 210.996 133.184 211.104 132.901C211.207 132.616 211.252 132.314 211.236 132.011C211.219 131.709 211.143 131.413 211.009 131.141C210.019 130.765 209.839 130.536 209.88 130.415C209.933 130.107 211.348 129.799 212.368 130.415C213.535 131.118 213.603 132.671 213.614 132.901C213.631 133.282 213.585 133.663 213.479 134.029C214.286 133.928 215.085 133.77 215.869 133.555C218.048 132.961 219.046 132.231 219.257 132.487C219.468 132.743 218.455 134.288 216.93 135.258C216.049 135.793 215.087 136.183 214.081 136.413C215.032 136.303 215.962 136.05 216.836 135.661C218.557 134.954 219.268 134.243 219.426 134.405C219.652 134.642 218.621 136.54 216.761 137.721C215.397 138.537 213.835 138.965 212.244 138.958C213.455 138.984 214.66 138.768 215.786 138.323C217.883 137.544 218.903 136.413 219.106 136.616C219.309 136.819 218.406 138.42 216.93 139.624C215.877 140.489 214.747 140.887 212.481 141.684C210.876 142.276 209.207 142.679 207.509 142.887C207.362 142.887 207.151 142.933 206.88 142.955C204.622 143.151 203.116 142.887 201.324 142.677C197.184 142.192 195.957 142.496 195.531 141.628C195.336 141.225 195.618 141.195 195.531 139.748C195.445 138.3 195.174 137.856 195.464 137.022Z" fill="#F8A3A0"/>
<path d="M218.835 132.404C216.981 133.287 214.999 133.875 212.963 134.149C212.783 134.172 212.862 134.446 213.039 134.42C215.098 134.14 217.102 133.542 218.978 132.649C219.144 132.57 219.001 132.325 218.835 132.404Z" fill="black"/>
<path d="M218.952 134.397C216.205 136.017 213.05 136.816 209.862 136.698C209.681 136.698 209.681 136.973 209.862 136.98C213.1 137.097 216.304 136.286 219.095 134.642C219.122 134.62 219.141 134.59 219.147 134.556C219.154 134.522 219.148 134.487 219.13 134.457C219.113 134.427 219.085 134.405 219.052 134.394C219.02 134.383 218.984 134.384 218.952 134.397Z" fill="black"/>
<path d="M218.704 136.642C216.037 138.487 212.785 139.29 209.564 138.898C209.384 138.875 209.387 139.157 209.564 139.18C212.837 139.569 216.139 138.748 218.847 136.871C218.993 136.766 218.847 136.522 218.704 136.627V136.642Z" fill="black"/>
<path d="M210.287 130.344C210.637 130.22 211.011 130.185 211.377 130.242C211.744 130.299 212.09 130.446 212.385 130.67C212.68 130.893 212.915 131.187 213.069 131.524C213.222 131.861 213.29 132.231 213.265 132.6C213.265 132.78 213.539 132.78 213.547 132.6C213.571 132.187 213.493 131.775 213.32 131.399C213.147 131.024 212.884 130.697 212.555 130.446C212.225 130.196 211.839 130.031 211.431 129.965C211.022 129.9 210.603 129.935 210.212 130.069C210.039 130.126 210.114 130.396 210.287 130.34V130.344Z" fill="black"/>
<path d="M203.225 131.137C204.934 130.257 206.892 129.501 208.804 130.159C208.977 130.22 209.052 129.949 208.879 129.889C206.892 129.204 204.855 129.979 203.086 130.893C202.924 130.975 203.086 131.22 203.225 131.137Z" fill="black"/>
<path d="M109.641 87.535C105.231 90.7373 101.256 94.4989 97.8176 98.7251C88.6368 110.032 88.9907 117.868 82.2604 124.835C78.2177 129.016 70.6969 133.859 55.501 134.16C56.3291 136.852 57.1585 139.546 57.9891 142.241C63.4622 142.771 74.1411 142.993 85.3696 137.424C108.173 126.144 113.055 101.068 113.601 97.9054L109.641 87.535Z" fill="#F8A3A0"/>
<mask id="mask1_53_1360" style="mask-type:luminance" maskUnits="userSpaceOnUse" x="55" y="87" width="59" height="56">
<path d="M109.641 87.535C105.231 90.7373 101.256 94.4989 97.8176 98.7251C88.6368 110.032 88.9907 117.868 82.2604 124.835C78.2177 129.016 70.6969 133.859 55.501 134.16C56.3291 136.852 57.1585 139.546 57.9891 142.241C63.4622 142.771 74.1411 142.993 85.3696 137.424C108.173 126.144 113.055 101.068 113.601 97.9054L109.641 87.535Z" fill="white"/>
</mask>
<g mask="url(#mask1_53_1360)">
<path d="M88.5051 93.2541C88.6548 93.2541 88.7984 93.1947 88.9043 93.0889C89.0102 92.9832 89.0697 92.8397 89.0697 92.6901C89.0697 92.5405 89.0102 92.3971 88.9043 92.2913C88.7984 92.1855 88.6548 92.1261 88.5051 92.1261C88.3553 92.1261 88.2117 92.1855 88.1058 92.2913C87.9999 92.3971 87.9404 92.5405 87.9404 92.6901C87.9404 92.8397 87.9999 92.9832 88.1058 93.0889C88.2117 93.1947 88.3553 93.2541 88.5051 93.2541Z" fill="#F8A3A0"/>
<g opacity="0.15">
<path d="M107.728 90.0919C103.385 94.0024 100.719 99.4395 99.1574 104.997C98.3232 108.107 97.6945 111.269 97.2753 114.461C96.8236 117.631 96.3493 120.816 96.1235 124.008C95.875 127.52 96.0369 131.152 97.2715 134.48C97.5764 135.307 98.4309 135.958 99.3531 135.661C100.166 135.397 100.859 134.469 100.535 133.581C100.282 132.894 100.069 132.192 99.8989 131.479C99.8161 131.126 99.7446 130.769 99.6843 130.411C99.6542 130.246 99.6317 130.077 99.6015 129.911C99.5714 129.746 99.6015 129.911 99.6015 129.945C99.6015 129.836 99.5752 129.723 99.5601 129.611C99.4027 128.119 99.3637 126.618 99.4434 125.121C99.5112 123.636 99.6618 122.154 99.8387 120.677C99.929 119.925 100.023 119.199 100.121 118.462C100.166 118.108 100.215 117.751 100.26 117.398C100.287 117.191 100.317 116.984 100.343 116.777C100.343 116.815 100.317 116.98 100.343 116.777C100.343 116.661 100.373 116.54 100.392 116.424C100.78 113.316 101.34 110.231 102.071 107.185C102.425 105.758 102.851 104.35 103.347 102.966C103.456 102.673 103.565 102.384 103.678 102.094C103.743 101.926 103.811 101.757 103.881 101.587C103.908 101.515 103.938 101.444 103.968 101.372C103.904 101.534 103.927 101.47 103.968 101.346C104.239 100.729 104.525 100.116 104.83 99.5185C105.504 98.1814 106.286 96.9012 107.167 95.6907C107.213 95.6305 107.544 95.1756 107.367 95.4162L107.706 94.9951C107.95 94.6943 108.203 94.4047 108.459 94.1152C108.978 93.5433 109.527 92.9986 110.104 92.4833C110.418 92.164 110.595 91.7339 110.595 91.2857C110.595 90.8376 110.418 90.4075 110.104 90.0882C109.78 89.7808 109.351 89.6094 108.905 89.6094C108.458 89.6094 108.029 89.7808 107.706 90.0882L107.728 90.0919Z" fill="black"/>
</g>
</g>
<path d="M139.378 198.449C140.739 190.052 122.159 180.061 97.8781 176.133C73.5971 172.204 52.8099 175.826 51.4484 184.223C50.087 192.619 68.667 202.611 92.948 206.539C117.229 210.467 138.016 206.845 139.378 198.449Z" fill="#36474F"/>
<path d="M158.269 206.564C182.55 202.635 201.13 192.644 199.768 184.247C198.407 175.851 177.62 172.229 153.339 176.157C129.058 180.086 110.478 190.077 111.839 198.473C113.2 206.87 133.988 210.492 158.269 206.564Z" fill="#36474F"/>
<path d="M85.385 173.946C89.533 159.643 92.856 145.114 95.3374 130.43C99.2371 107.249 99.3199 93.5399 109.408 87.6666C114.64 84.6209 121.235 84.4555 125.97 84.3351C130.111 84.2299 139.69 83.9855 146.376 88.1554C155.786 94.0324 155.56 106.204 159.445 131.671C160.95 141.654 163.506 156.213 167.812 173.946C155.185 180.886 141.007 184.525 126.595 184.525C112.183 184.525 98.0045 180.886 85.3774 173.946H85.385Z" fill="#F6BA6F"/>
<path d="M112.935 63.7863C112.02 60.421 110.823 55.2245 110.676 50.2048C110.631 48.8286 110.654 47.1516 111.805 45.9183C113.161 44.4744 115.28 44.4782 116.055 44.5158C116.097 43.8728 116.383 40.3195 119.164 38.3003C122.307 36.0142 127.415 36.5707 130.988 40.1804C130.77 39.1938 130.924 38.1616 131.42 37.2814C131.891 36.488 132.979 35.3261 134.055 35.5367C135.422 35.8074 135.84 38.1687 135.979 38.9208C136.196 40.1792 136.094 41.4721 135.682 42.6809C136.065 42.3249 136.377 41.8985 136.6 41.425C137.206 40.139 136.758 39.2592 137.225 38.9396C137.838 38.5184 139.574 39.3908 140.334 40.8196C141.185 42.3951 140.518 44.0796 140.334 44.5496C139.741 45.9502 138.626 47.0654 137.225 47.6592L130.826 48.6481L112.935 63.7863Z" fill="#25323B"/>
<path d="M127.246 92.3856C132.196 92.3856 136.209 89.6298 136.209 86.2303C136.209 82.8309 132.196 80.0751 127.246 80.0751C122.296 80.0751 118.284 82.8309 118.284 86.2303C118.284 89.6298 122.296 92.3856 127.246 92.3856Z" fill="#F8A3A0"/>
<path d="M118.287 86.1702H136.208V68.1405H118.287V86.1702Z" fill="#F8A3A0"/>
<mask id="mask2_53_1360" style="mask-type:luminance" maskUnits="userSpaceOnUse" x="118" y="68" width="19" height="19">
<path d="M118.287 86.1664H136.208V68.1367H118.287V86.1664Z" fill="white"/>
</mask>
<g mask="url(#mask2_53_1360)">
<path opacity="0.1" d="M137.206 76.8413C137.112 77.394 136.419 81.1053 133.472 82.4363C130.46 83.7975 127.174 81.7106 125.379 80.5563C123.643 79.4201 122.161 77.9392 121.024 76.2059C119.47 73.9733 118.413 71.435 117.922 68.7609L137.206 76.8413Z" fill="black" stroke="black" stroke-width="4" stroke-miterlimit="10"/>
</g>
<path d="M132.464 80.3269C140.369 78.5285 144.815 68.4613 142.394 57.8412C139.973 47.2212 131.601 40.0698 123.696 41.8683C115.791 43.6667 111.345 53.7339 113.766 64.3539C116.188 74.974 124.559 82.1253 132.464 80.3269Z" fill="#F8A3A0"/>
<mask id="mask3_53_1360" style="mask-type:luminance" maskUnits="userSpaceOnUse" x="113" y="41" width="31" height="40">
<path d="M132.464 80.3231C140.369 78.5247 144.815 68.4575 142.394 57.8375C139.973 47.2174 131.601 40.0661 123.696 41.8645C115.791 43.6629 111.345 53.7301 113.766 64.3502C116.188 74.9702 124.559 82.1216 132.464 80.3231Z" fill="white"/>
</mask>
<g mask="url(#mask3_53_1360)">
<path d="M110.661 61.4738C112.129 62.6243 113.906 63.7298 114.802 63.1658C115.114 62.9628 115.178 62.6544 115.423 61.9212C116.176 59.7892 116.853 59.4734 117.305 58.1912C117.606 57.3038 117.798 55.9615 117.215 54.0551C118.513 53.6076 119.703 52.8936 120.709 51.9592C121.714 51.0247 122.513 49.8905 123.053 48.6293C125.609 49.459 128.365 49.4484 130.915 48.5991C133.465 47.7498 135.675 46.1065 137.221 43.9103L127.886 36.4503L106.103 47.6404L110.661 61.4738Z" fill="#25323B"/>
</g>
<path d="M114.723 68.5427C116.445 67.9221 117.226 65.7134 116.467 63.6095C115.707 61.5056 113.695 60.3031 111.972 60.9237C110.249 61.5444 109.468 63.7531 110.228 65.857C110.987 67.9609 113 69.1634 114.723 68.5427Z" fill="#F8A3A0"/>
<path opacity="0.7" d="M130.261 60.4774C130.946 62.7711 134.025 65.1174 134.025 65.1174C134.025 65.1174 131.94 66.456 131.296 68.1668" stroke="black" stroke-miterlimit="10"/>
<path opacity="0.7" d="M121.652 60.9963C122.695 63.493 124.746 64.5533 125.699 64.1247C126.651 63.696 127.156 61.5979 126.184 59.2742" stroke="black" stroke-miterlimit="10"/>
<path opacity="0.7" d="M132.136 57.1572C133.178 59.6501 135.23 60.7105 136.182 60.2818C137.135 59.8532 137.635 57.7588 136.668 55.4351" stroke="black" stroke-miterlimit="10"/>
<path opacity="0.7" d="M127.212 71.1147C128.552 73.4197 131.352 74.3334 133.558 73.3708C134.491 72.9332 135.266 72.2206 135.78 71.3291C136.294 70.4376 136.523 69.41 136.434 68.3849" stroke="black" stroke-miterlimit="10"/>
<path opacity="0.35" d="M111.041 62.5568C110.598 63.5087 110.544 64.5962 110.891 65.5874C111.128 66.1817 111.498 66.7138 111.973 67.1428C112.448 67.5717 113.015 67.886 113.631 68.0615" stroke="black" stroke-width="0.75" stroke-miterlimit="10"/>
<g opacity="0.7">
<path d="M121.517 57.7851C121.517 57.7851 121.604 57.6648 121.562 57.7174C121.521 57.7701 121.592 57.6798 121.6 57.6723L121.754 57.4994C121.814 57.4392 121.875 57.379 121.939 57.3226L122.018 57.2549C122.097 57.1873 121.995 57.255 122.048 57.2324C122.168 57.141 122.294 57.0569 122.424 56.9805L122.635 56.8752C122.635 56.8752 122.767 56.8188 122.706 56.8413C122.646 56.8639 122.789 56.8113 122.785 56.815C122.93 56.7603 123.079 56.7164 123.23 56.6834L123.459 56.6383C123.553 56.6383 123.328 56.6383 123.489 56.6383H123.591C123.754 56.627 123.917 56.627 124.08 56.6383H124.186C124.25 56.6383 124.107 56.6383 124.212 56.6383L124.468 56.6947C124.613 56.7341 124.767 56.7144 124.898 56.64C125.028 56.5656 125.123 56.4426 125.163 56.298C125.202 56.1534 125.182 55.9991 125.108 55.869C125.033 55.7389 124.91 55.6437 124.765 55.6043C123.983 55.4238 123.164 55.481 122.415 55.7684C121.665 56.0558 121.018 56.5603 120.557 57.2174C120.482 57.3461 120.46 57.4995 120.497 57.6439C120.535 57.7884 120.628 57.9122 120.757 57.9882C120.887 58.0606 121.041 58.0799 121.185 58.0421C121.33 58.0043 121.454 57.9122 121.532 57.7851H121.517Z" fill="black"/>
</g>
<g opacity="0.7">
<path d="M131.898 54.3297C131.898 54.3297 131.989 54.2056 131.947 54.2582C131.906 54.3109 131.977 54.2244 131.985 54.2169C131.992 54.2093 132.087 54.1003 132.139 54.0439C132.192 53.9875 132.26 53.9236 132.324 53.8634L132.403 53.7995C132.482 53.7318 132.38 53.7995 132.433 53.7732C132.553 53.683 132.679 53.6001 132.809 53.525C132.877 53.4874 132.949 53.4498 133.016 53.4197C133.016 53.4197 133.152 53.3596 133.092 53.3821C133.031 53.4047 133.174 53.3558 133.171 53.3558C133.316 53.3023 133.464 53.2584 133.615 53.2242L133.844 53.1828C133.935 53.164 133.713 53.1828 133.875 53.1828H133.976C134.139 53.1697 134.303 53.1697 134.466 53.1828H134.571C134.635 53.1828 134.492 53.1828 134.597 53.1828C134.703 53.1828 134.767 53.2129 134.849 53.2355C134.922 53.2578 134.998 53.2653 135.073 53.2578C135.148 53.2502 135.221 53.2277 135.287 53.1914C135.353 53.1552 135.412 53.1061 135.459 53.0469C135.506 52.9878 135.54 52.9198 135.56 52.8471C135.58 52.7743 135.586 52.6983 135.576 52.6235C135.566 52.5486 135.541 52.4765 135.503 52.4114C135.465 52.3463 135.414 52.2895 135.354 52.2444C135.293 52.1993 135.224 52.1668 135.151 52.1488C134.364 51.9655 133.541 52.0223 132.787 52.312C132.033 52.6016 131.384 53.1106 130.923 53.7732C130.855 53.9008 130.838 54.0497 130.876 54.1895C130.913 54.3293 131.003 54.4494 131.127 54.5252C131.256 54.5968 131.409 54.6161 131.552 54.579C131.696 54.542 131.82 54.4514 131.898 54.3259V54.3297Z" fill="black"/>
</g>
<path d="M59.3444 137.022C59.1971 136.616 58.9663 136.246 58.6669 135.935C56.5552 133.547 53.0207 131.671 53.0207 131.671C49.0081 129.543 47.6417 129.603 46.7985 129.791C46.1737 129.941 45.5262 130.242 45.5526 130.415C45.5789 130.588 46.6517 130.381 47.4346 131.036C47.62 131.188 47.7713 131.378 47.8789 131.592C47.9865 131.806 48.048 132.041 48.0595 132.28C48.0449 132.519 47.9819 132.751 47.8745 132.965C47.7671 133.178 47.6175 133.367 47.4346 133.521C47.0902 133.845 46.6585 134.062 46.1925 134.145C45.7856 134.263 45.3535 134.263 44.9465 134.145C44.6633 134.036 44.4061 133.869 44.1915 133.655C43.9769 133.44 43.8097 133.184 43.7006 132.901C43.5979 132.616 43.5536 132.313 43.5704 132.011C43.5872 131.709 43.6648 131.413 43.7985 131.141C44.7884 130.765 44.9691 130.536 44.9277 130.415C44.875 130.107 43.4597 129.799 42.4396 130.415C41.2727 131.118 41.205 132.671 41.1937 132.901C41.1771 133.282 41.2229 133.663 41.3292 134.029C40.5221 133.928 39.7233 133.77 38.9389 133.555C36.7595 132.961 35.762 132.231 35.5512 132.487C35.3404 132.743 36.353 134.288 37.8775 135.258C38.7591 135.793 39.7212 136.183 40.7269 136.413C39.7755 136.303 38.8464 136.05 37.9716 135.661C36.2513 134.954 35.5399 134.243 35.3818 134.405C35.156 134.642 36.1874 136.54 38.0468 137.721C39.4114 138.537 40.9734 138.965 42.5638 138.958C41.3526 138.984 40.1484 138.768 39.0218 138.323C36.9251 137.544 35.905 136.413 35.7018 136.616C35.4985 136.819 36.4019 138.42 37.8775 139.624C38.9314 140.489 40.0607 140.887 42.3267 141.684C43.9236 142.274 45.5833 142.677 47.2728 142.887C47.4196 142.887 47.6304 142.933 47.9014 142.955C50.1599 143.151 51.6656 142.887 53.4573 142.677C57.5979 142.192 58.825 142.496 59.2503 141.628C59.4461 141.225 59.1638 141.195 59.2503 139.748C59.3369 138.3 59.623 137.856 59.3444 137.022Z" fill="#F8A3A0"/>
<path d="M35.8182 132.649C37.6946 133.542 39.6984 134.14 41.758 134.42C41.935 134.446 42.014 134.172 41.8333 134.149C39.7972 133.875 37.8161 133.287 35.9612 132.404C35.7956 132.325 35.6526 132.57 35.8182 132.649Z" fill="black"/>
<path d="M35.7015 134.641C38.4927 136.286 41.6968 137.097 44.935 136.98C45.1157 136.98 45.1157 136.691 44.935 136.698C41.7457 136.816 38.5896 136.017 35.8408 134.397C35.8083 134.379 35.7699 134.374 35.7339 134.384C35.6979 134.394 35.6673 134.417 35.6488 134.45C35.6303 134.482 35.6255 134.521 35.6354 134.557C35.6453 134.592 35.6691 134.623 35.7015 134.641Z" fill="black"/>
<path d="M35.95 136.871C38.661 138.74 41.9626 139.553 45.2324 139.157C45.4093 139.135 45.4131 138.853 45.2324 138.875C42.0121 139.267 38.7599 138.464 36.093 136.619C35.9425 136.514 35.8032 136.758 35.95 136.864V136.871Z" fill="black"/>
<path d="M44.585 130.073C44.1934 129.939 43.7749 129.903 43.3663 129.969C42.9578 130.035 42.5717 130.2 42.2421 130.45C41.9125 130.7 41.6496 131.027 41.4766 131.403C41.3036 131.779 41.2257 132.191 41.2499 132.604C41.2499 132.784 41.5398 132.784 41.5322 132.604C41.5072 132.234 41.5745 131.864 41.728 131.527C41.8816 131.191 42.1165 130.897 42.4118 130.673C42.707 130.45 43.0534 130.303 43.4196 130.246C43.7857 130.189 44.1604 130.224 44.5097 130.347C44.6828 130.404 44.7581 130.133 44.585 130.077V130.073Z" fill="black"/>
<path d="M51.7105 130.893C49.9414 129.979 47.905 129.204 45.9175 129.889C45.7444 129.949 45.8196 130.22 45.9928 130.159C47.905 129.501 49.8623 130.257 51.5713 131.137C51.7294 131.22 51.8724 130.975 51.7105 130.893Z" fill="black"/>
<path d="M80.3445 188.565C92.1642 186.952 104.167 187.257 115.889 189.467C119.134 190.079 122.346 190.839 125.526 191.746C125.595 191.759 125.667 191.746 125.727 191.708C125.787 191.671 125.831 191.612 125.85 191.544C125.869 191.476 125.861 191.404 125.829 191.341C125.797 191.278 125.742 191.229 125.676 191.205C114.168 187.94 102.207 186.554 90.2555 187.099C86.8904 187.254 83.5378 187.562 80.1977 188.024C79.8213 188.072 79.9907 188.614 80.3445 188.565Z" fill="#1F3038"/>
<path d="M163.179 186.794C150.58 186.364 137.992 187.916 125.876 191.393C122.468 192.373 119.114 193.501 115.814 194.777C115.479 194.905 115.622 195.454 115.965 195.318C121.766 193.066 127.736 191.275 133.818 189.96C139.991 188.629 146.259 187.787 152.564 187.441C156.1 187.25 159.638 187.214 163.179 187.332C163.555 187.332 163.555 186.779 163.179 186.768V186.794Z" fill="#1F3038"/>
<path d="M111.945 27.2382H109.679C108.814 27.2382 108.113 27.9385 108.113 28.8024V40.594C108.113 41.4579 108.814 42.1582 109.679 42.1582H111.945C112.81 42.1582 113.511 41.4579 113.511 40.594V28.8024C113.511 27.9385 112.81 27.2382 111.945 27.2382Z" fill="#04CFAE"/>
<path d="M103.434 33.6528V35.9164C103.434 36.7803 104.135 37.4806 105 37.4806H116.804C117.669 37.4806 118.37 36.7803 118.37 35.9164V33.6528C118.37 32.7889 117.669 32.0886 116.804 32.0886H105C104.135 32.0886 103.434 32.7889 103.434 33.6528Z" fill="#04CFAE"/>
<path d="M127.272 20.3986H125.492C124.741 20.3986 124.133 21.0063 124.133 21.756V31.4758C124.133 32.2255 124.741 32.8332 125.492 32.8332H127.272C128.023 32.8332 128.631 32.2255 128.631 31.4758V21.756C128.631 21.0063 128.023 20.3986 127.272 20.3986Z" fill="#04CFAE"/>
<path d="M120.233 25.798V27.5766C120.233 28.3262 120.842 28.934 121.592 28.934H131.323C132.073 28.934 132.681 28.3262 132.681 27.5766V25.798C132.681 25.0484 132.073 24.4406 131.323 24.4406H121.592C120.842 24.4406 120.233 25.0484 120.233 25.798Z" fill="#04CFAE"/>
<path d="M115.554 11.6938H114.222C113.658 11.6938 113.202 12.1501 113.202 12.7128V19.9999C113.202 20.5627 113.658 21.0189 114.222 21.0189H115.554C116.118 21.0189 116.574 20.5627 116.574 19.9999V12.7128C116.574 12.1501 116.118 11.6938 115.554 11.6938Z" fill="#04CFAE"/>
<path d="M110.281 15.751V17.0821C110.281 17.6449 110.737 18.1011 111.301 18.1011H118.596C119.159 18.1011 119.616 17.6449 119.616 17.0821V15.751C119.616 15.1882 119.159 14.732 118.596 14.732H111.301C110.737 14.732 110.281 15.1882 110.281 15.751Z" fill="#04CFAE"/>
<g opacity="0.1">
<path d="M128.894 204.576C137.917 205.682 147.048 205.586 156.045 204.29C164.99 203.011 173.731 200.578 182.048 197.052C186.728 195.069 191.251 192.738 195.58 190.077C196.198 189.701 195.629 188.723 195.008 189.103C187.348 193.807 179.096 197.474 170.47 200.007C161.847 202.544 152.929 203.945 143.944 204.177C138.913 204.301 133.88 204.05 128.887 203.425C128.168 203.339 128.172 204.467 128.887 204.553L128.894 204.576Z" fill="white"/>
</g>
<g opacity="0.05">
<path d="M54.308 184.955C58.3056 180.646 64.1174 178.887 69.7411 177.958C71.5403 177.665 73.3546 177.443 75.1652 177.206C75.8766 177.119 75.8879 175.988 75.1652 176.078C68.9995 176.83 62.5666 177.638 57.2177 181.06C55.8533 181.926 54.6038 182.961 53.4987 184.139C53.0056 184.673 53.8036 185.474 54.2967 184.94L54.308 184.955Z" fill="white"/>
</g>
</g>
<defs>
<filter id="filter0_d_53_1360" x="0" y="0" width="246" height="267.371" filterUnits="userSpaceOnUse" color-interpolation-filters="sRGB">
<feFlood flood-opacity="0" result="BackgroundImageFix"/>
<feColorMatrix in="SourceAlpha" type="matrix" values="0 0 0 0 0 0 0 0 0 0 0 0 0 0 0 0 0 0 127 0" result="hardAlpha"/>
<feOffset dy="4"/>
<feGaussianBlur stdDeviation="2"/>
<feComposite in2="hardAlpha" operator="out"/>
<feColorMatrix type="matrix" values="0 0 0 0 0 0 0 0 0 0 0 0 0 0 0 0 0 0 0.25 0"/>
<feBlend mode="normal" in2="BackgroundImageFix" result="effect1_dropShadow_53_1360"/>
<feBlend mode="normal" in="SourceGraphic" in2="effect1_dropShadow_53_1360" result="shape"/>
</filter>
<clipPath id="clip0_53_1360">
<rect width="238" height="259.371" fill="white" transform="translate(4)"/>
</clipPath>
</defs>
</svg>
