<svg width="238" height="260" viewBox="0 0 238 260" fill="none" xmlns="http://www.w3.org/2000/svg">
<g clip-path="url(#clip0_53_1360)">
<path d="M7.5736 150.257C9.01415 147.101 10.6484 144.037 12.467 141.082C19.7469 129.23 31.1334 122.925 39.6329 112.34C48.2905 101.53 53.6356 87.9747 54.1738 74.0999C54.6745 61.3156 51.4222 48.2606 54.7083 35.9087C58.6005 21.2744 71.4212 9.30974 84.8555 3.14318C100.868 -4.21532 113.215 1.97755 123.664 15.0439C131.945 25.4029 140.14 37.1344 152.271 43.3198C163.677 49.1329 175.771 47.6853 187.711 51.4529C200.159 55.3822 211.515 62.8911 219.736 73.0509C246.594 106.241 238.203 160.285 226.512 197.886C221.043 215.487 211.677 232.366 197.227 243.823C176.031 260.646 144.461 265.267 120.995 250.426C111.208 244.241 103.371 235.299 93.4754 229.279C81.5893 222.11 67.4875 219.536 53.8313 222.041C47.0558 223.312 40.5325 225.824 33.6931 226.681C15.7418 228.937 4.25738 214.972 1.25735 198.668C-1.74268 182.364 0.722841 165.305 7.5736 150.257Z" fill="#6DA9E4"/>
<path d="M141.141 87.535C145.551 90.7373 149.525 94.4989 152.964 98.7251C162.141 110.032 161.791 117.868 168.521 124.835C172.56 129.016 180.085 133.859 195.281 134.16C194.453 136.852 193.623 139.546 192.793 142.241C187.32 142.771 176.641 142.993 165.408 137.424C142.609 126.144 137.727 101.068 137.177 97.9054L141.141 87.535Z" fill="#F8A3A0"/>
<mask id="mask0_53_1360" style="mask-type:luminance" maskUnits="userSpaceOnUse" x="137" y="87" width="59" height="56">
<path d="M141.141 87.535C145.551 90.7373 149.525 94.4989 152.964 98.7251C162.141 110.032 161.791 117.868 168.521 124.835C172.56 129.016 180.085 133.859 195.281 134.16C194.453 136.852 193.623 139.546 192.793 142.241C187.32 142.771 176.641 142.993 165.408 137.424C142.609 126.144 137.727 101.068 137.177 97.9054L141.141 87.535Z" fill="white"/>
</mask>
<g mask="url(#mask0_53_1360)">
<g opacity="0.15">
<path d="M142.756 96.2359L142.654 96.1006C142.699 96.1683 142.752 96.2322 142.801 96.2961L143.083 96.6909C143.301 97.003 143.512 97.3188 143.712 97.6384C144.088 98.2351 144.436 98.8479 144.754 99.4771C145.071 100.094 145.293 100.808 145.65 101.395C145.65 101.395 145.488 100.996 145.583 101.233L145.673 101.459L145.854 101.917C145.982 102.245 146.106 102.579 146.23 102.91C147.223 105.708 148.012 108.575 148.59 111.487C148.733 112.198 148.865 112.908 148.985 113.626C149.046 114.002 149.106 114.378 149.162 114.754C149.185 114.924 149.211 115.097 149.238 115.27C149.238 115.318 149.294 115.484 149.271 115.529C149.317 115.439 149.219 115.108 149.271 115.446C149.462 116.95 149.605 118.454 149.7 119.958C149.881 122.941 149.859 125.932 149.633 128.911C149.573 129.75 149.493 130.584 149.396 131.423C149.373 131.622 149.35 131.825 149.324 132.025C149.324 132.141 149.298 132.258 149.283 132.37C149.268 132.483 149.222 132.822 149.283 132.502C149.343 132.182 149.283 132.502 149.283 132.547C149.283 132.66 149.253 132.777 149.234 132.889L149.143 133.495C148.88 135.183 148.549 136.879 148.153 138.526C147.879 139.673 148.511 141.026 149.731 141.301C150.886 141.564 152.215 140.955 152.509 139.725C153.973 133.571 154.573 127.244 154.293 120.925C154.028 114.633 152.875 108.41 150.867 102.44C149.712 99.056 148.202 95.8938 145.974 93.0812C145.764 92.8712 145.515 92.7047 145.24 92.5911C144.966 92.4775 144.671 92.4192 144.374 92.4194C143.775 92.4194 143.201 92.6571 142.777 93.0802C142.354 93.5033 142.116 94.0771 142.116 94.6755C142.151 95.2662 142.384 95.8278 142.778 96.2698L142.756 96.2359Z" fill="black"/>
</g>
</g>
<path d="M191.464 137.022C191.611 136.616 191.842 136.246 192.141 135.935C194.253 133.547 197.787 131.671 197.787 131.671C201.8 129.543 203.166 129.603 204.009 129.791C204.634 129.941 205.282 130.242 205.255 130.415C205.229 130.588 204.156 130.381 203.373 131.036C203.188 131.188 203.037 131.378 202.929 131.592C202.821 131.806 202.76 132.041 202.748 132.28C202.763 132.519 202.826 132.751 202.933 132.965C203.041 133.178 203.19 133.367 203.373 133.521C203.718 133.845 204.149 134.062 204.615 134.145C205.022 134.263 205.454 134.263 205.861 134.145C206.145 134.037 206.402 133.87 206.616 133.656C206.83 133.441 206.996 133.184 207.104 132.901C207.207 132.616 207.252 132.314 207.236 132.011C207.219 131.709 207.143 131.413 207.009 131.141C206.019 130.765 205.839 130.536 205.88 130.415C205.933 130.107 207.348 129.799 208.368 130.415C209.535 131.118 209.603 132.671 209.614 132.901C209.631 133.282 209.585 133.663 209.479 134.029C210.286 133.928 211.085 133.77 211.869 133.555C214.048 132.961 215.046 132.231 215.257 132.487C215.468 132.743 214.455 134.288 212.93 135.258C212.049 135.793 211.087 136.183 210.081 136.413C211.032 136.303 211.962 136.05 212.836 135.661C214.557 134.954 215.268 134.243 215.426 134.405C215.652 134.642 214.621 136.54 212.761 137.721C211.397 138.537 209.835 138.965 208.244 138.958C209.455 138.984 210.66 138.768 211.786 138.323C213.883 137.544 214.903 136.413 215.106 136.616C215.309 136.819 214.406 138.42 212.93 139.624C211.877 140.489 210.747 140.887 208.481 141.684C206.876 142.276 205.207 142.679 203.509 142.887C203.362 142.887 203.151 142.933 202.88 142.955C200.622 143.151 199.116 142.887 197.324 142.677C193.184 142.192 191.957 142.496 191.531 141.628C191.336 141.225 191.618 141.195 191.531 139.748C191.445 138.3 191.174 137.856 191.464 137.022Z" fill="#F8A3A0"/>
<path d="M214.835 132.404C212.981 133.287 210.999 133.875 208.963 134.149C208.783 134.172 208.862 134.446 209.039 134.42C211.098 134.14 213.102 133.542 214.978 132.649C215.144 132.57 215.001 132.325 214.835 132.404Z" fill="black"/>
<path d="M214.952 134.397C212.205 136.017 209.05 136.816 205.862 136.698C205.681 136.698 205.681 136.973 205.862 136.98C209.1 137.097 212.304 136.286 215.095 134.642C215.122 134.62 215.141 134.59 215.147 134.556C215.154 134.522 215.148 134.487 215.13 134.457C215.113 134.427 215.085 134.405 215.052 134.394C215.02 134.383 214.984 134.384 214.952 134.397Z" fill="black"/>
<path d="M214.704 136.642C212.037 138.487 208.785 139.29 205.564 138.898C205.384 138.875 205.387 139.157 205.564 139.18C208.837 139.569 212.139 138.748 214.847 136.871C214.993 136.766 214.847 136.522 214.704 136.627V136.642Z" fill="black"/>
<path d="M206.287 130.344C206.637 130.22 207.011 130.185 207.377 130.242C207.744 130.299 208.09 130.446 208.385 130.67C208.68 130.893 208.915 131.187 209.069 131.524C209.222 131.861 209.29 132.231 209.265 132.6C209.265 132.78 209.539 132.78 209.547 132.6C209.571 132.187 209.493 131.775 209.32 131.399C209.147 131.024 208.884 130.697 208.555 130.446C208.225 130.196 207.839 130.031 207.431 129.965C207.022 129.9 206.603 129.935 206.212 130.069C206.039 130.126 206.114 130.396 206.287 130.34V130.344Z" fill="black"/>
<path d="M199.225 131.137C200.934 130.257 202.892 129.501 204.804 130.159C204.977 130.22 205.052 129.949 204.879 129.889C202.892 129.204 200.855 129.979 199.086 130.893C198.924 130.975 199.086 131.22 199.225 131.137Z" fill="black"/>
<path d="M105.641 87.535C101.231 90.7373 97.2564 94.4989 93.8176 98.7251C84.6368 110.032 84.9907 117.868 78.2604 124.835C74.2177 129.016 66.6969 133.859 51.501 134.16C52.3291 136.852 53.1585 139.546 53.9891 142.241C59.4622 142.771 70.1411 142.993 81.3696 137.424C104.173 126.144 109.055 101.068 109.601 97.9054L105.641 87.535Z" fill="#F8A3A0"/>
<mask id="mask1_53_1360" style="mask-type:luminance" maskUnits="userSpaceOnUse" x="51" y="87" width="59" height="56">
<path d="M105.641 87.535C101.231 90.7373 97.2564 94.4989 93.8176 98.7251C84.6368 110.032 84.9907 117.868 78.2604 124.835C74.2177 129.016 66.6969 133.859 51.501 134.16C52.3291 136.852 53.1585 139.546 53.9891 142.241C59.4622 142.771 70.1411 142.993 81.3696 137.424C104.173 126.144 109.055 101.068 109.601 97.9054L105.641 87.535Z" fill="white"/>
</mask>
<g mask="url(#mask1_53_1360)">
<path d="M84.5051 93.2541C84.6548 93.2541 84.7984 93.1947 84.9043 93.0889C85.0102 92.9832 85.0697 92.8397 85.0697 92.6901C85.0697 92.5405 85.0102 92.3971 84.9043 92.2913C84.7984 92.1855 84.6548 92.1261 84.5051 92.1261C84.3553 92.1261 84.2117 92.1855 84.1058 92.2913C83.9999 92.3971 83.9404 92.5405 83.9404 92.6901C83.9404 92.8397 83.9999 92.9832 84.1058 93.0889C84.2117 93.1947 84.3553 93.2541 84.5051 93.2541Z" fill="#F8A3A0"/>
<g opacity="0.15">
<path d="M103.728 90.0919C99.3845 94.0024 96.7195 99.4395 95.1574 104.997C94.3232 108.107 93.6945 111.269 93.2753 114.461C92.8236 117.631 92.3493 120.816 92.1235 124.008C91.875 127.52 92.0369 131.152 93.2715 134.48C93.5764 135.307 94.4309 135.958 95.3531 135.661C96.1662 135.397 96.8588 134.469 96.5351 133.581C96.2816 132.894 96.0692 132.192 95.8989 131.479C95.8161 131.126 95.7446 130.769 95.6843 130.411C95.6542 130.246 95.6317 130.077 95.6015 129.911C95.5714 129.746 95.6015 129.911 95.6015 129.945C95.6015 129.836 95.5752 129.723 95.5601 129.611C95.4027 128.119 95.3637 126.618 95.4434 125.121C95.5112 123.636 95.6618 122.154 95.8387 120.677C95.929 119.925 96.0231 119.199 96.121 118.462C96.1662 118.108 96.2151 117.751 96.2603 117.398C96.2866 117.191 96.3167 116.984 96.3431 116.777C96.3167 116.98 96.3431 116.815 96.3431 116.777C96.3431 116.661 96.3732 116.54 96.392 116.424C96.7798 113.316 97.3402 110.231 98.0708 107.185C98.4246 105.758 98.8505 104.35 99.3469 102.966C99.456 102.673 99.5652 102.384 99.6781 102.094C99.7434 101.926 99.8111 101.757 99.8814 101.587C99.9077 101.515 99.9378 101.444 99.968 101.372C99.904 101.534 99.9266 101.47 99.968 101.346C100.239 100.729 100.525 100.116 100.83 99.5185C101.504 98.1814 102.286 96.9012 103.167 95.6907C103.213 95.6305 103.544 95.1756 103.367 95.4162L103.706 94.9951C103.95 94.6943 104.203 94.4047 104.459 94.1152C104.978 93.5433 105.527 92.9986 106.104 92.4833C106.418 92.164 106.595 91.7339 106.595 91.2857C106.595 90.8376 106.418 90.4075 106.104 90.0882C105.78 89.7808 105.351 89.6094 104.905 89.6094C104.458 89.6094 104.029 89.7808 103.706 90.0882L103.728 90.0919Z" fill="black"/>
</g>
</g>
<path d="M135.378 198.449C136.739 190.052 118.159 180.061 93.8781 176.133C69.5971 172.204 48.8099 175.826 47.4484 184.223C46.087 192.619 64.667 202.611 88.948 206.539C113.229 210.467 134.016 206.845 135.378 198.449Z" fill="#36474F"/>
<path d="M154.269 206.564C178.55 202.635 197.13 192.644 195.768 184.247C194.407 175.851 173.62 172.229 149.339 176.157C125.058 180.086 106.478 190.077 107.839 198.473C109.2 206.87 129.988 210.492 154.269 206.564Z" fill="#36474F"/>
<path d="M81.385 173.946C85.533 159.643 88.856 145.114 91.3374 130.43C95.2371 107.249 95.3199 93.5399 105.408 87.6666C110.64 84.6209 117.235 84.4555 121.97 84.3351C126.111 84.2299 135.69 83.9855 142.376 88.1554C151.786 94.0324 151.56 106.204 155.445 131.671C156.95 141.654 159.506 156.213 163.812 173.946C151.185 180.886 137.007 184.525 122.595 184.525C108.183 184.525 94.0045 180.886 81.3774 173.946H81.385Z" fill="#F6BA6F"/>
<path d="M108.935 63.7863C108.02 60.421 106.823 55.2245 106.676 50.2048C106.631 48.8286 106.654 47.1516 107.805 45.9183C109.161 44.4744 111.28 44.4782 112.055 44.5158C112.097 43.8728 112.383 40.3195 115.164 38.3003C118.307 36.0142 123.415 36.5707 126.988 40.1804C126.77 39.1938 126.924 38.1616 127.42 37.2814C127.891 36.488 128.979 35.3261 130.055 35.5367C131.422 35.8074 131.84 38.1687 131.979 38.9208C132.196 40.1792 132.094 41.4721 131.682 42.6809C132.065 42.3249 132.377 41.8985 132.6 41.425C133.206 40.139 132.758 39.2592 133.225 38.9396C133.838 38.5184 135.574 39.3908 136.334 40.8196C137.185 42.3951 136.518 44.0796 136.334 44.5496C135.741 45.9502 134.626 47.0654 133.225 47.6592L126.826 48.6481L108.935 63.7863Z" fill="#25323B"/>
<path d="M123.246 92.3856C128.196 92.3856 132.209 89.6298 132.209 86.2303C132.209 82.8309 128.196 80.0751 123.246 80.0751C118.296 80.0751 114.284 82.8309 114.284 86.2303C114.284 89.6298 118.296 92.3856 123.246 92.3856Z" fill="#F8A3A0"/>
<path d="M114.287 86.1702H132.208V68.1405H114.287V86.1702Z" fill="#F8A3A0"/>
<mask id="mask2_53_1360" style="mask-type:luminance" maskUnits="userSpaceOnUse" x="114" y="68" width="19" height="19">
<path d="M114.287 86.1664H132.208V68.1367H114.287V86.1664Z" fill="white"/>
</mask>
<g mask="url(#mask2_53_1360)">
<path opacity="0.1" d="M133.206 76.8413C133.112 77.394 132.419 81.1053 129.472 82.4363C126.46 83.7975 123.174 81.7106 121.379 80.5563C119.643 79.4201 118.161 77.9392 117.024 76.2059C115.47 73.9733 114.413 71.435 113.922 68.7609L133.206 76.8413Z" fill="black" stroke="black" stroke-width="4" stroke-miterlimit="10"/>
</g>
<path d="M128.464 80.3269C136.369 78.5285 140.815 68.4613 138.394 57.8412C135.973 47.2212 127.601 40.0698 119.696 41.8683C111.791 43.6667 107.345 53.7339 109.766 64.3539C112.188 74.974 120.559 82.1253 128.464 80.3269Z" fill="#F8A3A0"/>
<mask id="mask3_53_1360" style="mask-type:luminance" maskUnits="userSpaceOnUse" x="109" y="41" width="31" height="40">
<path d="M128.464 80.3231C136.369 78.5247 140.815 68.4575 138.394 57.8375C135.973 47.2174 127.601 40.0661 119.696 41.8645C111.791 43.6629 107.345 53.7301 109.766 64.3502C112.188 74.9702 120.559 82.1216 128.464 80.3231Z" fill="white"/>
</mask>
<g mask="url(#mask3_53_1360)">
<path d="M106.661 61.4738C108.129 62.6243 109.906 63.7298 110.802 63.1658C111.114 62.9628 111.178 62.6544 111.423 61.9212C112.176 59.7892 112.853 59.4734 113.305 58.1912C113.606 57.3038 113.798 55.9615 113.215 54.0551C114.513 53.6076 115.703 52.8936 116.709 51.9592C117.714 51.0247 118.513 49.8905 119.053 48.6293C121.609 49.459 124.365 49.4484 126.915 48.5991C129.465 47.7498 131.675 46.1065 133.221 43.9103L123.886 36.4503L102.103 47.6404L106.661 61.4738Z" fill="#25323B"/>
</g>
<path d="M110.723 68.5427C112.445 67.9221 113.226 65.7134 112.467 63.6095C111.707 61.5056 109.695 60.3031 107.972 60.9237C106.249 61.5444 105.468 63.7531 106.228 65.857C106.987 67.9609 109 69.1634 110.723 68.5427Z" fill="#F8A3A0"/>
<path opacity="0.7" d="M126.261 60.4774C126.946 62.7711 130.025 65.1174 130.025 65.1174C130.025 65.1174 127.94 66.456 127.296 68.1668" stroke="black" stroke-miterlimit="10"/>
<path opacity="0.7" d="M117.652 60.9963C118.695 63.493 120.746 64.5533 121.699 64.1247C122.651 63.696 123.156 61.5979 122.184 59.2742" stroke="black" stroke-miterlimit="10"/>
<path opacity="0.7" d="M128.136 57.1572C129.178 59.6501 131.23 60.7105 132.182 60.2818C133.135 59.8532 133.635 57.7588 132.668 55.4351" stroke="black" stroke-miterlimit="10"/>
<path opacity="0.7" d="M123.212 71.1147C124.552 73.4197 127.352 74.3334 129.558 73.3708C130.491 72.9332 131.266 72.2206 131.78 71.3291C132.294 70.4376 132.523 69.41 132.434 68.3849" stroke="black" stroke-miterlimit="10"/>
<path opacity="0.35" d="M107.041 62.5568C106.598 63.5087 106.544 64.5962 106.891 65.5874C107.128 66.1817 107.498 66.7138 107.973 67.1428C108.448 67.5717 109.015 67.886 109.631 68.0615" stroke="black" stroke-width="0.75" stroke-miterlimit="10"/>
<g opacity="0.7">
<path d="M117.517 57.7851C117.517 57.7851 117.604 57.6648 117.562 57.7174C117.521 57.7701 117.592 57.6798 117.6 57.6723L117.754 57.4994C117.814 57.4392 117.875 57.379 117.939 57.3226L118.018 57.2549C118.097 57.1873 117.995 57.255 118.048 57.2324C118.168 57.141 118.294 57.0569 118.424 56.9805L118.635 56.8752C118.635 56.8752 118.767 56.8188 118.706 56.8413C118.646 56.8639 118.789 56.8113 118.785 56.815C118.93 56.7603 119.079 56.7164 119.23 56.6834L119.459 56.6383C119.553 56.6383 119.328 56.6383 119.489 56.6383H119.591C119.754 56.627 119.917 56.627 120.08 56.6383H120.186C120.25 56.6383 120.107 56.6383 120.212 56.6383L120.468 56.6947C120.613 56.7341 120.767 56.7144 120.898 56.64C121.028 56.5656 121.123 56.4426 121.163 56.298C121.202 56.1534 121.182 55.9991 121.108 55.869C121.033 55.7389 120.91 55.6437 120.765 55.6043C119.983 55.4238 119.164 55.481 118.415 55.7684C117.665 56.0558 117.018 56.5603 116.557 57.2174C116.482 57.3461 116.46 57.4995 116.497 57.6439C116.535 57.7884 116.628 57.9122 116.757 57.9882C116.887 58.0606 117.041 58.0799 117.185 58.0421C117.33 58.0043 117.454 57.9122 117.532 57.7851H117.517Z" fill="black"/>
</g>
<g opacity="0.7">
<path d="M127.898 54.3297C127.898 54.3297 127.989 54.2056 127.947 54.2582C127.906 54.3109 127.977 54.2244 127.985 54.2169C127.992 54.2093 128.087 54.1003 128.139 54.0439C128.192 53.9875 128.26 53.9236 128.324 53.8634L128.403 53.7995C128.482 53.7318 128.38 53.7995 128.433 53.7732C128.553 53.683 128.679 53.6001 128.809 53.525C128.877 53.4874 128.949 53.4498 129.016 53.4197C129.016 53.4197 129.152 53.3596 129.092 53.3821C129.031 53.4047 129.174 53.3558 129.171 53.3558C129.316 53.3023 129.464 53.2584 129.615 53.2242L129.844 53.1828C129.935 53.164 129.713 53.1828 129.875 53.1828H129.976C130.139 53.1697 130.303 53.1697 130.466 53.1828H130.571C130.635 53.1828 130.492 53.1828 130.597 53.1828C130.703 53.1828 130.767 53.2129 130.849 53.2355C130.922 53.2578 130.998 53.2653 131.073 53.2578C131.148 53.2502 131.221 53.2277 131.287 53.1914C131.353 53.1552 131.412 53.1061 131.459 53.0469C131.506 52.9878 131.54 52.9198 131.56 52.8471C131.58 52.7743 131.586 52.6983 131.576 52.6235C131.566 52.5486 131.541 52.4765 131.503 52.4114C131.465 52.3463 131.414 52.2895 131.354 52.2444C131.293 52.1993 131.224 52.1668 131.151 52.1488C130.364 51.9655 129.541 52.0223 128.787 52.312C128.033 52.6016 127.384 53.1106 126.923 53.7732C126.855 53.9008 126.838 54.0497 126.876 54.1895C126.913 54.3293 127.003 54.4494 127.127 54.5252C127.256 54.5968 127.409 54.6161 127.552 54.579C127.696 54.542 127.82 54.4514 127.898 54.3259V54.3297Z" fill="black"/>
</g>
<path d="M55.3444 137.022C55.1971 136.616 54.9663 136.246 54.6669 135.935C52.5552 133.547 49.0207 131.671 49.0207 131.671C45.0081 129.543 43.6417 129.603 42.7985 129.791C42.1737 129.941 41.5262 130.242 41.5526 130.415C41.5789 130.588 42.6517 130.381 43.4346 131.036C43.62 131.188 43.7713 131.378 43.8789 131.592C43.9865 131.806 44.048 132.041 44.0595 132.28C44.0449 132.519 43.9819 132.751 43.8745 132.965C43.7671 133.178 43.6175 133.367 43.4346 133.521C43.0902 133.845 42.6585 134.062 42.1925 134.145C41.7856 134.263 41.3535 134.263 40.9465 134.145C40.6633 134.036 40.4061 133.869 40.1915 133.655C39.9769 133.44 39.8097 133.184 39.7006 132.901C39.5979 132.616 39.5536 132.313 39.5704 132.011C39.5872 131.709 39.6648 131.413 39.7985 131.141C40.7884 130.765 40.9691 130.536 40.9277 130.415C40.875 130.107 39.4597 129.799 38.4396 130.415C37.2727 131.118 37.205 132.671 37.1937 132.901C37.1771 133.282 37.2229 133.663 37.3292 134.029C36.5221 133.928 35.7233 133.77 34.9389 133.555C32.7595 132.961 31.762 132.231 31.5512 132.487C31.3404 132.743 32.353 134.288 33.8775 135.258C34.7591 135.793 35.7212 136.183 36.7269 136.413C35.7755 136.303 34.8464 136.05 33.9716 135.661C32.2513 134.954 31.5399 134.243 31.3818 134.405C31.156 134.642 32.1874 136.54 34.0468 137.721C35.4114 138.537 36.9734 138.965 38.5638 138.958C37.3526 138.984 36.1484 138.768 35.0218 138.323C32.9251 137.544 31.905 136.413 31.7018 136.616C31.4985 136.819 32.4019 138.42 33.8775 139.624C34.9314 140.489 36.0607 140.887 38.3267 141.684C39.9236 142.274 41.5833 142.677 43.2728 142.887C43.4196 142.887 43.6304 142.933 43.9014 142.955C46.1599 143.151 47.6656 142.887 49.4573 142.677C53.5979 142.192 54.825 142.496 55.2503 141.628C55.4461 141.225 55.1638 141.195 55.2503 139.748C55.3369 138.3 55.623 137.856 55.3444 137.022Z" fill="#F8A3A0"/>
<path d="M31.8182 132.649C33.6946 133.542 35.6984 134.14 37.758 134.42C37.935 134.446 38.014 134.172 37.8333 134.149C35.7972 133.875 33.8161 133.287 31.9612 132.404C31.7956 132.325 31.6526 132.57 31.8182 132.649Z" fill="black"/>
<path d="M31.7015 134.641C34.4927 136.286 37.6968 137.097 40.935 136.98C41.1157 136.98 41.1157 136.691 40.935 136.698C37.7457 136.816 34.5896 136.017 31.8408 134.397C31.8083 134.379 31.7699 134.374 31.7339 134.384C31.6979 134.394 31.6673 134.417 31.6488 134.45C31.6303 134.482 31.6255 134.521 31.6354 134.557C31.6453 134.592 31.6691 134.623 31.7015 134.641Z" fill="black"/>
<path d="M31.95 136.871C34.661 138.74 37.9626 139.553 41.2324 139.157C41.4093 139.135 41.4131 138.853 41.2324 138.875C38.0121 139.267 34.7599 138.464 32.093 136.619C31.9425 136.514 31.8032 136.758 31.95 136.864V136.871Z" fill="black"/>
<path d="M40.585 130.073C40.1934 129.939 39.7749 129.903 39.3663 129.969C38.9578 130.035 38.5717 130.2 38.2421 130.45C37.9125 130.7 37.6496 131.027 37.4766 131.403C37.3036 131.779 37.2257 132.191 37.2499 132.604C37.2499 132.784 37.5398 132.784 37.5322 132.604C37.5072 132.234 37.5745 131.864 37.728 131.527C37.8816 131.191 38.1165 130.897 38.4118 130.673C38.707 130.45 39.0534 130.303 39.4196 130.246C39.7857 130.189 40.1604 130.224 40.5097 130.347C40.6828 130.404 40.7581 130.133 40.585 130.077V130.073Z" fill="black"/>
<path d="M47.7105 130.893C45.9414 129.979 43.905 129.204 41.9175 129.889C41.7444 129.949 41.8196 130.22 41.9928 130.159C43.905 129.501 45.8623 130.257 47.5713 131.137C47.7294 131.22 47.8724 130.975 47.7105 130.893Z" fill="black"/>
<path d="M76.3445 188.565C88.1642 186.952 100.167 187.257 111.889 189.467C115.134 190.079 118.346 190.839 121.526 191.746C121.595 191.759 121.667 191.746 121.727 191.708C121.787 191.671 121.831 191.612 121.85 191.544C121.869 191.476 121.861 191.404 121.829 191.341C121.797 191.278 121.742 191.229 121.676 191.205C110.168 187.94 98.2067 186.554 86.2555 187.099C82.8904 187.254 79.5378 187.562 76.1977 188.024C75.8213 188.072 75.9907 188.614 76.3445 188.565Z" fill="#1F3038"/>
<path d="M159.179 186.794C146.58 186.364 133.992 187.916 121.876 191.393C118.468 192.373 115.114 193.501 111.814 194.777C111.479 194.905 111.622 195.454 111.965 195.318C117.766 193.066 123.736 191.275 129.818 189.96C135.991 188.629 142.259 187.787 148.564 187.441C152.1 187.25 155.638 187.214 159.179 187.332C159.555 187.332 159.555 186.779 159.179 186.768V186.794Z" fill="#1F3038"/>
<path d="M107.945 27.2382H105.679C104.814 27.2382 104.113 27.9385 104.113 28.8024V40.594C104.113 41.4579 104.814 42.1582 105.679 42.1582H107.945C108.81 42.1582 109.511 41.4579 109.511 40.594V28.8024C109.511 27.9385 108.81 27.2382 107.945 27.2382Z" fill="#04CFAE"/>
<path d="M99.4341 33.6528V35.9164C99.4341 36.7803 100.135 37.4806 101 37.4806H112.804C113.669 37.4806 114.37 36.7803 114.37 35.9164V33.6528C114.37 32.7889 113.669 32.0886 112.804 32.0886H101C100.135 32.0886 99.4341 32.7889 99.4341 33.6528Z" fill="#04CFAE"/>
<path d="M123.272 20.3986H121.492C120.741 20.3986 120.133 21.0063 120.133 21.756V31.4758C120.133 32.2255 120.741 32.8332 121.492 32.8332H123.272C124.023 32.8332 124.631 32.2255 124.631 31.4758V21.756C124.631 21.0063 124.023 20.3986 123.272 20.3986Z" fill="#04CFAE"/>
<path d="M116.233 25.798V27.5766C116.233 28.3262 116.842 28.934 117.592 28.934H127.323C128.073 28.934 128.681 28.3262 128.681 27.5766V25.798C128.681 25.0484 128.073 24.4406 127.323 24.4406H117.592C116.842 24.4406 116.233 25.0484 116.233 25.798Z" fill="#04CFAE"/>
<path d="M111.554 11.6938H110.222C109.658 11.6938 109.202 12.1501 109.202 12.7128V19.9999C109.202 20.5627 109.658 21.0189 110.222 21.0189H111.554C112.118 21.0189 112.574 20.5627 112.574 19.9999V12.7128C112.574 12.1501 112.118 11.6938 111.554 11.6938Z" fill="#04CFAE"/>
<path d="M106.281 15.751V17.0821C106.281 17.6449 106.737 18.1011 107.301 18.1011H114.596C115.159 18.1011 115.616 17.6449 115.616 17.0821V15.751C115.616 15.1882 115.159 14.732 114.596 14.732H107.301C106.737 14.732 106.281 15.1882 106.281 15.751Z" fill="#04CFAE"/>
<g opacity="0.1">
<path d="M124.894 204.576C133.917 205.682 143.048 205.586 152.045 204.29C160.99 203.011 169.731 200.578 178.048 197.052C182.728 195.069 187.251 192.738 191.58 190.077C192.198 189.701 191.629 188.723 191.008 189.103C183.348 193.807 175.096 197.474 166.47 200.007C157.847 202.544 148.929 203.945 139.944 204.177C134.913 204.301 129.88 204.05 124.887 203.425C124.168 203.339 124.172 204.467 124.887 204.553L124.894 204.576Z" fill="white"/>
</g>
<g opacity="0.05">
<path d="M50.308 184.955C54.3056 180.646 60.1174 178.887 65.7411 177.958C67.5403 177.665 69.3546 177.443 71.1652 177.206C71.8766 177.119 71.8879 175.988 71.1652 176.078C64.9995 176.83 58.5666 177.638 53.2177 181.06C51.8533 181.926 50.6038 182.961 49.4987 184.139C49.0056 184.673 49.8036 185.474 50.2967 184.94L50.308 184.955Z" fill="white"/>
</g>
</g>
<defs>
<clipPath id="clip0_53_1360">
<rect width="238" height="259.371" fill="white"/>
</clipPath>
</defs>
</svg>
