<svg width="33" height="32" viewBox="0 0 33 32" fill="none" xmlns="http://www.w3.org/2000/svg">
<path d="M16.4999 0.899902C7.8848 0.899902 0.899902 7.8848 0.899902 16.4999C0.899902 23.8098 5.9335 29.9263 12.7195 31.6189C12.6467 31.4083 12.5999 31.1639 12.5999 30.861V28.1947C11.9668 28.1947 10.906 28.1947 10.6395 28.1947C9.5722 28.1947 8.6232 27.7358 8.163 26.883C7.6521 25.9353 7.5637 24.4858 6.2975 23.5992C5.9218 23.3041 6.2078 22.9674 6.6407 23.0129C7.4402 23.2391 8.1032 23.7877 8.7272 24.6015C9.3486 25.4166 9.6411 25.6012 10.802 25.6012C11.3649 25.6012 12.2073 25.5687 13.0003 25.4439C13.4267 24.361 14.1638 23.3639 15.0647 22.8933C9.8699 22.359 7.3908 19.7746 7.3908 16.2659C7.3908 14.7553 8.0343 13.2941 9.1276 12.063C8.7688 10.841 8.3177 8.3489 9.2654 7.3999C11.6028 7.3999 13.0159 8.9157 13.3552 9.3252C14.52 8.9261 15.7992 8.6999 17.1434 8.6999C18.4902 8.6999 19.7746 8.9261 20.942 9.3278C21.2774 8.9209 22.6918 7.3999 25.0344 7.3999C25.986 8.3502 25.5297 10.8527 25.167 12.0721C26.2538 13.3006 26.8934 14.7579 26.8934 16.2659C26.8934 19.772 24.4182 22.3551 19.2312 22.892C20.6586 23.6369 21.6999 25.7299 21.6999 27.3068V30.861C21.6999 30.9962 21.67 31.0937 21.6544 31.2094C27.7332 29.0787 32.0999 23.3067 32.0999 16.4999C32.0999 7.8848 25.115 0.899902 16.4999 0.899902Z" fill="#DCE2EB"/>
</svg>
