<svg width="32" height="32" viewBox="0 0 32 32" fill="none" xmlns="http://www.w3.org/2000/svg">
<path d="M15.9999 0.360107C24.6379 0.360107 31.6399 7.36207 31.6399 16.0001C31.6399 24.6381 24.6379 31.6401 15.9999 31.6401C7.36182 31.6401 0.359863 24.6381 0.359863 16.0001C0.359863 7.36207 7.36182 0.360107 15.9999 0.360107ZM21.395 22.3751C21.6826 21.4925 23.0304 12.696 23.197 10.9627C23.2473 10.4377 23.0814 10.0889 22.7563 9.93315C22.3633 9.74411 21.7812 9.83863 21.106 10.0821C20.1798 10.4159 8.33966 15.4432 7.65558 15.7342C7.00686 16.0096 6.3935 16.3102 6.3935 16.7454C6.3935 17.0514 6.57506 17.2234 7.07554 17.4023C7.59642 17.5879 8.90814 17.9857 9.68266 18.1992C10.4286 18.4053 11.2779 18.2264 11.7539 17.9306C12.2585 17.6171 18.0813 13.7207 18.4995 13.3794C18.9171 13.038 19.2503 13.4753 18.9089 13.8173C18.5675 14.1587 14.5705 18.0381 14.0435 18.5753C13.4036 19.2274 13.8579 19.9033 14.2869 20.1739C14.7772 20.4827 18.303 22.8477 18.8341 23.2271C19.3652 23.6066 19.9037 23.7786 20.3967 23.7786C20.8897 23.7786 21.1495 23.1292 21.395 22.3751Z" fill="#DCE2EB"/>
</svg>
