<svg id="Слой_1" data-name="Слой 1" xmlns="http://www.w3.org/2000/svg" xmlns:xlink="http://www.w3.org/1999/xlink" viewBox="0 0 231.71 327.39"><defs><style>.cls-1{fill:#fff;}.cls-2{fill:#6da9e4;}.cls-3{fill:#36474f;}.cls-4{mask:url(#mask);}.cls-5{opacity:0.15;}.cls-6{fill:#c35a2b;}.cls-7{mask:url(#mask-2);}.cls-14,.cls-8{opacity:0.1;}.cls-9{fill:#f6ba6f;}.cls-10{mask:url(#mask-3);}.cls-11{mask:url(#mask-4);}.cls-12{fill:#f8a3a0;}.cls-13{mask:url(#mask-5);}.cls-14,.cls-16,.cls-17{stroke:#000;isolation:isolate;}.cls-14,.cls-16,.cls-17,.cls-23{stroke-miterlimit:10;}.cls-14{stroke-width:4px;}.cls-15{mask:url(#mask-6);}.cls-16,.cls-17,.cls-23{fill:none;}.cls-16{opacity:0.7;}.cls-17{stroke-width:0.75px;opacity:0.35;}.cls-18{mask:url(#mask-7);}.cls-19{mask:url(#mask-8);}.cls-20{mask:url(#mask-9);}.cls-21{mask:url(#mask-10);}.cls-22{fill:#dbdbdb;}.cls-23{stroke:#fff;}.cls-24{mask:url(#mask-11);}.cls-25{fill:#b01036;}</style><mask id="mask" x="14.87" y="99.59" width="216.84" height="224.43" maskUnits="userSpaceOnUse"><g transform="translate(0 0)"><g id="mask0_53_1109" data-name="mask0 53 1109"><path class="cls-1" d="M99.19,175.23A472.31,472.31,0,0,1,112,243.79a478.21,478.21,0,0,1,2.69,69.46h23.62a262.24,262.24,0,0,0,6.74-75.69,260.42,260.42,0,0,0-10.8-60.85Z"/></g></g></mask><mask id="mask-2" x="13.63" y="46.23" width="107.81" height="135.96" maskUnits="userSpaceOnUse"><g transform="translate(0 0)"><g id="mask1_53_1109" data-name="mask1 53 1109"><path class="cls-1" d="M114,47.67c-3.85-2.24-8.93-1.57-13.38-.05-5,1.72-10,4.07-13.58,8-4.15,4.62-5.87,10.85-8,16.68-5.26,14.39-14.84,28.42-29.34,33.32-6.11,2.07-12.78,2.4-18.7,5-9.31,4.09-15.63,13.64-17,23.75s1.75,20.47,7.41,28.93a43.15,43.15,0,0,0,18.47,15.91,39.25,39.25,0,0,0,28.82.47c20.58-7.62,31.66-30.8,39.29-49.87a188.59,188.59,0,0,0,12.27-46.07c1.27-10,2.86-23.48-2.69-32.56A10.06,10.06,0,0,0,114,47.67Z"/></g></g></mask><mask id="mask-3" x="71.97" y="93.41" width="79.64" height="111.71" maskUnits="userSpaceOnUse"><g transform="translate(0 0)"><g id="mask2_53_1109" data-name="mask2 53 1109"><path class="cls-1" d="M72,191.44A80.36,80.36,0,0,0,77.61,159c-.72-16.85-6.84-23.56-3.37-37.16C75,119,77.83,108.4,87.62,100.9,98.85,92.32,115,91,127.77,97.53c2.53,1.3,13.82,7.47,18,20.27,4.65,14.25-4.14,22.63-6.07,43.23-.79,8.35-.67,21,4.76,37.17A84,84,0,0,1,72,191.45Z"/></g></g></mask><mask id="mask-4" x="118.08" y="96.87" width="44.82" height="57.43" maskUnits="userSpaceOnUse"><g transform="translate(0 0)"><g id="mask3_53_1109" data-name="mask3 53 1109"><path class="cls-1" d="M124.83,96.87a70.45,70.45,0,0,1,19.79,13.88A61.44,61.44,0,0,1,159.92,134a57.66,57.66,0,0,1,2.69,10.82,16.51,16.51,0,0,1-9.46,8.1c-8.63,2.7-15.68-3.54-16-3.83l-19.06-50.9Z"/></g></g></mask><mask id="mask-5" x="97.23" y="72.01" width="25.79" height="22.16" maskUnits="userSpaceOnUse"><g transform="translate(0 0)"><g id="mask4_53_1109" data-name="mask4 53 1109"><path class="cls-1" d="M100.27,94.17H119.7V74.58H100.27Z"/></g></g></mask><mask id="mask-6" x="86.19" y="41.1" width="41.33" height="46.7" maskUnits="userSpaceOnUse"><g transform="translate(0 0)"><g id="mask5_53_1109" data-name="mask5 53 1109"><path class="cls-1" d="M118.12,87.08c8.27-3,11.74-14.41,7.75-25.55s-13.94-17.75-22.21-14.78S91.92,61.16,95.91,72.3,109.84,90.06,118.12,87.08Z"/></g></g></mask><mask id="mask-7" x="55.05" y="97.54" width="44.81" height="57.41" maskUnits="userSpaceOnUse"><g transform="translate(0 0)"><g id="mask6_53_1109" data-name="mask6 53 1109"><path class="cls-1" d="M93.12,97.55a70.43,70.43,0,0,0-19.8,13.88A61.16,61.16,0,0,0,58,134.7a57.49,57.49,0,0,0-2.7,10.82,16.52,16.52,0,0,0,9.45,8.1c8.63,2.71,15.68-3.53,16-3.83L99.87,98.91Z"/></g></g></mask><mask id="mask-8" x="20.24" y="139.44" width="60.26" height="54.7" maskUnits="userSpaceOnUse"><g transform="translate(0 0)"><g id="mask7_53_1109" data-name="mask7 53 1109"><path class="cls-1" d="M73.55,140.77c-2.19-2.2-7.22-1.43-10.38.63a10.6,10.6,0,0,0-3.54,3.81,82.17,82.17,0,0,1-39.38,39.47l8.09,9.46a87.7,87.7,0,0,0,27-15.52,67.39,67.39,0,0,0,18-27.74C75.1,145.33,75.14,142.35,73.55,140.77Z"/></g></g></mask><mask id="mask-9" x="138.49" y="138.24" width="59.21" height="55.22" maskUnits="userSpaceOnUse"><g transform="translate(0 0)"><g id="mask8_53_1109" data-name="mask8 53 1109"><path class="cls-1" d="M143.72,139.42c2.18-2.19,7.63-1.08,11.05,1.31a11.52,11.52,0,0,1,3.55,3.8A82.19,82.19,0,0,0,197.7,184l-8.1,9.45a87.3,87.3,0,0,1-27-15.52,76.21,76.21,0,0,1-18-27.74C142.29,143.81,142.27,140.89,143.72,139.42Z"/></g></g></mask><mask id="mask-10" x="53.77" y="310.34" width="35.32" height="17.04" maskUnits="userSpaceOnUse"><g transform="translate(0 0)"><g id="mask9_53_1109" data-name="mask9 53 1109"><path class="cls-1" d="M85,327.2H55.4c-.33,0-.84.14-.73-.42a23.85,23.85,0,0,1,4.92-10.61,15.86,15.86,0,0,1,9.19-5.61A12.11,12.11,0,0,1,77.15,312a11.89,11.89,0,0,1,1.79,1.28h7.43Q85.7,320.22,85,327.2Z"/></g></g></mask><mask id="mask-11" x="111.99" y="308.35" width="44.4" height="18.98" maskUnits="userSpaceOnUse"><g transform="translate(0 0)"><g id="mask10_53_1109" data-name="mask10 53 1109"><path class="cls-1" d="M114.71,313.11H128.1a3.12,3.12,0,0,1,.5-1.19c.83-1.13,2.26-1.12,3.29-1.17a30.82,30.82,0,0,1,6.58.35,17.79,17.79,0,0,1,6.61,2.48c.46.3.91.61,1.33.94a15.5,15.5,0,0,1,5.38,8.53c.12.56.15,1.17.3,1.72a11.51,11.51,0,0,1,.2,2.11,1.62,1.62,0,0,0,0,.31,3.86,3.86,0,0,1-.68,0H114.71"/></g></g></mask></defs><path class="cls-2" d="M59.65,66.69c-15.76,7.74-30.8,16.93-42.94,30C10.45,103.44,5,111.28,2.41,120.24-1,131.91,2.15,143.88,7,154.67c6.52,14.47,13.7,28.08,15.13,44.18,1.41,15.86,2.5,32.14,7.31,47.44A90.88,90.88,0,0,0,65,293.93c19.18,12.93,41.52,11.24,63.13,8.29,19.12-2.61,47.63-2.35,55.46-25.13,2.26-6.58,1.87-14,.05-20.78-3.84-14.52-13.51-26.56-17.43-41a53.83,53.83,0,0,1,4.94-39.34c11.8-21.62,38-28.49,33-58.45C202,104.63,194.93,93.15,186.9,83c-9.07-11.41-19.74-21.68-32.37-28.55C131.62,42,105.85,46.17,83.19,56,75.33,59.4,67.41,62.86,59.65,66.69Z" transform="translate(0 0)"/><path class="cls-3" d="M99.19,175.23A472.31,472.31,0,0,1,112,243.79a478.21,478.21,0,0,1,2.69,69.46h23.62a262.24,262.24,0,0,0,6.74-75.69,260.42,260.42,0,0,0-10.8-60.85Z" transform="translate(0 0)"/><g class="cls-4"><g class="cls-5"><path d="M16.05,251.33C17,259.15,18,267,19.1,274.75c-.39,2.91-.7,5.83-1,8.37-.56,4.19-1.48,9.41-1.83,14.06a32.84,32.84,0,0,0,0,4.09,68.91,68.91,0,0,0,2.73,22.56c16.78.63,33.6-1.43,50.41-1.15,18.78.31,37.56-.2,56.34.12q15.22.26,30.45.6a83.51,83.51,0,0,1,25.29.57l2.44,0,1.43,0c5.83,0,11.65-.13,17.47-.45,1.73-.16,3.45-.34,5.18-.58,4-.58,8.48-2,12.9-2.82A91.4,91.4,0,0,0,231.63,277a276.15,276.15,0,0,0-.78-28.48q-.56-7.11-1.49-14.15c-1.36-10.38-2.62-20.79-4.23-31.14q-.56-3.52-1.2-7.05-1.44-7.83-3.33-15.56l-2-4.72A69.2,69.2,0,0,0,213,161.49,68.78,68.78,0,0,0,194,132L175.48,117.6a67.86,67.86,0,0,0-20.72-9c-1-.38-2-.74-3-1.07a69,69,0,0,0-35.31-7.91L92.07,103a91.45,91.45,0,0,0-40.44,23.59l-4.1,5.31-2.6,2a91.7,91.7,0,0,0-23.56,40.46l0,0q-.59,2.85-1.05,5.73c-1.63,9.93-2.82,20-4.09,29.93q-.75,5.79-1.09,11.63a165.75,165.75,0,0,0,.24,23.16C15.58,247,15.79,249.17,16.05,251.33Z" transform="translate(0 0)"/></g><g class="cls-5"><path class="cls-1" d="M138.21,198.42q1.08,6,1.91,12c0,.23.07.47.09.7s0,.23,0,.35c0,0,0-.23,0,0l.2,1.52c.13,1,.25,2,.37,3,.24,2,.45,4,.64,5.95q1.17,12.06,1.38,24.16t-.56,24.08q-.37,6-1,11.94c-.41,4-.9,7.93-1.44,11.68q-1.73,11.93-4.4,23.67c-.23,1-.47,2-.7,3A2.2,2.2,0,0,0,135,322a2.08,2.08,0,0,0,1.28,1,2.11,2.11,0,0,0,1.61-.2,2.07,2.07,0,0,0,1-1.28q2.82-11.82,4.68-23.85,1.88-12.19,2.79-24.47t.8-24.3q-.09-12.1-1.15-24.17-1.08-12.28-3.15-24.47c-.16-1-.34-2-.52-3a2.12,2.12,0,0,0-2.6-1.49,2.26,2.26,0,0,0-1.26,1,2.23,2.23,0,0,0-.22,1.6Z" transform="translate(0 0)"/></g></g><path class="cls-3" d="M82.5,186.66A436.68,436.68,0,0,0,60.06,313.3l28.33-.06a396,396,0,0,1,12.35-52c4.7-15,8.46-23.65,12.05-39.81a242,242,0,0,0,5.29-36.92Z" transform="translate(0 0)"/><path class="cls-6" d="M114,47.67c-3.85-2.24-8.93-1.57-13.38-.05-5,1.72-10,4.07-13.58,8-4.15,4.62-5.87,10.85-8,16.68-5.26,14.39-14.84,28.42-29.34,33.32-6.11,2.07-12.78,2.4-18.7,5-9.31,4.09-15.63,13.64-17,23.75s1.75,20.47,7.41,28.93a43.15,43.15,0,0,0,18.47,15.91,39.25,39.25,0,0,0,28.82.47c20.58-7.62,31.66-30.8,39.29-49.87a188.59,188.59,0,0,0,12.27-46.07c1.27-10,2.86-23.48-2.69-32.56A10.06,10.06,0,0,0,114,47.67Z" transform="translate(0 0)"/><g class="cls-7"><g class="cls-8"><path d="M100.13,94.65a55.87,55.87,0,0,0-44.42,48.84,2.83,2.83,0,0,0,.83,2,2.81,2.81,0,0,0,4.81-2c0-.25.06-.51.1-.77.06-.51,0,.11,0,.17,0-.13,0-.26.06-.38.08-.58.18-1.16.28-1.74.19-1.05.41-2.09.67-3.13a53.47,53.47,0,0,1,1.93-6.23c.19-.47.38-1,.58-1.45,0-.15.16-.5-.06.13a3.68,3.68,0,0,1,.15-.35l.36-.8c.44-1,.91-1.94,1.41-2.89a51.61,51.61,0,0,1,3.38-5.57c.3-.43.6-.85.91-1.27.15-.21.31-.41.47-.62s-.32.41-.08.11q.13-.2.3-.39,1-1.29,2.13-2.52a52.27,52.27,0,0,1,4.52-4.41c.38-.33.77-.66,1.17-1l.59-.47.3-.24c-.62.37-.1.08,0,0,.84-.64,1.7-1.25,2.57-1.83a52.84,52.84,0,0,1,5.52-3.25c1.06-.53,2.13-1,3.21-1.5l-.15.06.44-.18.9-.35,1.61-.59a53,53,0,0,1,7-1.94,2.84,2.84,0,0,0,2-3.47,3,3,0,0,0-1.34-1.68A2.88,2.88,0,0,0,100.13,94.65Z" transform="translate(0 0)"/></g></g><path class="cls-9" d="M72,191.44A80.36,80.36,0,0,0,77.61,159c-.72-16.85-6.84-23.56-3.37-37.16C75,119,77.83,108.4,87.62,100.9,98.85,92.32,115,91,127.77,97.53c2.53,1.3,13.82,7.47,18,20.27,4.65,14.25-4.14,22.63-6.07,43.23-.79,8.35-.67,21,4.76,37.17A84,84,0,0,1,72,191.45Z" transform="translate(0 0)"/><g class="cls-10"><g class="cls-5"><path class="cls-1" d="M141.5,151.87c-3.43,6.38-3.38,13.83-3,20.87q.28,5.81,1,11.56a63.78,63.78,0,0,0,2.08,11.24c1.19,3.76,3.36,7.33,6.86,9.31a2.13,2.13,0,0,0,1.6.2,2.08,2.08,0,0,0,1.27-1,2.1,2.1,0,0,0,.22-1.59,2.13,2.13,0,0,0-.95-1.29c-.33-.18-.63-.38-.94-.58-.5-.33.29.26-.16-.12l-.42-.37c-.26-.25-.53-.51-.77-.78l-.25-.28-.23-.29c.14.19.14.18,0,0a15.44,15.44,0,0,1-2-3.83,54,54,0,0,1-2.07-10.4c.05.39-.05-.36-.05-.34,0-.19,0-.38-.08-.57-.05-.42-.1-.84-.14-1.25-.12-1-.23-2-.32-3-.17-1.75-.31-3.51-.41-5.27a84,84,0,0,1-.13-10.28q0-.71.12-1.41c0-.2,0-.4.06-.61s.08-.62,0-.25c.13-.93.3-1.86.52-2.78s.46-1.69.75-2.51c.07-.19.14-.38.22-.56s.1-.25,0-.06l.16-.37c.19-.43.4-.85.63-1.27a2.13,2.13,0,0,0-.76-2.9,2.11,2.11,0,0,0-2.9.77Z" transform="translate(0 0)"/></g></g><path class="cls-9" d="M124.83,96.87a70.45,70.45,0,0,1,19.79,13.88A61.44,61.44,0,0,1,159.92,134a57.66,57.66,0,0,1,2.69,10.82,16.51,16.51,0,0,1-9.46,8.1c-8.63,2.7-15.68-3.54-16-3.83l-19.06-50.9Z" transform="translate(0 0)"/><g class="cls-11"><path d="M162.6,144.58a12.54,12.54,0,0,0-3.24-1.75,1.59,1.59,0,0,0-.74-.18,1.7,1.7,0,0,0-.74.2,1.25,1.25,0,0,0-.44.62,1.23,1.23,0,0,0,0,.76c.32,1,1.41,1.31,2.28,1.71.67.31.88,1.13,1,1.79s1.35.59,1.38-.19.08-1.67.12-2.51a.71.71,0,0,0-1.39-.19,4.63,4.63,0,0,1-1.51,2.2l1.18.68c.28-.71-.34-1.35-.89-1.73s-1.36-.28-1.44.47a2.48,2.48,0,0,0,.21.94,1.47,1.47,0,0,1-.11,1.07,2.77,2.77,0,0,1-1.81,1.41,10.94,10.94,0,0,1-3,.08,21.68,21.68,0,0,0-3.12.08,33.9,33.9,0,0,0-4.79,1,7.89,7.89,0,0,1-2.69.33,1.26,1.26,0,0,1-.28,0c-.15,0-.08,0-.12,0s0,0,0,0a.2.2,0,0,1,0-.11.45.45,0,0,1,0-.11l-1.06.61,3.08,1.47c.43.2,1.14,0,1.07-.61-.11-.83-.22-1.67-.32-2.5a2.89,2.89,0,0,0-.52-1.8,1.47,1.47,0,0,0-.79-.36,1.43,1.43,0,0,0-.86.16,3,3,0,0,0-1.23,1.53c-.39.86-.18,2.46,1.14,2.16a1.9,1.9,0,0,0,1.1-2.72c-.37-.83-1.58-.12-1.22.71,0-.1,0,0,0,0a.55.55,0,0,1,0,.31c0,.06-.15.19-.15.22s-.06.12.13.16.21.18.18.09.11-.47.1-.44a2.73,2.73,0,0,1,.44-.71c.2-.21.14-.13.18.1s.09.67.12,1c.09.69.17,1.37.26,2l1.06-.61-3-1.47a.7.7,0,0,0-.35-.09.74.74,0,0,0-.35.1.65.65,0,0,0-.26.26.67.67,0,0,0-.1.34c-.08,2.94,4.59,1.42,6.06,1a20.77,20.77,0,0,1,6.23-.67c1.88.07,3.87.24,5.33-1.16a3.51,3.51,0,0,0,1.14-2.33,2.5,2.5,0,0,0-.25-1.26c-.15-.25.21-.38-.42.18s-.41.16-.27.43a1.07,1.07,0,0,0,.16.14l.13.14c.09.1.07,0-.06-.17-.28.73.7,1.09,1.18.69a6.1,6.1,0,0,0,1.88-2.82l-1.41-.19-.12,2.51,1.41-.18a3.65,3.65,0,0,0-2.1-2.83,4.22,4.22,0,0,1-1-.49.52.52,0,0,1-.2-.19c-.25.15-.26.24,0,.26a2.1,2.1,0,0,0,.58.21,11.6,11.6,0,0,1,2.5,1.46c.73.55,1.44-.68.72-1.22Z" transform="translate(0 0)"/><path d="M144.69,153.46l.22.5a.66.66,0,0,0,.18.19.57.57,0,0,0,.53.13.42.42,0,0,0,.26-.08l.14-.11a.65.65,0,0,0,.18-.31l0-.19a.75.75,0,0,0-.1-.36l-.22-.47a.58.58,0,0,0-.19-.19.44.44,0,0,0-.24-.13.45.45,0,0,0-.28,0,.5.5,0,0,0-.26.08l-.14.12a.61.61,0,0,0-.18.31l0,.18a.65.65,0,0,0,.1.36Z" transform="translate(0 0)"/><path d="M141.66,151.05l-.14.33a.42.42,0,0,0-.08.26.48.48,0,0,0,0,.29.51.51,0,0,0,.12.23.72.72,0,0,0,.2.19l.17.07a.81.81,0,0,0,.38,0l.17-.07a.78.78,0,0,0,.25-.26l.14-.33a.78.78,0,0,0,.08-.54.56.56,0,0,0-.13-.24.49.49,0,0,0-.2-.18l-.17-.07a.59.59,0,0,0-.37,0l-.17.07a.78.78,0,0,0-.26.25Z" transform="translate(0 0)"/><path d="M145.35,148.55l.06-.11a.47.47,0,0,0,.08-.26.45.45,0,0,0,0-.28.55.55,0,0,0-.12-.24.49.49,0,0,0-.2-.18l-.17-.08a.77.77,0,0,0-.37,0l-.17.08a.6.6,0,0,0-.25.25l-.06.11a.62.62,0,0,0-.09.26.66.66,0,0,0,0,.28.84.84,0,0,0,.33.43l.17.07a.77.77,0,0,0,.37,0l.17-.07A.63.63,0,0,0,145.35,148.55Z" transform="translate(0 0)"/><path d="M144.69,148.85a.7.7,0,0,0,.5-.2.74.74,0,0,0,.2-.5.7.7,0,0,0-.2-.5.71.71,0,0,0-1.21.5.75.75,0,0,0,.21.5A.7.7,0,0,0,144.69,148.85Z" transform="translate(0 0)"/><path class="cls-9" d="M160.94,136.32a2.49,2.49,0,0,1,.5,1.54,3.22,3.22,0,0,0,.39,1.58" transform="translate(0 0)"/></g><path class="cls-12" d="M110,100.92c5.37,0,9.72-3,9.72-6.69s-4.35-6.68-9.72-6.68-9.71,3-9.71,6.68S104.62,100.92,110,100.92Z" transform="translate(0 0)"/><path class="cls-12" d="M100.27,94.17H119.7V74.58H100.27Z" transform="translate(0 0)"/><g class="cls-13"><path class="cls-14" d="M120.78,84c-.1.61-.85,4.64-4,6.08s-6.83-.78-8.77-2a16.14,16.14,0,0,1-4.72-4.7,20.84,20.84,0,0,1-3.38-8.1Z" transform="translate(0 0)"/></g><path class="cls-12" d="M118.12,87.09c8.27-3,11.74-14.41,7.75-25.55s-13.94-17.76-22.21-14.79S91.92,61.17,95.91,72.3,109.84,90.06,118.12,87.09Z" transform="translate(0 0)"/><g class="cls-15"><path class="cls-6" d="M125.71,54.28c-.67.34-7.31,3.58-14.27,0a16.25,16.25,0,0,1-8.23-11l19.21.55Z" transform="translate(0 0)"/><path class="cls-6" d="M93.88,63.62a16.16,16.16,0,0,0,9.87-5.49,15.7,15.7,0,0,0,3.34-7.2l-3.87-9.83-17,14.3Z" transform="translate(0 0)"/></g><path class="cls-12" d="M96.41,76.36c1.86-.67,2.71-3.07,1.89-5.36s-3-3.59-4.88-2.91-2.71,3.07-1.89,5.36S94.54,77,96.41,76.36Z" transform="translate(0 0)"/><path class="cls-16" d="M112.69,65.35c.88,2.07,3.8,3.83,3.8,3.83a7.41,7.41,0,0,0-1.9,3.29" transform="translate(0 0)"/><path class="cls-16" d="M102.21,66.47c1.65,2.7,4.22,3.56,5.24,2.88s1.22-3.18-.32-5.7" transform="translate(0 0)"/><path class="cls-16" d="M113.62,60.12c1.66,2.7,4.23,3.56,5.24,2.89s1.22-3.19-.32-5.7" transform="translate(0 0)"/><path class="cls-16" d="M110.47,77.17a6,6,0,0,0,7.74,1.46,5.91,5.91,0,0,0,2.41-6.3" transform="translate(0 0)"/><path class="cls-17" d="M92.41,69.86a4.44,4.44,0,0,0-.16,3.3,4.56,4.56,0,0,0,3,2.67" transform="translate(0 0)"/><path class="cls-9" d="M93.12,97.55a70.43,70.43,0,0,0-19.8,13.88A61.16,61.16,0,0,0,58,134.7a57.49,57.49,0,0,0-2.7,10.82,16.52,16.52,0,0,0,9.45,8.1c8.63,2.71,15.68-3.53,16-3.83L99.87,98.91Z" transform="translate(0 0)"/><g class="cls-18"><path d="M56.07,146.47a13,13,0,0,1,1.73-1.1c.29-.14.58-.28.87-.4.12-.05.39-.08.47-.18l.15,0q-.09-.37-.21-.18c-.15,0-.52.54-.64.67l-.82.82L56,147.72l1.2.5-.11-2.52-1.39.19a6,6,0,0,0,1.88,2.82c.47.4,1.46,0,1.17-.69-.5-.12-.73,0-.7.32v.23a2.91,2.91,0,0,0,.06.6,3.06,3.06,0,0,0,.36.94A3.89,3.89,0,0,0,60,151.55c1.64.84,3.51.5,5.28.47a21.24,21.24,0,0,1,5.55.72c1.75.47,3.45,1,5.17.18.73-.34.22-1.53-.54-1.29l-2.66.86.89.68c.12-1,.23-2,.37-2.95,0-.12.08-.32,0-.31.16,0,.27.21.35.33a3,3,0,0,1,.27.47.77.77,0,0,1,.12.36c.12-.08.2,0,.23.08-.07-.89-1.48-.91-1.41,0a1.31,1.31,0,0,0,2.07,1c1-.78.34-2.19-.28-3a1.52,1.52,0,0,0-2.55,0,5.31,5.31,0,0,0-.32,1.81l-.27,2.16a.78.78,0,0,0,.07.31.64.64,0,0,0,.21.25.59.59,0,0,0,.29.13.69.69,0,0,0,.32,0l2.67-.87-.54-1.29a4.08,4.08,0,0,1-2.82,0c-.91-.24-1.84-.5-2.78-.69a26.82,26.82,0,0,0-6.07-.36,6.42,6.42,0,0,1-2.82-.31,2.29,2.29,0,0,1-.89-.64,2.25,2.25,0,0,1-.47-1c0-.7.07-1.58-.86-1.75a1.14,1.14,0,0,0-.55,0,1,1,0,0,0-.45.32,1.13,1.13,0,0,0-.24.49,1.18,1.18,0,0,0,.05.56l1.18-.69a4.67,4.67,0,0,1-1.51-2.2.71.71,0,0,0-1.39.18l.12,2.52a.72.72,0,0,0,.13.38.7.7,0,0,0,.31.26.72.72,0,0,0,.76-.14l2.45-2.49c.59-.61,1.49-1.39,1-2.33s-1.66-.47-2.41-.17a13,13,0,0,0-2.68,1.59c-.71.54,0,1.77.72,1.22Z" transform="translate(0 0)"/><path d="M72.05,153.43l-.22.47a.5.5,0,0,0-.08.26.48.48,0,0,0,0,.29.55.55,0,0,0,.12.24.86.86,0,0,0,.2.18l.17.07a.81.81,0,0,0,.38,0l.17-.07a.78.78,0,0,0,.25-.26l.22-.47a.62.62,0,0,0,.09-.26.66.66,0,0,0,0-.28.6.6,0,0,0-.13-.25.52.52,0,0,0-.19-.17l-.17-.07a.62.62,0,0,0-.38,0l-.17.07a.75.75,0,0,0-.25.25Z" transform="translate(0 0)"/><path d="M75.07,152.44l.14.33a.41.41,0,0,0,.18.19.47.47,0,0,0,.24.13.81.81,0,0,0,.55-.07l.14-.11a.69.69,0,0,0,.18-.31l0-.19a.73.73,0,0,0-.09-.35l-.15-.34a.68.68,0,0,0-.18-.2.55.55,0,0,0-.24-.12.45.45,0,0,0-.28,0,.54.54,0,0,0-.26.09l-.15.11a.79.79,0,0,0-.18.31l0,.18a.65.65,0,0,0,.1.36Z" transform="translate(0 0)"/><path d="M73.81,148.51l-.06-.11a.39.39,0,0,0-.18-.2.56.56,0,0,0-.24-.13.66.66,0,0,0-.28,0,.51.51,0,0,0-.26.09l-.14.11a.61.61,0,0,0-.18.31l0,.19a.64.64,0,0,0,.1.35l0,.11a.61.61,0,0,0,.19.2.51.51,0,0,0,.24.13.87.87,0,0,0,.54-.09l.14-.1a.68.68,0,0,0,.18-.32l0-.18a.64.64,0,0,0-.09-.36Z" transform="translate(0 0)"/><path d="M73.26,149.53a.75.75,0,0,0,.5-.21.73.73,0,0,0,0-1,.75.75,0,0,0-.5-.21.71.71,0,0,0,0,1.42Z" transform="translate(0 0)"/><path class="cls-9" d="M57,137a2.44,2.44,0,0,0-.51,1.54,3,3,0,0,1-.39,1.58" transform="translate(0 0)"/></g><path class="cls-12" d="M73.55,140.77c-2.19-2.2-7.22-1.43-10.38.63a10.6,10.6,0,0,0-3.54,3.81,82.17,82.17,0,0,1-39.38,39.47l8.09,9.46a87.7,87.7,0,0,0,27-15.52,67.39,67.39,0,0,0,18-27.74C75.1,145.33,75.14,142.35,73.55,140.77Z" transform="translate(0 0)"/><g class="cls-19"><g class="cls-8"><path d="M56.7,146.52c.32-.22.65-.42,1-.62s.4-.21.6-.3l.26-.12c-.19.08-.13,0,0,0a17.77,17.77,0,0,1,2.35-.64c.24-.05,0,0-.08,0,.13,0,.26,0,.39,0l.58,0c.42,0,.85,0,1.27,0a5.65,5.65,0,0,1,.58,0l.29,0s-.33-.06-.08,0c.47.08.91.16,1.36.28s.76.21,1.14.34l.56.2.27.12c-.2-.09-.1-.05.05,0A17.64,17.64,0,0,1,69.52,147c.34.21.67.44,1,.68l.32.24s-.22-.19,0,0,.37.3.54.47a23.36,23.36,0,0,1,1.83,1.76c.34.37.68.75,1,1.14l.45.55c.15.18,0,0,0,0l.24.33q.91,1.23,1.71,2.52a2.17,2.17,0,0,0,.55.62,2.12,2.12,0,0,0,1.57.41,2.2,2.2,0,0,0,.78-.27,2.12,2.12,0,0,0,1-1.29,2.07,2.07,0,0,0,0-.82,2.25,2.25,0,0,0-.27-.79,29.15,29.15,0,0,0-8-8.8,16.93,16.93,0,0,0-11.11-3.1,13.77,13.77,0,0,0-6.47,2.28,2.18,2.18,0,0,0-.76,2.9,2.13,2.13,0,0,0,2.89.76Z" transform="translate(0 0)"/></g></g><path class="cls-9" d="M55.33,145.5a15.72,15.72,0,0,1,6-1.93,15.47,15.47,0,0,1,15.59,8.69c4.28-4.26,7-9.64,5.4-13.51-2.48-6.21-15.51-7.81-22.26-2A15,15,0,0,0,55.33,145.5Z" transform="translate(0 0)"/><path class="cls-12" d="M29,193.46c-2.4,3.79-6.58,4.93-10.81,6.08a28.35,28.35,0,0,1-10.81.68c-2.45-.32-4.75-.94-4.7-1.35s2.42-.28,6.07-1.35a12.73,12.73,0,0,0,3.38-1.35,17.69,17.69,0,0,1-8.1,1.35c-1.92-.19-4.06-.81-4-1.35s1.58-.6,4.73-1.35a58.86,58.86,0,0,0,6.75-2,19.46,19.46,0,0,1-5.4,1.35c-2.77.29-6,0-6.08-.68-.06-.47,1.33-1,4.05-2s5-1.72,6.07-2c3.61-1.07,5.43-1.48,5.4-2s-2.08-.41-3.37-2c-.7-.88-1.13-2.23-.67-2.7s2,.65,4.72,1.35c1.95.51,3.65.43,7.05.28,4.82-.21,5.57-.87,6.48-.14C31.56,185.63,31,190.3,29,193.46Z" transform="translate(0 0)"/><path d="M11.81,182.75a17,17,0,0,0,8.85,1.77c.23,0,.23-.37,0-.35A16.69,16.69,0,0,1,12,182.43c-.2-.1-.38.2-.18.3Z" transform="translate(0 0)"/><path d="M.44,193.2a27.4,27.4,0,0,1,7.43-2.72A64.65,64.65,0,0,0,15.8,188c.21-.08.12-.42-.09-.34a66.12,66.12,0,0,1-8.13,2.57,27.34,27.34,0,0,0-7.31,2.7.15.15,0,0,0-.08.11.15.15,0,0,0,0,.13.18.18,0,0,0,.11.08A.15.15,0,0,0,.44,193.2Z" transform="translate(0 0)"/><path d="M.37,196c4.87-2.12,10.63-1.35,15.19-4.31.19-.12,0-.43-.17-.31-4.56,3-10.34,2.19-15.2,4.32C0,195.76.16,196.07.37,196Z" transform="translate(0 0)"/><path d="M3,198.71c5-.47,10.16-1.6,14.54-4.21a.16.16,0,0,0,.08-.1.22.22,0,0,0,0-.14.19.19,0,0,0-.11-.08.2.2,0,0,0-.13,0C13.06,196.77,8,197.89,3,198.35,2.79,198.35,2.79,198.73,3,198.71Z" transform="translate(0 0)"/><path class="cls-12" d="M143.72,139.42c2.18-2.19,7.63-1.08,11.05,1.31a11.52,11.52,0,0,1,3.55,3.8A82.19,82.19,0,0,0,197.7,184l-8.1,9.45a87.3,87.3,0,0,1-27-15.52,76.21,76.21,0,0,1-18-27.74C142.29,143.81,142.27,140.89,143.72,139.42Z" transform="translate(0 0)"/><g class="cls-20"><g class="cls-8"><path d="M142.36,152.67a16.47,16.47,0,0,1,1.56-2.82c.07-.11.53-.72.24-.35.16-.21.33-.41.5-.61a14.45,14.45,0,0,1,1.15-1.2,14.64,14.64,0,0,1,1.19-1c-.35.27.15-.11.27-.19s.53-.36.8-.53c.43-.26.86-.5,1.3-.72l.71-.34c.25-.11-.47.17.06,0l.47-.18a12.88,12.88,0,0,1,1.45-.44L153,144l.43-.07c.47-.09-.14,0,.31,0a21.7,21.7,0,0,1,4.11-.06l1,.09.44.05.2,0c.69.1,1.39.23,2.07.37,1.31.27,2.61.6,3.9.94,3,.83,6,1.77,9.12,2.35a2.12,2.12,0,1,0,1.12-4.08c-5.82-1.1-11.35-3.4-17.29-4a21.23,21.23,0,0,0-8.46.79,19,19,0,0,0-6.45,3.66,17.69,17.69,0,0,0-4.76,6.43,2.19,2.19,0,0,0,.76,2.9,2.14,2.14,0,0,0,2.89-.77Z" transform="translate(0 0)"/></g></g><path class="cls-9" d="M162.61,144.83a15.46,15.46,0,0,0-12.26-1.31,15.46,15.46,0,0,0-9.33,8.07c-4.28-4.27-6.94-9.64-5.4-13.52,2.48-6.21,15.51-7.81,22.27-2A15,15,0,0,1,162.61,144.83Z" transform="translate(0 0)"/><path class="cls-12" d="M188.93,192.78c2.39,3.76,6.58,4.92,10.81,6.08a28.48,28.48,0,0,0,10.8.67c2.45-.31,4.75-.94,4.7-1.35s-2.41-.27-6.07-1.35a12.36,12.36,0,0,1-3.37-1.35,17.77,17.77,0,0,0,8.1,1.35c1.92-.19,4.06-.82,4-1.35s-1.58-.6-4.7-1.35a58.86,58.86,0,0,1-6.75-2,19.47,19.47,0,0,0,5.4,1.36c2.77.3,6,0,6.07-.67.07-.47-1.32-1-4-2s-5-1.72-6.07-2c-3.61-1.07-5.43-1.49-5.4-2s2.08-.4,3.37-2c.7-.88,1.13-2.23.67-2.7s-2,.65-4.72,1.36c-2,.5-3.65.42-7.05.28-4.82-.22-5.57-.88-6.48-.14C186.38,185,186.93,189.63,188.93,192.78Z" transform="translate(0 0)"/><path d="M206,181.77a16.57,16.57,0,0,1-8.67,1.72c-.22,0-.22.34,0,.36a17,17,0,0,0,8.85-1.77C206.33,182,206.13,181.67,206,181.77Z" transform="translate(0 0)"/><path d="M217.68,192.21a27.59,27.59,0,0,0-7.31-2.7,64.45,64.45,0,0,1-8.13-2.57c-.21-.08-.31.26-.09.35a66.22,66.22,0,0,0,7.92,2.51,28,28,0,0,1,7.43,2.72A.18.18,0,0,0,217.68,192.21Z" transform="translate(0 0)"/><path d="M217.75,195c-4.86-2.12-10.64-1.36-15.19-4.31-.19-.13-.37.18-.18.3,4.56,3,10.34,2.19,15.2,4.32C217.78,195.39,218,195.08,217.75,195Z" transform="translate(0 0)"/><path d="M214.93,197.68c-5-.47-10-1.59-14.35-4.16a.29.29,0,0,0-.13,0,.25.25,0,0,0-.1.08.17.17,0,0,0,0,.12.16.16,0,0,0,.07.11c4.37,2.6,9.51,3.73,14.53,4.2A.18.18,0,0,0,214.93,197.68Z" transform="translate(0 0)"/><path d="M85,327.2H55.4c-.33,0-.84.14-.73-.42a23.85,23.85,0,0,1,4.92-10.61,15.86,15.86,0,0,1,9.19-5.61A12.11,12.11,0,0,1,77.15,312a11.89,11.89,0,0,1,1.79,1.28h7.43Q85.7,320.22,85,327.2Z" transform="translate(0 0)"/><g class="cls-21"><path class="cls-22" d="M54,322.55c1.26-4.81,7.79-7.19,12.82-7,5.67.23,9.56,4.67,10.81,6.2H89.09l-2,5.62-32.78-.17A7.89,7.89,0,0,1,54,322.55Z" transform="translate(0 0)"/><path class="cls-23" d="M62.08,314.41h10.8" transform="translate(0 0)"/><path class="cls-23" d="M63.43,312.08H74.22" transform="translate(0 0)"/></g><path d="M114.71,313.11H128.1a3.12,3.12,0,0,1,.5-1.19c.83-1.13,2.26-1.12,3.29-1.17a30.82,30.82,0,0,1,6.58.35,17.79,17.79,0,0,1,6.61,2.48c.46.3.91.61,1.33.94a15.5,15.5,0,0,1,5.38,8.53c.12.56.15,1.17.3,1.72a11.51,11.51,0,0,1,.2,2.11,1.62,1.62,0,0,0,0,.31,3.86,3.86,0,0,1-.68,0H114.71" transform="translate(0 0)"/><g class="cls-24"><path class="cls-22" d="M113.36,321.77h22.26a20,20,0,0,1,5.4-4.65,17.61,17.61,0,0,1,10.13-2.33q2.61,6.27,5.24,12.54l-44.4-.05Z" transform="translate(0 0)"/><path class="cls-23" d="M135.84,319.15a16.55,16.55,0,0,1,4.81-3.92A14.58,14.58,0,0,1,147,313.5" transform="translate(0 0)"/><path class="cls-23" d="M134.49,317.6a16.65,16.65,0,0,1,4.81-3.91,14.63,14.63,0,0,1,6.33-1.74" transform="translate(0 0)"/><path class="cls-23" d="M133.14,316.05a16.46,16.46,0,0,1,4.82-3.92,14.5,14.5,0,0,1,6.31-1.73" transform="translate(0 0)"/><path class="cls-23" d="M131.79,314.5a16.65,16.65,0,0,1,4.82-3.93,14.62,14.62,0,0,1,6.31-1.72" transform="translate(0 0)"/></g><path class="cls-25" d="M135.7,44.26l-8.34,9.17-9.16-8.35-.35-.31a6.26,6.26,0,0,1-2-4.3,6.19,6.19,0,0,1,10.36-4.88l.35.32Z" transform="translate(0 0)"/><path class="cls-25" d="M136,43.91l-.31.35-8.34,9.17-9.16-8.35,8.34-9.17.31-.35A6.2,6.2,0,0,1,136,43.91Z" transform="translate(0 0)"/><path class="cls-25" d="M106,31.19l-4.61,11.5-11.5-4.6-.43-.18a6.08,6.08,0,0,1-2-1.32,6.32,6.32,0,0,1-1.37-2,6.25,6.25,0,0,1-.5-2.37,6.25,6.25,0,0,1,1.77-4.41,6.1,6.1,0,0,1,2-1.37,6.21,6.21,0,0,1,4.74-.06l.43.18Z" transform="translate(0 0)"/><path class="cls-25" d="M106.15,30.76l-.17.43-4.6,11.5-11.5-4.6,4.6-11.52.18-.43a6.18,6.18,0,0,1,5.69-4,6.29,6.29,0,0,1,2.39.44,6.21,6.21,0,0,1,3.41,8.15Z" transform="translate(0 0)"/><path class="cls-25" d="M107.5,5.26l-3,6.38-6.34-3-.24-.11a3.52,3.52,0,1,1,3-6.36l.24.11Z" transform="translate(0 0)"/><path class="cls-25" d="M107.61,5l-.11.24-3,6.38-6.34-3,3-6.36.11-.24A3.51,3.51,0,0,1,106,.34a3.57,3.57,0,0,1,1.81,2A3.53,3.53,0,0,1,107.64,5Z" transform="translate(0 0)"/><path class="cls-25" d="M124.65,24l-7.8,5.14-5.13-7.8-.19-.29a4.67,4.67,0,0,1,7.78-5.13l.2.3Z" transform="translate(0 0)"/><path class="cls-25" d="M125,23.76l-.29.19-7.81,5.14-5.13-7.8,7.8-5.14.29-.19a4.67,4.67,0,0,1,3.51-.68A4.71,4.71,0,0,1,125,16a4.66,4.66,0,0,1,2,3,4.51,4.51,0,0,1,0,1.83,4.69,4.69,0,0,1-.7,1.68A4.8,4.8,0,0,1,125,23.76Z" transform="translate(0 0)"/></svg>