<svg width="206" height="327" viewBox="0 0 206 327" fill="none" xmlns="http://www.w3.org/2000/svg">
<path d="M100.956 301.993C91.8106 301.993 34.6366 300.858 10.9117 246.046C9.81415 243.514 -10.6319 194.653 7.40236 157.115C21.3673 128.015 47.8925 127.767 52.3051 100.946C55.6292 80.7099 41.9714 72.1677 46.5466 54.8663C53.6826 27.8695 94.1366 21.4029 99.6421 20.4985C143.452 13.4712 193.056 38.736 193.585 63.838C193.987 83.9839 162.525 91.5222 163.248 114.811C163.79 132.99 183.134 134.907 197.058 164.956C206.122 184.528 207.098 209.001 203.101 227.297C192.663 275.019 141.564 302.038 100.956 301.993Z" fill="#6DA9E4"/>
<path d="M93.8384 163.287C99.6417 185.194 103.817 207.5 106.331 230.024C108.839 252.454 109.712 275.036 108.941 297.593H131.926C137.682 273.489 139.895 248.672 138.493 223.928C137.362 203.833 133.835 183.946 127.987 164.689L93.8384 163.287Z" fill="#36474F"/>
<mask id="mask0_53_1249" style="mask-type:luminance" maskUnits="userSpaceOnUse" x="93" y="163" width="46" height="135">
<path d="M93.8384 163.287C99.6417 185.194 103.817 207.5 106.331 230.024C108.839 252.454 109.712 275.036 108.941 297.593H131.926C137.682 273.489 139.895 248.672 138.493 223.928C137.362 203.833 133.835 183.946 127.987 164.689L93.8384 163.287Z" fill="white"/>
</mask>
<g mask="url(#mask0_53_1249)">
<g opacity="0.15">
<path d="M98.9553 196.023C95.5853 212.542 94.5213 229.45 95.7938 246.263C96.2183 251.576 96.8913 256.872 97.7223 262.131L98.7476 264.564C99.3647 265.722 100.266 266.704 101.367 267.417C101.991 268.045 102.77 268.496 103.625 268.724C104.829 269.361 106.181 269.664 107.541 269.601L110.251 269.24L112.681 268.213C114.894 266.788 116.545 264.639 117.351 262.131C118.446 257.063 119.269 251.939 119.817 246.783C120.354 242.329 120.801 237.861 121.28 233.402L124.18 206.351L125.81 191.143H105.486L105.193 222.386L104.904 253.625L104.741 271.193C104.848 273.869 105.903 276.42 107.717 278.388L109.772 279.979C110.903 280.71 112.208 281.127 113.553 281.187C114.44 281.428 115.375 281.428 116.262 281.187C117.606 281.126 118.908 280.709 120.038 279.979C122.274 278.579 123.931 276.42 124.708 273.897C127.68 264.512 130.093 254.958 131.935 245.286C133.994 234.732 135.521 224.087 136.943 213.428C137.689 207.866 138.38 202.295 139.075 196.728C138.954 194.041 137.881 191.484 136.049 189.515L133.99 187.924C132.86 187.194 131.557 186.777 130.214 186.716C129.327 186.471 128.391 186.471 127.504 186.716C126.161 186.777 124.858 187.194 123.728 187.924L121.678 189.515C120.432 190.76 119.531 192.307 119.063 194.006L113.503 232.995L111.949 243.921L131.912 246.634C132.108 244.147 132.37 241.667 132.698 239.195L132.337 241.908C133.535 232.995 135.641 224.227 138.623 215.743C139.464 213.362 140.367 211.006 141.333 208.675L140.308 211.108C140.426 210.828 140.547 210.548 140.669 210.267L122.093 207.834C124.471 217.546 126.332 227.377 127.666 237.287L127.301 234.573C128.853 246.136 129.696 257.782 129.825 269.448C129.862 272.764 129.839 276.08 129.758 279.396H150.082L146.469 250.048C146.499 248.045 145.917 246.081 144.8 244.419C143.684 242.757 142.086 241.477 140.222 240.751C139.019 240.114 137.667 239.811 136.306 239.873C133.678 239.991 130.954 240.855 129.121 242.853L127.531 244.911C126.621 246.469 126.142 248.243 126.144 250.048L122.987 276.1L119.794 302.115L117.988 316.807L137.95 314.094L132.079 284.841C131.673 282.81 131.411 280.671 130.661 278.731C130.259 277.553 129.758 276.41 129.161 275.317C129.062 275.159 128.954 275.005 128.845 274.865C128.278 274.015 127.644 273.212 126.948 272.464C126.206 271.765 125.402 271.136 124.546 270.583C124.422 270.499 124.294 270.422 124.162 270.352C123.332 269.934 122.475 269.571 121.596 269.267L121.28 269.163C120.776 269.058 120.267 268.986 119.754 268.946C119.189 268.841 118.619 268.77 118.046 268.733C117.928 268.724 117.808 268.724 117.69 268.733C116.931 268.792 115.644 268.959 114.898 269.108C114.691 269.153 114.488 269.212 114.289 269.285C112.254 269.931 110.39 271.025 108.833 272.486C107.921 273.363 107.114 274.343 106.43 275.408C106.106 275.866 105.828 276.356 105.599 276.868C104.355 279.749 103.271 282.695 102.352 285.695L96.9816 301.785L116.944 304.498C116.832 302.447 116.912 300.389 117.184 298.353L116.818 301.066C117.19 298.379 117.9 295.751 118.932 293.243L117.906 295.676C118.11 295.196 118.322 294.721 118.548 294.256C119.278 293.123 119.694 291.817 119.754 290.471C119.992 288.494 119.663 286.49 118.804 284.694C117.944 282.898 116.591 281.385 114.903 280.332C112.541 279.089 109.686 278.46 107.071 279.31C104.669 280.088 102.126 281.621 100.997 283.986C99.4233 287.117 98.2547 290.436 97.5191 293.862C96.7835 297.359 96.4801 300.932 96.6158 304.503C96.7558 307.08 97.623 309.888 99.5921 311.697L101.647 313.289C102.779 314.019 104.083 314.435 105.427 314.496C106.314 314.742 107.251 314.742 108.137 314.496C109.482 314.436 110.786 314.019 111.918 313.289L113.973 311.697C115.218 310.452 116.119 308.905 116.588 307.207L120.363 295.902L122.233 290.299C122.829 288.49 123.358 286.681 124.089 284.931L123.064 287.36C123.34 286.717 123.692 286.11 124.112 285.551L122.536 287.604C122.785 287.301 123.067 287.026 123.376 286.785L121.316 288.377C121.574 288.198 121.849 288.046 122.138 287.925L119.708 288.951C119.935 288.866 120.17 288.802 120.409 288.761L117.699 289.128C117.934 289.101 118.172 289.101 118.408 289.128L115.698 288.766C115.867 288.801 116.033 288.848 116.195 288.906L113.765 287.88C113.993 287.98 114.208 288.108 114.406 288.259L112.351 286.668C112.546 286.833 112.724 287.016 112.884 287.215L111.294 285.153C111.589 285.55 111.834 285.983 112.021 286.442L111.001 284.009C111.755 285.876 112.012 287.947 112.405 289.887L113.855 297.123L116.728 311.444L118.349 319.52C119.154 322.029 120.805 324.179 123.019 325.603L125.444 326.625C126.758 327.051 128.162 327.115 129.509 326.81C130.411 326.811 131.297 326.57 132.075 326.114C133.327 325.706 134.454 324.982 135.344 324.011L136.934 321.949C137.847 320.393 138.326 318.621 138.321 316.816L141.505 290.81L144.694 264.79L146.5 250.098H126.176L129.789 279.446C129.759 281.449 130.341 283.413 131.457 285.074C132.574 286.736 134.171 288.017 136.036 288.743C137.239 289.38 138.591 289.683 139.951 289.621C142.58 289.503 145.303 288.639 147.137 286.641C148.985 284.689 150.037 282.116 150.086 279.428C150.323 269.623 150.053 259.812 149.278 250.034C148.44 239.455 147.058 228.925 145.136 218.488C144.146 213.107 142.998 207.756 141.695 202.435L140.674 200.007L139.084 197.945L137.025 196.353C135.895 195.623 134.592 195.206 133.249 195.145C132.362 194.904 131.426 194.904 130.539 195.145C128.788 195.379 127.129 196.07 125.729 197.149C124.627 197.861 123.726 198.845 123.114 200.007C120.541 205.869 118.352 211.893 116.561 218.041C115.018 223.489 113.827 229.031 112.997 234.632C112.405 238.612 111.9 242.609 111.583 246.625C111.696 249.3 112.75 251.848 114.56 253.819L116.615 255.411C117.746 256.141 119.05 256.558 120.395 256.618C121.282 256.86 122.218 256.86 123.105 256.618C124.449 256.557 125.754 256.141 126.885 255.411L128.94 253.819C130.185 252.574 131.086 251.027 131.555 249.329L137.092 210.353L138.646 199.432L118.688 196.719C117.974 202.444 117.261 208.174 116.493 213.903L116.859 211.19C114.826 226.298 112.423 241.388 108.616 256.157C107.55 260.299 106.365 264.407 105.062 268.48L125.024 271.193L125.313 239.95L125.607 208.707L125.77 191.143C125.657 188.468 124.603 185.92 122.793 183.949C120.825 182.137 118.279 181.081 115.608 180.969C112.979 181.086 110.251 181.95 108.422 183.949L106.832 186.006C105.92 187.564 105.441 189.338 105.445 191.143L100.568 236.767C100.116 240.99 99.6915 245.218 99.1315 249.428L99.4928 246.715C99.0411 250.071 98.4856 253.412 97.7223 256.713H117.324C117.107 255.357 116.913 254 116.728 252.644L117.093 255.357C115.517 243.538 115.165 231.587 116.046 219.696C116.296 216.331 116.643 212.973 117.089 209.621L116.728 212.334C117.221 208.68 117.824 205.043 118.534 201.422C118.959 200.106 119.021 198.7 118.715 197.352C118.659 196.005 118.243 194.698 117.509 193.567C116.086 191.353 113.941 189.7 111.439 188.891C108.837 188.299 105.915 188.439 103.607 189.918C101.471 191.297 99.4521 193.418 98.9373 196L98.9553 196.023Z" fill="black"/>
</g>
<g opacity="0.15">
<path d="M131.844 185.848C132.54 189.71 133.159 193.587 133.701 197.479C133.732 197.705 133.764 197.931 133.791 198.157C133.791 198.27 133.823 198.383 133.841 198.496C133.841 198.447 133.809 198.284 133.841 198.523C133.908 199.016 133.972 199.505 134.035 199.998C134.161 200.983 134.283 201.965 134.396 202.951C134.622 204.883 134.83 206.815 135.019 208.748C135.778 216.562 136.23 224.4 136.374 232.263C136.504 240.077 136.323 247.886 135.832 255.691C135.589 259.574 135.268 263.45 134.87 267.318C134.669 269.289 134.444 271.259 134.197 273.228C133.949 275.24 133.746 276.71 133.466 278.691C132.349 286.426 130.922 294.114 129.184 301.753C128.963 302.716 128.733 303.684 128.511 304.647C128.429 304.908 128.399 305.183 128.425 305.456C128.451 305.728 128.532 305.993 128.662 306.234C128.793 306.474 128.97 306.686 129.184 306.856C129.398 307.027 129.645 307.152 129.908 307.225C130.172 307.297 130.448 307.316 130.719 307.28C130.99 307.243 131.25 307.153 131.486 307.013C131.721 306.873 131.925 306.687 132.087 306.467C132.249 306.246 132.365 305.995 132.427 305.728C134.264 298.044 135.775 290.297 136.962 282.489C138.181 274.585 139.084 266.641 139.671 258.658C140.25 250.79 140.508 242.906 140.448 235.007C140.388 227.109 140.016 219.271 139.333 211.493C138.634 203.528 137.615 195.599 136.275 187.707C136.106 186.73 135.935 185.755 135.76 184.781C135.57 183.727 134.238 183.04 133.258 183.356C132.746 183.513 132.314 183.86 132.051 184.326C131.787 184.792 131.711 185.342 131.84 185.862L131.844 185.848Z" fill="white"/>
</g>
</g>
<path d="M77.593 174.403C64.275 214.187 56.9161 255.727 55.7559 297.67L83.3334 297.593C86.1946 280.474 90.2084 263.568 95.3472 246.991C99.9088 232.371 103.581 223.974 107.09 208.246C109.718 196.424 111.434 184.417 112.225 172.332L77.593 174.403Z" fill="#36474F"/>
<path d="M80.0497 311.186H51.2301C50.9094 311.186 50.4172 311.317 50.5255 310.779C51.2377 306.991 52.8798 303.44 55.304 300.446C57.6887 297.606 60.8547 295.599 64.2511 294.993C67.0431 294.453 69.9359 294.934 72.4033 296.349C73.0184 296.715 73.6002 297.134 74.1422 297.602H81.3685L80.0497 311.186Z" fill="black"/>
<mask id="mask1_53_1249" style="mask-type:luminance" maskUnits="userSpaceOnUse" x="50" y="294" width="32" height="18">
<path d="M80.0497 311.186H51.2301C50.9094 311.186 50.4172 311.317 50.5255 310.779C51.2377 306.991 52.8798 303.44 55.304 300.446C57.6887 297.606 60.8547 295.599 64.2511 294.993C67.0431 294.453 69.9359 294.934 72.4033 296.349C73.0184 296.715 73.6002 297.134 74.1422 297.602H81.3685L80.0497 311.186Z" fill="white"/>
</mask>
<g mask="url(#mask1_53_1249)">
<path d="M49.8437 306.66C53.2537 303.327 57.0204 299.646 62.3227 299.877C67.8418 300.103 71.6266 304.399 72.828 305.914H83.9882L83.3333 317.219C52.7027 321.673 44.0988 319.787 43.2768 316.463C42.5948 313.737 47.0345 309.405 49.8437 306.66Z" fill="#DBDBDB"/>
<path d="M57.7251 298.737H68.2304" stroke="white" stroke-miterlimit="10"/>
<path d="M59.0391 296.471H69.5444" stroke="white" stroke-miterlimit="10"/>
</g>
<path d="M108.942 297.48L121.972 297.453C122.055 297.037 122.222 296.643 122.464 296.295C123.268 295.192 124.664 295.201 125.666 295.155C127.811 295.036 129.963 295.148 132.084 295.49C134.367 295.861 136.554 296.683 138.516 297.909C138.963 298.189 139.395 298.491 139.812 298.814C141.534 300.195 142.929 301.94 143.899 303.924C144.405 304.948 144.789 306.029 145.042 307.144C145.164 307.691 145.196 308.279 145.34 308.812C145.467 309.488 145.531 310.173 145.53 310.861L145.557 311.168C145.335 311.189 145.111 311.189 144.888 311.168H108.942" fill="black"/>
<mask id="mask2_53_1249" style="mask-type:luminance" maskUnits="userSpaceOnUse" x="108" y="295" width="38" height="17">
<path d="M108.942 297.48L121.972 297.453C122.055 297.037 122.222 296.643 122.464 296.295C123.268 295.192 124.664 295.201 125.666 295.155C127.811 295.036 129.963 295.148 132.084 295.49C134.367 295.861 136.554 296.683 138.516 297.909C138.963 298.189 139.395 298.491 139.812 298.814C141.534 300.195 142.929 301.94 143.899 303.924C144.405 304.948 144.789 306.029 145.042 307.144C145.164 307.691 145.196 308.279 145.34 308.812C145.467 309.488 145.531 310.173 145.53 310.861L145.557 311.168C145.335 311.189 145.111 311.189 144.888 311.168H108.942" fill="white"/>
</mask>
<g mask="url(#mask2_53_1249)">
<path d="M107.632 305.905H129.311C130.775 304.092 132.555 302.56 134.564 301.383C137.543 299.649 140.978 298.86 144.414 299.121L149.667 312.688L105.013 316.459L107.632 305.905Z" fill="#DBDBDB"/>
<path d="M129.51 303.35C130.816 301.792 132.405 300.497 134.193 299.533C136.088 298.512 138.19 297.939 140.34 297.855" stroke="white" stroke-miterlimit="10"/>
<path d="M128.196 301.839C129.505 300.291 131.094 299.004 132.879 298.045C134.775 297.027 136.877 296.453 139.026 296.367" stroke="white" stroke-miterlimit="10"/>
<path d="M126.881 300.329C128.191 298.773 129.781 297.478 131.569 296.512C133.465 295.495 135.567 294.923 137.716 294.839" stroke="white" stroke-miterlimit="10"/>
<path d="M125.567 298.823C126.874 297.264 128.465 295.967 130.255 295.002C132.149 293.985 134.25 293.413 136.397 293.329" stroke="white" stroke-miterlimit="10"/>
</g>
<path d="M96.3046 70.0559C95.9343 70.3182 93.1431 72.2491 89.828 71.2497C87.1543 70.4448 84.4082 67.7994 84.738 64.3898C85.027 61.5228 87.4072 59.0989 90.5235 58.6603C90.3429 58.4613 87.904 55.6486 88.7621 53.1207C89.6654 50.4618 94.0599 48.5987 98.7571 50.602C99.6604 45.4151 104.227 42.72 107.37 43.6787C109.529 44.3389 111.146 46.7491 111.521 49.5981C114.953 47.1561 118.977 47.4591 120.761 49.5347C121.8 50.7376 122.356 52.8494 121.705 54.4457C121.091 55.9606 119.19 57.4665 119.19 57.4665C122.121 58.4342 123.205 61.5363 122.211 63.3813C121.389 64.8962 119.05 65.7192 116.791 64.8329L96.3046 70.0559Z" fill="#30485E"/>
<path d="M122.329 99.0063C123.864 99.9108 151.74 116.977 151.88 148.297C151.97 168.872 140.056 182.827 136.777 186.432L125.612 175.258C127.288 173.589 137.942 162.627 136.777 146.316C135.797 132.66 126.89 120.495 113.792 114.757L122.329 99.0063Z" fill="#F6BA6F"/>
<mask id="mask3_53_1249" style="mask-type:luminance" maskUnits="userSpaceOnUse" x="113" y="99" width="39" height="88">
<path d="M122.329 99.0063C123.864 99.9108 151.74 116.977 151.88 148.297C151.97 168.872 140.056 182.827 136.777 186.432L125.612 175.258C127.288 173.589 137.942 162.627 136.777 146.316C135.797 132.66 126.89 120.495 113.792 114.757L122.329 99.0063Z" fill="white"/>
</mask>
<g mask="url(#mask3_53_1249)">
<g opacity="0.15">
<path d="M129.406 122.652C131.011 127.061 132.322 131.572 133.331 136.155C133.701 137.843 134.026 139.538 134.306 141.238C134.388 141.753 134.469 142.264 134.546 142.78C134.582 143.033 134.623 143.291 134.654 143.549L134.708 143.924C134.65 143.472 134.708 144.033 134.731 144.123C134.873 145.199 134.991 146.279 135.088 147.361C135.44 151.241 135.539 155.134 135.752 159.023C136.043 163.981 136.607 168.919 137.441 173.815C138.176 178.111 139.124 182.363 140.286 186.572C140.429 187.093 140.774 187.537 141.243 187.804C141.713 188.072 142.27 188.142 142.791 187.998C143.312 187.855 143.755 187.51 144.022 187.04C144.289 186.57 144.359 186.013 144.216 185.491C143.222 181.891 142.383 178.254 141.7 174.579C140.808 169.837 140.205 165.046 139.893 160.231C139.631 156.333 139.559 152.426 139.247 148.532C138.927 144.496 138.362 140.484 137.554 136.517C136.512 131.438 135.099 126.443 133.326 121.571C132.965 120.572 131.926 119.794 130.824 120.152C129.844 120.468 129.018 121.58 129.406 122.652Z" fill="black"/>
</g>
</g>
<path d="M92.4521 96.2343C88.1245 98.4584 84.4039 101.706 81.6126 105.694C72.5796 118.533 77.2677 132.42 75.7005 152.643C74.9824 161.922 72.7513 174.986 65.8501 190.483C90.944 200.988 119.05 201.737 144.667 192.586C141.373 180.666 139.174 168.469 138.1 156.147C136.262 134.785 138.583 121.092 129.564 107.096C125.309 100.499 121.05 97.7084 119.054 96.587C106.449 89.4918 93.6309 95.6373 92.4521 96.2343Z" fill="#F6BA6F"/>
<mask id="mask4_53_1249" style="mask-type:luminance" maskUnits="userSpaceOnUse" x="65" y="93" width="80" height="106">
<path d="M92.4521 96.2343C88.1245 98.4584 84.4039 101.706 81.6126 105.694C72.5796 118.533 77.2677 132.42 75.7005 152.643C74.9824 161.922 72.7513 174.986 65.8501 190.483C90.944 200.988 119.05 201.737 144.667 192.586C141.373 180.666 139.174 168.469 138.1 156.147C136.262 134.785 138.583 121.092 129.564 107.096C125.309 100.499 121.05 97.7084 119.054 96.587C106.449 89.4918 93.6309 95.6373 92.4521 96.2343Z" fill="white"/>
</mask>
<g mask="url(#mask4_53_1249)">
<g opacity="0.15">
<path d="M79.3904 115.268C77.0147 123.086 74.6345 130.923 71.5498 138.502L71.2291 139.289C71.1704 139.42 71.1162 139.551 71.062 139.682C70.8633 140.162 71.1794 139.411 71.062 139.719L70.3845 141.283C69.9088 142.356 69.418 143.421 68.9122 144.476C68.2979 145.751 68.5193 147.465 69.8832 148.188C71.0936 148.831 72.9364 148.582 73.5912 147.216C77.2631 139.565 80.0408 131.534 82.5655 123.444C83.2655 121.183 83.9475 118.958 84.6295 116.71C84.7241 116.367 84.7503 116.008 84.7064 115.654C84.6625 115.301 84.5495 114.959 84.3737 114.649C84.198 114.339 83.963 114.067 83.6822 113.848C83.4014 113.629 83.0802 113.468 82.7371 113.373C82.0446 113.196 81.3107 113.295 80.6892 113.648C80.0678 114.001 79.6071 114.582 79.4039 115.268H79.3904Z" fill="black"/>
</g>
</g>
<path d="M105.911 103.895C111.134 103.895 115.369 100.981 115.369 97.3874C115.369 93.7935 111.134 90.8801 105.911 90.8801C100.688 90.8801 96.4536 93.7935 96.4536 97.3874C96.4536 100.981 100.688 103.895 105.911 103.895Z" fill="#F8A3A0"/>
<path d="M96.4582 97.324H115.369V78.2589H96.4582V97.324Z" fill="#F8A3A0"/>
<mask id="mask5_53_1249" style="mask-type:luminance" maskUnits="userSpaceOnUse" x="96" y="78" width="20" height="20">
<path d="M96.4582 97.324H115.369V78.2589H96.4582V97.324Z" fill="white"/>
</mask>
<g mask="url(#mask5_53_1249)">
<path opacity="0.1" d="M116.416 87.4615C116.317 88.0449 115.59 91.9836 112.478 93.3764C109.289 94.8189 105.834 92.6121 103.942 91.4048C102.109 90.204 100.543 88.6367 99.344 86.8013C97.7003 84.437 96.5807 81.748 96.0605 78.9148L116.416 87.4615Z" fill="black" stroke="black" stroke-width="4" stroke-miterlimit="10"/>
</g>
<path d="M111.42 91.1429C119.762 89.2406 124.454 78.5943 121.899 67.3635C119.345 56.1327 110.511 48.5705 102.169 50.4727C93.8271 52.3749 89.1354 63.0213 91.6899 74.2521C94.2445 85.4828 103.078 93.0451 111.42 91.1429Z" fill="#F8A3A0"/>
<mask id="mask6_53_1249" style="mask-type:luminance" maskUnits="userSpaceOnUse" x="90" y="50" width="33" height="42">
<path d="M111.415 91.1431C119.757 89.2409 124.449 78.5945 121.894 67.3637C119.34 56.133 110.506 48.5707 102.164 50.4729C93.8222 52.3752 89.1305 63.0216 91.685 74.2523C94.2396 85.4831 103.073 93.0454 111.415 91.1431Z" fill="white"/>
</mask>
<g mask="url(#mask6_53_1249)">
<path d="M91.0925 70.4585C92.6918 68.7068 94.135 66.8184 95.4057 64.8149C96.6977 62.7758 97.8085 60.6271 98.7253 58.3936C98.9975 59.2126 99.5533 59.9072 100.292 60.3519C101.031 60.7966 101.905 60.9621 102.755 60.8185C103.605 60.6749 104.376 60.2317 104.928 59.5689C105.48 58.9061 105.778 58.0674 105.766 57.2043C106.217 58.0486 106.902 58.744 107.738 59.2063C108.575 59.6687 109.528 59.878 110.482 59.809C113.033 59.5919 114.275 57.3671 114.366 57.2043C116.511 61.654 119.239 64.9461 121.095 64.5346C123.173 64.0824 124.465 58.882 123.643 51.6693L98.0343 41.8066L84.9004 58.9001L91.0925 70.4585Z" fill="#30485E"/>
</g>
<path d="M92.6999 78.6818C94.5184 78.0252 95.343 75.6893 94.5417 73.4645C93.7404 71.2396 91.6166 69.9683 89.7981 70.6249C87.9796 71.2814 87.155 73.6173 87.9563 75.8422C88.7576 78.0671 90.8814 79.3384 92.6999 78.6818Z" fill="#F8A3A0"/>
<path opacity="0.7" d="M108.328 69.4907C108.865 71.6071 111.408 73.7415 111.408 73.7415C111.408 73.7415 109.646 75.0167 109.086 76.6085" stroke="black" stroke-miterlimit="10"/>
<path opacity="0.7" d="M105.066 81.8404C107.372 82.6789 109.914 82.5865 112.153 81.5827C113.512 80.9309 114.685 79.9464 115.563 78.7202" stroke="black" stroke-miterlimit="10"/>
<path opacity="0.35" d="M88.8071 72.3486C88.3454 73.3597 88.2935 74.5107 88.6626 75.5593C88.9164 76.1843 89.309 76.7432 89.8106 77.1937C90.3122 77.6442 90.9096 77.9745 91.5576 78.1595" stroke="black" stroke-width="0.75" stroke-miterlimit="10"/>
<path opacity="0.7" d="M102.088 71.5991C102.252 71.5476 102.034 70.3814 101.6 68.9942C101.167 67.6071 100.682 66.5243 100.518 66.5757C100.353 66.6272 100.572 67.7935 101.005 69.1806C101.439 70.5678 101.924 71.6506 102.088 71.5991Z" stroke="black" stroke-miterlimit="10"/>
<path opacity="0.7" d="M113.907 68.9709C114.072 68.9195 113.853 67.7532 113.42 66.366C112.986 64.9789 112.501 63.8961 112.337 63.9476C112.173 63.999 112.391 65.1653 112.825 66.5525C113.258 67.9396 113.743 69.0224 113.907 68.9709Z" stroke="black" stroke-miterlimit="10"/>
<g opacity="0.7">
<path d="M96.3906 65.8051C96.6062 65.164 96.9689 64.5825 97.4498 64.1073C97.9306 63.6321 98.5161 63.2766 99.1592 63.0692C99.8124 62.871 100.505 62.8383 101.174 62.9743C101.83 63.1052 102.444 63.3991 102.958 63.8289C101.816 63.2736 100.511 63.1577 99.2902 63.5033C98.6968 63.6871 98.1457 63.9868 97.6688 64.3851C97.1756 64.7932 96.7449 65.2716 96.3906 65.8051Z" fill="black"/>
</g>
<g opacity="0.7">
<path d="M115.021 61.4142C114.452 61.1185 113.844 60.9082 113.214 60.7901C112.606 60.6725 111.98 60.6725 111.371 60.7901C110.136 61.0791 109.049 61.813 108.318 62.8522C108.559 62.2271 108.953 61.6732 109.466 61.2424C109.985 60.7963 110.608 60.4887 111.277 60.348C111.947 60.2073 112.641 60.2381 113.296 60.4374C113.94 60.6218 114.531 60.9566 115.021 61.4142Z" fill="black"/>
</g>
<path d="M72.277 146.343C71.8778 151.509 72.7525 156.694 74.8243 161.443C74.3589 168.986 72.4419 176.369 69.1787 183.185C63.8944 177.143 55.2635 164.875 55.3493 148.324C55.5073 116.986 86.7432 99.9379 88.464 99.0334C91.6556 104.291 94.8458 109.55 98.0344 114.811C83.3559 120.518 73.3745 132.682 72.277 146.343Z" fill="#F6BA6F"/>
<mask id="mask7_53_1249" style="mask-type:luminance" maskUnits="userSpaceOnUse" x="55" y="99" width="44" height="85">
<path d="M72.277 146.343C71.8778 151.509 72.7525 156.694 74.8243 161.443C74.3589 168.986 72.4419 176.369 69.1787 183.185C63.8944 177.143 55.2635 164.875 55.3493 148.324C55.5073 116.986 86.7432 99.9379 88.464 99.0334C91.6556 104.291 94.8458 109.55 98.0344 114.811C83.3559 120.518 73.3745 132.682 72.277 146.343Z" fill="white"/>
</mask>
<g mask="url(#mask7_53_1249)">
<g opacity="0.15">
<path d="M69.2418 190.547C73.3613 182.904 76.1935 174.634 77.6243 166.069C78.076 163.554 78.3831 161.027 78.6225 158.49C78.7263 157.427 77.6198 156.41 76.59 156.455C76.0557 156.47 75.5473 156.689 75.1693 157.067C74.7913 157.446 74.5724 157.955 74.5576 158.49C74.4628 159.507 74.3589 160.525 74.2325 161.538L74.1783 161.958C74.2099 161.705 74.1783 161.913 74.1783 161.958C74.1466 162.211 74.1105 162.451 74.0744 162.695C73.9931 163.256 73.9028 163.812 73.8124 164.373C73.4692 166.447 73.0476 168.511 72.5478 170.564C71.577 174.59 70.2935 178.535 68.7088 182.362C68.7404 182.276 68.8262 182.081 68.6637 182.466L68.492 182.859C68.3656 183.153 68.2391 183.443 68.1081 183.736C67.8612 184.279 67.6083 184.822 67.3494 185.364C66.839 186.427 66.297 187.472 65.728 188.507C65.456 188.974 65.3804 189.529 65.5176 190.052C65.6548 190.574 65.9937 191.021 66.4596 191.293C66.9256 191.565 67.4805 191.641 68.0022 191.503C68.524 191.366 68.9699 191.027 69.2418 190.56V190.547Z" fill="black"/>
</g>
</g>
<path d="M123.611 27.9915C123.369 29.337 122.677 30.56 121.649 31.4592C120.62 32.3584 119.316 32.8802 117.952 32.9387C118.015 32.7711 118.092 32.6093 118.182 32.4548C118.388 32.1115 118.681 31.8291 119.032 31.6363C119.872 31.3848 120.627 30.9046 121.212 30.2491C121.796 29.5936 122.187 28.7886 122.342 27.9237C122.416 27.4983 122.434 27.065 122.396 26.6349C122.307 25.7288 121.961 24.8673 121.398 24.1523L115.197 23.0444C114.416 23.5158 113.789 24.2038 113.39 25.025C113.202 25.413 113.068 25.8255 112.993 26.2505C112.842 27.1217 112.936 28.0179 113.266 28.8384C113.595 29.6588 114.147 30.371 114.858 30.8947C115.141 31.1895 115.335 31.5577 115.418 31.9574C115.457 32.1387 115.479 32.3235 115.482 32.5091C114.997 32.3153 114.542 32.0567 114.127 31.7403C113.339 31.1535 112.707 30.3822 112.286 29.494C111.866 28.6058 111.669 27.6279 111.714 26.6459C111.758 25.664 112.043 24.7079 112.542 23.8616C113.042 23.0153 113.741 22.3046 114.578 21.7917L122.437 23.1981C123.148 24.1035 123.584 25.1945 123.693 26.341C123.743 26.8922 123.716 27.4479 123.611 27.9915Z" fill="#F6BA6F"/>
<path d="M121.407 40.3234C121.269 41.1114 120.975 41.8637 120.541 42.5357C120.107 43.2076 119.543 43.7855 118.882 44.235L110.608 42.7517C109.976 41.8611 109.598 40.8149 109.515 39.7255C109.432 38.6361 109.647 37.5446 110.137 36.5683C110.627 35.5921 111.373 34.7678 112.296 34.1841C113.218 33.6004 114.282 33.2794 115.373 33.2554C115.328 33.4334 115.265 33.6062 115.183 33.7709C114.977 34.2217 114.627 34.592 114.19 34.8245C113.452 35.0483 112.78 35.449 112.232 35.9919C111.685 36.5348 111.277 37.2034 111.046 37.9397C110.815 38.6759 110.767 39.4575 110.907 40.2166C111.046 40.9756 111.368 41.6891 111.846 42.295L118.047 43.4074C118.825 42.9332 119.452 42.2459 119.853 41.4268C120.039 41.0358 120.172 40.6223 120.251 40.1968C120.405 39.3259 120.314 38.4291 119.988 37.6071C119.662 36.7851 119.113 36.0705 118.404 35.5435C118.065 35.1826 117.854 34.7203 117.803 34.2276C117.785 34.0517 117.785 33.8744 117.803 33.6985C118.272 33.8945 118.715 34.1482 119.122 34.4537C120.009 35.1231 120.693 36.0268 121.097 37.0635C121.501 38.1003 121.608 39.229 121.407 40.3234Z" fill="#F6BA6F"/>
<path d="M115.468 32.5092C115.468 32.761 115.436 33.0117 115.373 33.2554C115.328 33.4334 115.265 33.6062 115.183 33.7709L113.761 33.5041H113.788C113.972 33.4586 114.138 33.3608 114.268 33.2225C114.397 33.0842 114.484 32.9114 114.517 32.7249C114.55 32.5384 114.529 32.3462 114.456 32.1715C114.383 31.9968 114.26 31.8471 114.104 31.7405H114.077L115.405 31.9756C115.443 32.1511 115.464 32.3298 115.468 32.5092Z" fill="#F6BA6F"/>
<path d="M119.108 34.4628L117.785 34.2231C117.767 34.0472 117.767 33.8699 117.785 33.694C117.803 33.4313 117.857 33.1725 117.948 32.9253C118.011 32.7578 118.088 32.5959 118.178 32.4414L119.443 32.672H119.42C119.23 32.7135 119.056 32.8108 118.921 32.9516C118.786 33.0924 118.696 33.2703 118.663 33.4625C118.629 33.6547 118.654 33.8525 118.733 34.0307C118.813 34.2088 118.943 34.3593 119.108 34.4628Z" fill="#F6BA6F"/>
<path d="M126.009 25.3147C125.936 25.6814 125.724 26.0055 125.418 26.2191C125.263 26.3264 125.089 26.402 124.905 26.4416C124.722 26.4812 124.532 26.484 124.347 26.4497L111.805 24.1887C111.619 24.1554 111.442 24.0859 111.284 23.9839C111.125 23.882 110.988 23.7497 110.881 23.5947C110.773 23.4397 110.698 23.265 110.658 23.0805C110.618 22.8961 110.615 22.7056 110.649 22.52C110.716 22.1459 110.929 21.8137 111.24 21.5966C111.552 21.3795 111.937 21.2952 112.311 21.3624L124.849 23.6234C125.037 23.6554 125.217 23.7249 125.378 23.8279C125.539 23.9309 125.678 24.0653 125.786 24.223C125.895 24.3808 125.97 24.5587 126.009 24.7462C126.047 24.9337 126.047 25.1271 126.009 25.3147Z" fill="#F6BA6F"/>
<path d="M122.676 43.4526C122.609 43.8267 122.396 44.1589 122.085 44.376C121.773 44.5931 121.388 44.6774 121.014 44.6102L108.476 42.3492C108.291 42.317 108.113 42.2483 107.954 42.1471C107.795 42.0458 107.657 41.914 107.55 41.7593C107.442 41.6046 107.365 41.43 107.325 41.2456C107.285 41.0612 107.282 40.8707 107.316 40.6851C107.387 40.3123 107.603 39.9831 107.916 39.7695C108.229 39.5558 108.614 39.4753 108.987 39.5455L121.529 41.8065C121.898 41.8749 122.225 42.0859 122.44 42.3939C122.654 42.702 122.739 43.0823 122.676 43.4526Z" fill="#F6BA6F"/>
<path d="M117.744 4.80705C117.517 5.63208 117.015 6.35421 116.32 6.85293C115.626 7.35164 114.781 7.59678 113.928 7.54743C113.975 7.4469 114.033 7.35145 114.1 7.26254C114.249 7.06349 114.449 6.9075 114.678 6.81033C115.212 6.70091 115.706 6.44577 116.104 6.0731C116.503 5.70043 116.79 5.22472 116.936 4.69852C117.007 4.43772 117.044 4.16855 117.044 3.89812C117.05 3.33224 116.893 2.77665 116.593 2.2973L112.803 1.23462C112.293 1.48369 111.865 1.87458 111.57 2.36061C111.428 2.59093 111.32 2.84075 111.25 3.10223C111.101 3.63284 111.102 4.19458 111.255 4.72424C111.407 5.25391 111.704 5.73049 112.112 6.10036C112.271 6.30099 112.369 6.54241 112.397 6.79676C112.408 6.91104 112.408 7.02616 112.397 7.14044C112.104 6.99148 111.834 6.80279 111.593 6.5797C111.141 6.1656 110.797 5.6469 110.592 5.069C110.387 4.4911 110.326 3.87161 110.415 3.26474C110.504 2.65788 110.74 2.08214 111.103 1.5879C111.466 1.09366 111.944 0.695991 112.496 0.429688L117.297 1.78631C117.583 2.23261 117.772 2.73473 117.85 3.25939C117.927 3.78406 117.893 4.3193 117.749 4.82966L117.744 4.80705Z" fill="#F6BA6F"/>
<path d="M115.635 12.3498C115.5 12.8287 115.271 13.2756 114.961 13.664C114.65 14.0524 114.265 14.3744 113.828 14.6109L108.77 13.1955C108.419 12.5878 108.247 11.8934 108.273 11.1922C108.3 10.3427 108.614 9.52752 109.165 8.88075C109.716 8.23397 110.47 7.79406 111.304 7.63332C111.632 7.56836 111.968 7.54858 112.302 7.57453C112.264 7.68155 112.215 7.78455 112.157 7.88203C111.999 8.14842 111.76 8.35747 111.475 8.47895C110.942 8.58942 110.45 8.84438 110.051 9.21599C109.653 9.5876 109.365 10.0616 109.217 10.5862C109.146 10.8471 109.109 11.1162 109.109 11.3866C109.103 11.9525 109.26 12.5081 109.56 12.9875L113.359 14.0592C113.87 13.8114 114.298 13.4202 114.592 12.9332C114.734 12.7048 114.843 12.4564 114.912 12.1961C115.063 11.6634 115.061 11.0991 114.907 10.5675C114.752 10.0359 114.452 9.55825 114.041 9.18891C113.846 8.9466 113.741 8.6449 113.742 8.33424C113.739 8.22372 113.746 8.11311 113.765 8.00413C114.523 8.40455 115.121 9.0531 115.458 9.84152C115.796 10.6299 115.854 11.5105 115.621 12.3363L115.635 12.3498Z" fill="#F6BA6F"/>
<path d="M112.406 7.13142C112.391 7.286 112.356 7.43798 112.302 7.58363C112.264 7.69065 112.215 7.79365 112.157 7.89113L111.286 7.64694C111.402 7.62874 111.512 7.57717 111.6 7.49842C111.688 7.41966 111.752 7.31706 111.783 7.20295C111.815 7.08883 111.813 6.96804 111.777 6.85509C111.742 6.74213 111.675 6.64181 111.584 6.56616L112.397 6.79679C112.41 6.90778 112.413 7.01984 112.406 7.13142Z" fill="#F6BA6F"/>
<path d="M114.555 8.5648L113.747 8.33869C113.743 8.22817 113.751 8.11756 113.77 8.00858C113.798 7.85168 113.848 7.6995 113.919 7.55638C113.966 7.45585 114.024 7.3604 114.09 7.27148L114.863 7.48854C114.745 7.50426 114.634 7.55402 114.545 7.63172C114.455 7.70942 114.39 7.81168 114.357 7.92595C114.324 8.04023 114.326 8.16155 114.361 8.27503C114.396 8.38851 114.464 8.48922 114.555 8.5648Z" fill="#F6BA6F"/>
<path d="M119.397 3.2875C119.332 3.51572 119.179 3.709 118.973 3.82562C118.765 3.9416 118.52 3.97085 118.291 3.90702L110.613 1.75904C110.445 1.708 110.295 1.60897 110.182 1.47409C110.07 1.33921 109.999 1.17433 109.978 0.999636C109.957 0.824945 109.988 0.648027 110.066 0.490548C110.145 0.333069 110.267 0.201865 110.419 0.113003C110.52 0.0547591 110.633 0.0175449 110.749 0.00356352C110.866 -0.0104179 110.984 -0.000882173 111.096 0.0316061L118.774 2.17959C119.003 2.24497 119.196 2.39796 119.313 2.60536C119.43 2.81277 119.46 3.05786 119.397 3.2875Z" fill="#F6BA6F"/>
<path d="M116.24 14.3756C116.175 14.6038 116.022 14.7971 115.816 14.9137C115.608 15.0297 115.363 15.0589 115.134 14.9951L107.456 12.8471C107.288 12.796 107.138 12.697 107.025 12.5621C106.912 12.4273 106.841 12.2624 106.821 12.0877C106.8 11.913 106.831 11.7361 106.909 11.5786C106.987 11.4211 107.11 11.2899 107.261 11.2011C107.468 11.0863 107.711 11.0571 107.939 11.1197L115.617 13.2676C115.846 13.333 116.039 13.486 116.156 13.6934C116.272 13.9008 116.303 14.1459 116.24 14.3756Z" fill="#F6BA6F"/>
<path d="M99.7869 15.7594C99.9948 16.673 99.9453 17.6264 99.6438 18.5134C99.3424 19.4005 98.8009 20.1863 98.0797 20.7834C97.7581 21.053 97.4028 21.2795 97.0228 21.4572C97.0142 21.3061 97.0218 21.1545 97.0454 21.005C97.0902 20.6745 97.2228 20.3622 97.4293 20.1006C97.9997 19.6309 98.4284 19.0118 98.6677 18.3122C98.907 17.6127 98.9473 16.8604 98.7842 16.1392C98.7054 15.7835 98.5762 15.4408 98.4003 15.1218C98.0386 14.4478 97.4895 13.8934 96.8196 13.5255L91.6437 14.6967C91.2058 15.3202 90.9551 16.0561 90.9211 16.8175C90.9054 17.1821 90.9389 17.5472 91.0204 17.9028C91.1844 18.6268 91.5469 19.2905 92.0671 19.8194C92.5874 20.3482 93.2447 20.7213 93.9652 20.8964C94.2818 21.0329 94.5541 21.2553 94.751 21.5386C94.8407 21.6649 94.9179 21.7997 94.9814 21.941C94.5402 21.9526 94.0996 21.9039 93.6716 21.7963C92.8704 21.5995 92.1296 21.2091 91.5139 20.6592C90.8983 20.1094 90.4266 19.4169 90.1401 18.6424C89.8535 17.8678 89.7609 17.0347 89.8703 16.216C89.9796 15.3973 90.2877 14.618 90.7675 13.946L97.3164 12.4492C97.9427 12.7923 98.4889 13.2649 98.9188 13.8356C99.3486 14.4063 99.6523 15.0621 99.8095 15.7594H99.7869Z" fill="#F6BA6F"/>
<path d="M102.126 26.0471C102.215 26.4403 102.257 26.8425 102.253 27.2455C102.235 28.1834 101.956 29.0977 101.449 29.8864L94.5343 31.4781C93.7374 30.9833 93.0944 30.2754 92.678 29.4342C92.497 29.0737 92.3605 28.6926 92.2715 28.2991C92.0124 27.1585 92.1556 25.9633 92.6767 24.9164C93.1979 23.8696 94.0648 23.0356 95.1304 22.5561C95.1531 22.7057 95.1606 22.8572 95.153 23.0083C95.1378 23.4254 94.989 23.8265 94.7285 24.1524C94.0232 24.7459 93.5439 25.5646 93.3711 26.4707C93.1983 27.3768 93.3427 28.3148 93.78 29.1267C94.146 29.7989 94.696 30.3527 95.3653 30.7229L100.532 29.5427C100.912 29.0107 101.155 28.3934 101.241 27.7451C101.327 27.0969 101.252 26.4374 101.024 25.8248C100.796 25.2121 100.42 24.665 99.9315 24.2314C99.4426 23.7979 98.8547 23.4912 98.2197 23.3384C97.8354 23.1748 97.5172 22.8865 97.3164 22.5199C97.2402 22.3913 97.1781 22.2549 97.1312 22.1129C97.5588 22.1099 97.9851 22.16 98.4004 22.2622C99.3107 22.4855 100.141 22.9577 100.799 23.626C101.457 24.2943 101.917 25.1325 102.126 26.0471Z" fill="#F6BA6F"/>
<path d="M94.9586 21.941C95.0404 22.1368 95.098 22.3418 95.1302 22.5515C95.1528 22.7011 95.1604 22.8526 95.1528 23.0037L93.9604 23.275C94.0869 23.1788 94.183 23.0482 94.2373 22.8988C94.2915 22.7493 94.3016 22.5874 94.2663 22.4324C94.2311 22.2773 94.152 22.1357 94.0384 22.0245C93.9249 21.9133 93.7818 21.8372 93.6262 21.8054H93.5991L94.7057 21.5566C94.8022 21.6763 94.8869 21.805 94.9586 21.941Z" fill="#F6BA6F"/>
<path d="M98.4185 22.2575L97.3165 22.5108C97.2403 22.3822 97.1782 22.2457 97.1313 22.1038C97.0598 21.8935 97.0173 21.6744 97.0049 21.4526C96.9963 21.3015 97.0039 21.1499 97.0275 21.0004L98.0798 20.7607C97.9423 20.8535 97.836 20.9856 97.7749 21.1399C97.7137 21.2942 97.7006 21.4634 97.7373 21.6253C97.7739 21.7872 97.8586 21.9342 97.9801 22.047C98.1017 22.1598 98.2545 22.2332 98.4185 22.2575Z" fill="#F6BA6F"/>
<path d="M100.767 12.9015C100.836 13.2125 100.78 13.5383 100.611 13.8083C100.442 14.0783 100.173 14.2708 99.8638 14.344L89.4036 16.7271C89.0922 16.7989 88.7651 16.7439 88.4941 16.5744C88.2231 16.4048 88.0304 16.1344 87.9584 15.8227C87.9229 15.6686 87.9182 15.509 87.9444 15.3531C87.9707 15.1971 88.0273 15.0479 88.1112 14.9139C88.1951 14.7799 88.3046 14.6638 88.4334 14.5722C88.5621 14.4807 88.7077 14.4154 88.8617 14.3802L99.3173 11.9925C99.6299 11.9208 99.9582 11.9763 100.23 12.1467C100.502 12.3171 100.695 12.5886 100.767 12.9015Z" fill="#F6BA6F"/>
<path d="M104.136 28.0775C104.172 28.2309 104.176 28.3898 104.15 28.5451C104.123 28.7003 104.067 28.8488 103.982 28.9819C103.811 29.2532 103.54 29.4465 103.228 29.52L92.7726 31.885C92.5418 31.9357 92.3012 31.9173 92.0807 31.8322C91.8602 31.7471 91.6695 31.599 91.5324 31.4063C91.3953 31.2136 91.3177 30.9848 91.3093 30.7483C91.301 30.5118 91.3622 30.2781 91.4854 30.0762C91.5689 29.942 91.6781 29.8257 91.8068 29.7341C91.9355 29.6425 92.0811 29.5774 92.2351 29.5426L102.691 27.1595C102.846 27.1241 103.006 27.1199 103.163 27.147C103.32 27.174 103.47 27.2319 103.604 27.3172C103.739 27.4026 103.855 27.5137 103.946 27.6441C104.037 27.7746 104.102 27.9219 104.136 28.0775Z" fill="#F6BA6F"/>
</svg>
